<svg width="14" height="16" viewBox="0 0 14 16" fill="none" xmlns="http://www.w3.org/2000/svg">
<path d="M12.5 2C13.3125 2 14 2.6875 14 3.5V14.5C14 15.3438 13.3125 16 12.5 16H1.5C0.65625 16 0 15.3438 0 14.5V3.5C0 2.6875 0.65625 2 1.5 2H3V0.375C3 0.1875 3.15625 0 3.375 0H3.625C3.8125 0 4 0.1875 4 0.375V2H10V0.375C10 0.1875 10.1562 0 10.375 0H10.625C10.8125 0 11 0.1875 11 0.375V2H12.5ZM1.5 3C1.21875 3 1 3.25 1 3.5V5H13V3.5C13 3.25 12.75 3 12.5 3H1.5ZM12.5 15C12.75 15 13 14.7812 13 14.5V6H1V14.5C1 14.7812 1.21875 15 1.5 15H12.5ZM4.625 10H3.375C3.15625 10 3 9.84375 3 9.625V8.375C3 8.1875 3.15625 8 3.375 8H4.625C4.8125 8 5 8.1875 5 8.375V9.625C5 9.84375 4.8125 10 4.625 10ZM7.625 10H6.375C6.15625 10 6 9.84375 6 9.625V8.375C6 8.1875 6.15625 8 6.375 8H7.625C7.8125 8 8 8.1875 8 8.375V9.625C8 9.84375 7.8125 10 7.625 10ZM10.625 10H9.375C9.15625 10 9 9.84375 9 9.625V8.375C9 8.1875 9.15625 8 9.375 8H10.625C10.8125 8 11 8.1875 11 8.375V9.625C11 9.84375 10.8125 10 10.625 10ZM7.625 13H6.375C6.15625 13 6 12.8438 6 12.625V11.375C6 11.1875 6.15625 11 6.375 11H7.625C7.8125 11 8 11.1875 8 11.375V12.625C8 12.8438 7.8125 13 7.625 13ZM4.625 13H3.375C3.15625 13 3 12.8438 3 12.625V11.375C3 11.1875 3.15625 11 3.375 11H4.625C4.8125 11 5 11.1875 5 11.375V12.625C5 12.8438 4.8125 13 4.625 13ZM10.625 13H9.375C9.15625 13 9 12.8438 9 12.625V11.375C9 11.1875 9.15625 11 9.375 11H10.625C10.8125 11 11 11.1875 11 11.375V12.625C11 12.8438 10.8125 13 10.625 13Z" fill="#5C6666"/>
</svg>
