<svg width="100" height="104" viewBox="0 0 100 104" fill="none" xmlns="http://www.w3.org/2000/svg">
<mask id="mask0_406_4860" style="mask-type:alpha" maskUnits="userSpaceOnUse" x="2" y="19" width="26" height="76">
<rect x="2.15625" y="22.0444" width="10" height="74" transform="rotate(-12 2.15625 22.0444)" fill="#D9D9D9"/>
</mask>
<g mask="url(#mask0_406_4860)">
<circle cx="48.1398" cy="50.4693" r="37.1803" transform="rotate(77 48.1398 50.4693)" stroke="#1B485A" stroke-linecap="round" stroke-linejoin="round" stroke-dasharray="5 4"/>
</g>
<g clip-path="url(#clip0_406_4860)">
<path d="M23.7709 24.1404C24.6508 24.8692 25.0778 25.7591 25.0518 26.8103C25.0257 27.8614 24.5493 28.9466 23.6224 30.0657C22.6956 31.1849 21.7632 31.9571 20.8252 32.3823L19.2954 31.1154C19.8812 30.8398 20.4443 30.4997 20.9848 30.0952C21.5289 29.6861 21.9822 29.2628 22.3448 28.825C22.8755 28.1842 23.1442 27.6117 23.1509 27.1076C23.1613 26.5989 22.9612 26.1745 22.5506 25.8344C22.1805 25.5279 21.751 25.4081 21.2621 25.4749C20.7731 25.5416 19.9902 25.867 18.9131 26.451C17.8001 27.0508 16.8557 27.3414 16.08 27.3228C15.3042 27.3041 14.5869 27.022 13.928 26.4763C13.1022 25.7924 12.6952 24.9609 12.7073 23.9818C12.7193 23.0028 13.1345 22.0191 13.953 21.0308C14.7378 20.0831 15.7265 19.3119 16.919 18.717L17.8129 20.3247C16.7141 20.8982 15.8788 21.5302 15.307 22.2206C14.8735 22.7441 14.6597 23.2365 14.6656 23.6979C14.667 24.1555 14.855 24.5394 15.2295 24.8496C15.4867 25.0627 15.7527 25.1916 16.0274 25.2366C16.2976 25.2777 16.6167 25.2415 16.9848 25.1278C17.3528 25.0142 17.9371 24.7449 18.7378 24.3201C19.6419 23.844 20.3649 23.545 20.9069 23.4233C21.449 23.3016 21.9501 23.2982 22.4104 23.4131C22.8706 23.528 23.3241 23.7704 23.7709 24.1404Z" fill="#0C1F26"/>
<path d="M32.3703 22.9294C31.0772 23.7125 29.8372 23.9498 28.6501 23.6412C27.4651 23.3246 26.4718 22.5047 25.6705 21.1816C24.8478 19.8235 24.5396 18.551 24.7456 17.3644C24.9517 16.1778 25.6462 15.2263 26.8289 14.5099C27.9265 13.8451 28.9954 13.6533 30.0356 13.9343C31.0758 14.2154 31.9496 14.9398 32.6569 16.1075L33.2351 17.0623L27.6946 20.418C28.2084 21.2098 28.8028 21.6992 29.4779 21.8863C30.1499 22.0684 30.8593 21.9333 31.606 21.481C32.0972 21.1835 32.526 20.8622 32.8923 20.517C33.2606 20.1637 33.6226 19.7321 33.9782 19.2222L34.8479 20.658C34.5413 21.1246 34.1933 21.534 33.8039 21.8863C33.4145 22.2387 32.9366 22.5863 32.3703 22.9294ZM27.6394 15.8481C27.0781 16.188 26.7348 16.6392 26.6095 17.2014C26.4893 17.7606 26.603 18.4008 26.9506 19.1218L30.7245 16.8361C30.2986 16.1555 29.819 15.737 29.2858 15.5804C28.7495 15.4189 28.2007 15.5081 27.6394 15.8481Z" fill="#0C1F26"/>
<path d="M42.558 19.4619C41.0762 19.7611 39.8291 19.5646 38.8166 18.8725C37.8086 18.1734 37.1516 17.0657 36.8454 15.5494C36.531 13.993 36.6717 12.6913 37.2673 11.6445C37.8629 10.5977 38.8384 9.93743 40.1938 9.66371C41.4516 9.4097 42.5224 9.59099 43.4061 10.2076C44.2897 10.8241 44.8667 11.8015 45.1369 13.1398L45.3579 14.2339L39.0085 15.5161C39.224 16.435 39.6176 17.0967 40.1895 17.5013C40.7602 17.9001 41.4734 18.0131 42.3292 17.8403C42.8921 17.7266 43.4043 17.5694 43.8659 17.3686C44.332 17.1609 44.8187 16.8773 45.3259 16.5178L45.6582 18.1633C45.2119 18.4985 44.7458 18.766 44.2601 18.9657C43.7744 19.1654 43.2071 19.3308 42.558 19.4619ZM40.5035 11.1972C39.8602 11.3271 39.3845 11.6354 39.0763 12.122C38.7738 12.6075 38.6641 13.2484 38.7472 14.0446L43.072 13.1712C42.9016 12.3867 42.5921 11.8305 42.1433 11.5027C41.6934 11.1691 41.1468 11.0673 40.5035 11.1972Z" fill="#0C1F26"/>
<path d="M65.3042 23.7714L63.3567 22.9611L65.5815 17.6135L60.1122 15.338L57.8873 20.6856L55.9479 19.8787L60.8838 8.01494L62.8232 8.82183L60.8043 13.6745L66.2736 15.95L68.2926 11.0973L70.2401 11.9076L65.3042 23.7714Z" fill="#0C1F26"/>
<path d="M76.8756 28.3738C75.768 29.5116 74.6118 30.1155 73.4069 30.1855C72.2021 30.2556 71.0791 29.7838 70.0378 28.7702C69.3871 28.1367 68.9549 27.4298 68.7414 26.6495C68.5279 25.8693 68.5545 25.0733 68.8212 24.2618C69.0879 23.4502 69.5748 22.6812 70.2819 21.9549C71.3813 20.8255 72.5293 20.2258 73.7259 20.1559C74.9224 20.0859 76.0476 20.5639 77.1014 21.5898C78.1091 22.5707 78.59 23.6726 78.5443 24.8956C78.5027 26.1144 77.9465 27.2737 76.8756 28.3738ZM71.8059 23.4385C70.2405 25.0465 70.0519 26.4289 71.2401 27.5855C72.4157 28.73 73.7862 28.4981 75.3516 26.8901C76.9006 25.2989 77.0831 23.927 75.8991 22.7744C75.2778 22.1695 74.6262 21.9359 73.9443 22.0735C73.2667 22.2152 72.5539 22.6702 71.8059 23.4385Z" fill="#0C1F26"/>
<path d="M77.6614 41.0784L81.3187 38.1168C81.6985 37.7854 82.6122 37.0876 84.0598 36.0233L84.0282 35.9508C82.4419 36.2703 81.3055 36.4707 80.6189 36.5522L75.9609 37.1696L75.0493 35.0742L82.8761 28.6979L83.7176 30.6322L79.8196 33.6794C78.8464 34.4095 77.9964 34.9966 77.2694 35.4406L77.2905 35.489C77.7061 35.3721 78.1898 35.2575 78.7416 35.1452C79.3011 35.036 79.7247 34.9667 80.0123 34.9375L85.2919 34.2508L86.1965 36.3302L82.0774 39.6845C81.8492 39.8796 81.4895 40.1543 80.9982 40.5086C80.5093 40.8683 80.1191 41.1243 79.8276 41.2767L79.8556 41.3411C80.5515 41.1342 81.5575 40.9202 82.8735 40.6992L87.7672 39.9408L88.5947 41.8428L78.5871 43.2061L77.6614 41.0784Z" fill="#0C1F26"/>
<path d="M78.6562 54.1258L91.3801 55.919L91.0869 57.999L78.3631 56.2058L78.6562 54.1258Z" fill="#0C1F26"/>
<path d="M77.0288 65.037C76.838 65.5034 76.7205 65.9998 76.6762 66.5261L75.2363 65.9372C75.2306 65.688 75.2667 65.383 75.3445 65.0224C75.4148 64.665 75.5231 64.3073 75.6694 63.9493C76.4102 62.1379 77.7352 61.6226 79.6442 62.4033L84.4927 64.3862L84.995 63.1578L85.8411 63.5038L86.0017 65.1078L87.6392 66.5371L87.1568 67.7167L85.1555 66.8983L84.1075 69.4608L82.6595 68.8686L83.7075 66.3061L78.8916 64.3365C78.4306 64.148 78.0423 64.1221 77.7268 64.259C77.4145 64.4035 77.1818 64.6628 77.0288 65.037Z" fill="#0C1F26"/>
<path d="M59.5274 80.2324L61.4136 78.9424L67.5393 84.038C67.8052 84.2607 68.1732 84.5912 68.6432 85.0293C69.1165 85.4722 69.4347 85.787 69.5978 85.9736C69.4345 85.631 69.2397 85.175 69.0136 84.6056C68.7826 84.0395 68.6207 83.6107 68.5278 83.3193L65.9768 75.8215L67.863 74.5315L72.866 78.9042L77.8809 83.2475L76.1107 84.4581L70.3673 79.3141C69.4522 78.4847 68.6842 77.7251 68.0633 77.0352C68.2913 77.4827 68.5257 77.9968 68.7666 78.5774C69.0075 79.158 69.192 79.6352 69.3199 80.0091L71.8305 87.3855L70.1111 88.5614L64.0839 83.5475C63.5211 83.0877 62.7533 82.3492 61.7808 81.332C62.1812 82.0732 62.6091 83.0725 63.0645 84.3299L65.7728 91.5284L64.0172 92.7291L59.5274 80.2324Z" fill="#0C1F26"/>
<path d="M48.613 87.1783C48.3135 85.6189 48.4796 84.3251 49.1115 83.2968C49.7433 82.2685 50.7727 81.6174 52.1998 81.3432C53.0917 81.1719 53.9187 81.2219 54.6808 81.4931C55.4429 81.7644 56.0805 82.2416 56.5936 82.9246C57.1066 83.6077 57.4588 84.447 57.65 85.4424C57.9473 86.9903 57.7824 88.2749 57.1552 89.2964C56.528 90.3178 55.4923 90.9672 54.048 91.2446C52.667 91.5099 51.488 91.274 50.5111 90.5368C49.5353 89.8054 48.9026 88.6859 48.613 87.1783ZM55.5612 85.8436C55.1379 83.6398 54.112 82.6943 52.4836 83.0071C50.8724 83.3166 50.2785 84.5732 50.7018 86.7771C51.1207 88.9579 52.1415 89.8925 53.7642 89.5808C54.6158 89.4172 55.1802 89.0164 55.4574 88.3785C55.7289 87.7416 55.7635 86.8967 55.5612 85.8436Z" fill="#0C1F26"/>
<path d="M39.1026 91.0525C38.6897 91.0014 38.3531 90.9302 38.0928 90.8389L38.5299 88.9536C38.8121 89.0593 39.1101 89.1317 39.4241 89.1705C40.244 89.272 40.943 89.087 41.5209 88.6154C42.0931 88.143 42.432 87.4794 42.5379 86.6246L43.162 81.583L45.2118 81.8368L44.0175 91.4839L42.4125 91.2852L42.3527 89.5508L42.248 89.5378C41.857 90.0739 41.3847 90.4789 40.8312 90.7529C40.2719 91.0261 39.6957 91.1259 39.1026 91.0525Z" fill="#0C1F26"/>
<path d="M32.7422 83.939L31.0754 84.7857L27.1103 86.4245L24.9407 85.4417L30.226 83.2527L28.7275 76.4856L30.9372 77.4865L32.0204 82.6569L33.4376 82.276L34.8121 79.2418L36.6775 80.0868L31.0345 92.5441L29.1691 91.6991L31.9217 85.6225L32.7902 83.9608L32.7422 83.939Z" fill="#0C1F26"/>
</g>
<defs>
<clipPath id="clip0_406_4860">
<rect width="87" height="72" fill="white" transform="translate(79.9014) rotate(77)"/>
</clipPath>
</defs>
</svg>
