<svg width="432" height="431" viewBox="0 0 432 431" fill="none" xmlns="http://www.w3.org/2000/svg">
<path d="M202.5 1.10003C151.4 3.70003 101.1 26.3 63.9 63.3C29.8 97.3 8.1 141.8 1.9 190C0.4 201.9 0.4 229.6 2 241.5C5.1 266.1 12.3 290.2 23.1 311.9C48.7 363.4 93.5 402.4 147.6 420.3C171.9 428.3 189.2 431 216 431C242.8 431 260.1 428.3 284.5 420.2C329.7 405.3 368.8 375.2 396.3 334.2C404.8 321.5 415 300.3 420.3 284.4C428.2 260.4 431.1 241.9 431.1 215.5C431.1 181.2 424.4 152 409.5 121.5C388.7 78.5 353.5 43.3 310.5 22.5C276.1 5.80003 242.6 -0.899974 202.5 1.10003ZM235.8 23.1C323.4 32.6 393 98.5 407.6 185.5C408.4 190.4 409.3 201 409.7 209C412.7 284.1 370.4 355.3 302.5 389.3C276.3 402.4 251.9 408.6 222 409.7C110.9 413.8 17.8 320.2 22.3 209C23.3 185 27.4 165.9 36.1 144C67.9 64.2 151.1 13.8 235.8 23.1Z" fill="#151515"/>
<path d="M212 83.3C209.6 84.1 207.9 85.6 206.8 88C205.1 91.2 205 96.5 205 154.8C205 222.4 205 222.3 209.9 224.9C214.3 227.3 280.6 249 283.4 249C292.9 249 298.2 237.3 291.6 231.1C290.2 229.8 277.3 224.9 258.4 218.6L227.5 208.3L227 148.9C226.6 103.4 226.2 89 225.2 87.3C222.9 83.2 217.3 81.6 212 83.3Z" fill="#151515"/>
</svg>
