<svg width="234" height="234" viewBox="0 0 234 234" fill="none" xmlns="http://www.w3.org/2000/svg">
<path d="M59.0024 1.23383C57.7024 1.83383 56.1024 3.93383 55.5024 5.73383C54.8024 7.63383 53.2024 9.63383 51.4024 10.5338C46.4024 13.1338 40.8024 19.1338 37.9024 25.1338C36.4024 28.3338 33.5024 32.7338 31.5024 34.9338C26.6024 40.4338 26.5024 45.4338 31.3024 50.6338L34.6024 54.3338L30.5024 56.3338C25.4024 58.9338 23.7024 62.1338 24.3024 67.9338C24.8024 72.9338 28.1024 76.6338 33.0024 77.6338C35.3024 78.0338 36.6024 79.4338 39.1024 84.1338C40.9024 87.4338 44.3024 91.8338 46.6024 93.8338C50.2024 96.8338 50.9024 97.9338 50.7024 100.434C50.4024 103.234 49.6024 103.734 39.9024 108.034C27.5024 113.634 23.4024 116.834 19.4024 124.034C17.0024 128.534 16.4024 130.934 16.0024 138.934L15.4024 148.434L12.0024 148.734C10.0024 148.934 8.30244 148.534 7.80244 147.734C7.30244 147.034 6.90244 126.534 6.90244 102.134C6.90244 54.1338 7.00244 53.3338 12.4024 49.1338C13.9024 47.9338 16.0024 46.9338 17.0024 46.9338C18.5024 46.9338 18.9024 46.1338 18.9024 43.4338C18.9024 40.3338 18.6024 39.9338 16.4024 39.9338C12.7024 39.9338 6.40244 43.4338 4.10244 46.6338C-0.0975578 52.5338 -0.197558 54.8338 0.102442 115.434L0.402442 173.434L2.70244 177.434C4.00244 179.634 6.60244 182.634 8.60244 183.934C12.2024 186.434 12.3024 186.434 40.3024 186.734C55.8024 186.934 68.8024 187.434 69.3024 187.934C69.8024 188.434 69.6024 192.634 68.9024 197.634C67.1024 211.434 67.3024 210.934 63.8024 210.934C57.5024 210.934 50.9024 216.634 50.9024 222.134C50.9024 223.734 51.6024 226.334 52.4024 227.934C55.5024 233.934 55.7024 233.934 101.602 233.934C141.602 233.934 143.502 233.834 146.702 231.934C156.602 225.934 151.102 210.934 139.102 210.934C136.102 210.934 136.102 210.834 135.002 204.134C134.402 200.434 133.802 195.134 133.702 192.434L133.402 187.434L161.902 186.934C192.002 186.434 192.302 186.334 197.002 181.234C202.402 175.434 202.402 175.634 202.702 141.634L203.002 109.934H199.502H195.902V128.134C195.902 138.234 195.502 147.034 195.102 147.734C194.402 148.634 185.902 148.934 155.802 148.734L117.402 148.434L116.802 138.934C115.902 122.334 110.502 115.434 92.5024 107.934C82.1024 103.634 81.9024 103.534 81.9024 100.234C81.9024 97.8338 82.6024 96.4338 84.8024 94.8338C86.4024 93.7338 89.8024 89.4338 92.4024 85.3338C95.1024 81.2338 97.8024 77.9338 98.6024 77.9338C101.402 77.9338 105.902 74.8338 107.402 71.9338C110.602 65.7338 107.902 58.1338 101.502 55.8338L98.0024 54.6338L101.502 50.5338C103.802 47.9338 104.902 45.5338 104.902 43.5338C104.902 39.9338 101.902 34.5338 99.0024 32.9338C97.8024 32.3338 96.9024 31.1338 96.9024 30.1338C96.8024 24.3338 89.2024 14.2338 82.3024 10.9338C79.0024 9.33383 77.7024 8.03383 77.3024 5.93383C76.9024 4.43383 75.5024 2.53383 73.9024 1.63383C70.6024 -0.366166 62.5024 -0.566166 59.0024 1.23383ZM70.4024 10.1338C70.7024 11.4338 70.9024 16.4338 70.7024 21.3338C70.4024 31.1338 69.4024 32.7338 64.6024 31.5338L61.9024 30.9338V19.4338V7.93383H65.9024C69.2024 7.93383 70.0024 8.33383 70.4024 10.1338ZM54.9024 24.4338C54.9024 30.4338 54.7024 30.9338 52.5024 31.5338C51.2024 31.8338 48.8024 31.9338 47.3024 31.7338C42.9024 31.2338 43.1024 28.1338 47.9024 22.6338C53.7024 16.1338 54.9024 16.4338 54.9024 24.4338ZM83.9024 21.6338C85.8024 23.7338 88.0024 26.4338 88.6024 27.6338C89.7024 29.5338 89.6024 30.0338 87.8024 30.9338C86.7024 31.5338 84.1024 31.9338 82.1024 31.7338L78.4024 31.4338L78.1024 24.6338C77.8024 16.6338 78.8024 16.1338 83.9024 21.6338ZM96.7024 40.1338C98.6024 42.0338 98.1024 44.6338 95.7024 46.3338C93.8024 47.7338 89.3024 47.9338 66.9024 47.9338C52.3024 47.9338 39.4024 47.6338 38.1024 47.3338C35.5024 46.5338 34.2024 42.5338 35.9024 40.4338C37.0024 39.1338 41.7024 38.9338 66.3024 38.9338C87.7024 38.9338 95.8024 39.2338 96.7024 40.1338ZM89.7024 64.9338C89.9024 71.4338 89.5024 76.4338 88.7024 78.4338C85.0024 87.5338 76.0024 93.9338 66.6024 93.9338C59.8024 93.9338 55.6024 92.3338 50.4024 87.8338C44.4024 82.5338 42.9024 78.2338 42.9024 65.8338C42.9024 60.0338 43.2024 54.9338 43.6024 54.5338C44.0024 54.2338 54.4024 54.0338 66.8024 54.1338L89.4024 54.4338L89.7024 64.9338ZM35.7024 67.2338C35.3024 70.4338 31.5024 70.2338 31.1024 67.0338C30.6024 63.8338 33.8024 61.0338 35.2024 63.4338C35.6024 64.3338 35.9024 66.0338 35.7024 67.2338ZM101.402 66.4338C101.402 68.7338 100.902 69.5338 99.2024 69.7338C97.2024 70.0338 96.9024 69.6338 96.9024 66.4338C96.9024 63.2338 97.2024 62.8338 99.2024 63.1338C100.902 63.3338 101.402 64.1338 101.402 66.4338ZM73.9024 102.234C73.9024 103.934 69.7024 105.934 66.3024 105.934C63.1024 105.934 57.7024 103.134 58.4024 101.934C58.8024 101.334 62.4024 100.934 66.5024 100.934C72.0024 100.934 73.9024 101.234 73.9024 102.234ZM56.5024 111.134C57.4024 112.534 53.4024 115.934 50.8024 115.934C49.6024 115.934 48.9024 115.234 48.9024 113.934C48.9024 110.734 54.9024 108.434 56.5024 111.134ZM83.3024 111.934C84.5024 113.134 83.3024 115.934 81.5024 115.934C79.2024 115.934 75.5024 112.434 76.3024 111.034C77.1024 109.734 81.6024 110.334 83.3024 111.934ZM68.7024 115.734C69.1024 118.534 66.3024 119.734 64.2024 117.634C62.8024 116.334 62.8024 115.734 63.9024 114.434C65.7024 112.234 68.3024 112.934 68.7024 115.734ZM42.4024 119.134C43.6024 124.534 44.3024 124.934 50.7024 123.334C53.8024 122.634 56.7024 122.034 57.0024 121.934C57.7024 121.934 56.7024 128.134 54.4024 137.934C53.5024 141.534 52.6024 145.434 52.3024 146.734C51.9024 148.934 51.7024 149.034 37.6024 148.734L23.4024 148.434L23.1024 140.734C22.9024 134.234 23.2024 132.334 25.3024 128.234C28.0024 122.734 29.8024 121.034 35.4024 118.134C40.8024 115.334 41.6024 115.434 42.4024 119.134ZM98.9024 119.134C106.202 123.534 109.902 130.434 109.902 139.434C109.902 149.434 110.702 148.934 94.8024 148.934C81.2024 148.934 80.9024 148.934 80.4024 146.634C80.1024 145.434 78.8024 139.534 77.4024 133.534C76.0024 127.534 75.0024 122.434 75.3024 122.234C75.5024 122.034 77.4024 122.234 79.6024 122.834C81.7024 123.434 84.6024 123.934 86.1024 123.934C88.4024 123.934 89.0024 123.334 89.9024 119.934C90.5024 117.734 91.5024 115.934 92.2024 115.934C92.9024 115.934 95.9024 117.434 98.9024 119.134ZM69.3024 129.834C70.5024 133.934 72.9024 145.234 72.9024 147.034C72.9024 148.734 72.2024 148.934 66.4024 148.934C60.2024 148.934 59.9024 148.834 59.9024 146.534C59.9024 144.434 62.3024 132.434 63.3024 129.434C63.9024 127.734 68.8024 128.034 69.3024 129.834ZM195.302 157.534C196.402 160.334 195.902 168.934 194.502 172.334C193.802 174.134 191.802 176.634 190.102 177.834L187.102 179.934H101.702C36.0024 179.934 15.8024 179.634 14.0024 178.634C9.70244 176.434 7.70244 172.634 7.20244 165.634C6.90244 162.034 6.90244 158.334 7.20244 157.534C7.80244 156.134 17.4024 155.934 101.302 155.934C185.502 155.934 194.702 156.134 195.302 157.534ZM125.802 189.134C126.202 190.434 126.902 195.234 127.302 199.834C127.702 204.434 128.302 208.834 128.602 209.534C129.002 210.734 124.602 210.934 102.002 210.934H74.9024V207.334C74.9024 204.034 76.7024 190.934 77.5024 188.134C77.7024 187.234 83.4024 186.934 101.402 186.934C124.902 186.934 125.002 186.934 125.802 189.134ZM141.702 218.534C143.002 218.934 144.202 220.234 144.602 221.734C145.802 226.834 145.002 226.934 101.302 226.934C66.0024 226.934 60.8024 226.734 59.5024 225.334C57.3024 223.234 57.5024 221.334 60.1024 219.534C62.0024 218.134 67.6024 217.934 100.902 217.934C122.102 217.934 140.402 218.234 141.702 218.534Z" fill="#ECECEC"/>
<path d="M50.9025 66.4338C50.9025 69.7338 51.1025 69.9338 54.4025 69.9338C57.7025 69.9338 57.9025 69.7338 57.9025 66.4338C57.9025 63.1338 57.7025 62.9338 54.4025 62.9338C51.1025 62.9338 50.9025 63.1338 50.9025 66.4338Z" fill="#ECECEC"/>
<path d="M73.9025 66.4338C73.9025 69.8338 74.0025 69.9338 77.9025 69.9338C81.8025 69.9338 81.9025 69.8338 81.9025 66.4338C81.9025 63.0338 81.8025 62.9338 77.9025 62.9338C74.0025 62.9338 73.9025 63.0338 73.9025 66.4338Z" fill="#ECECEC"/>
<path d="M172.302 165.334C172.002 166.134 171.902 167.834 172.102 169.134C172.302 170.934 173.102 171.534 175.702 171.734C178.802 172.034 178.902 171.934 178.902 168.034C178.902 164.134 178.702 163.934 175.902 163.934C174.202 163.934 172.602 164.534 172.302 165.334Z" fill="#ECECEC"/>
<path d="M169.602 9.33386C168.802 10.1339 167.802 13.3339 167.502 16.3339C166.802 21.7339 166.602 21.9339 162.902 23.0339C159.302 24.1339 158.802 24.0339 155.102 21.0339C152.902 19.3339 150.202 17.9339 149.102 17.9339C146.502 17.9339 134.902 29.1339 134.902 31.7339C134.902 32.7339 136.202 35.3339 137.902 37.5339C143.102 44.4339 141.002 49.4339 132.402 50.5339C129.702 50.9339 126.802 51.6339 126.202 52.2339C125.302 52.8339 124.902 56.2339 124.902 62.4339C124.902 68.6339 125.302 72.0339 126.202 72.7339C126.802 73.2339 129.802 74.1339 132.802 74.5339C137.502 75.3339 138.602 75.9339 140.202 78.6339L142.002 81.8339L138.502 86.5339C136.502 89.1339 134.902 92.0339 134.902 93.0339C134.902 95.4339 146.602 106.934 149.102 106.934C150.202 106.934 152.802 105.534 154.902 103.934C159.202 100.534 159.902 100.334 163.902 102.434C166.302 103.634 166.802 104.734 167.402 109.134C167.802 112.034 168.602 115.034 169.102 115.634C169.802 116.534 173.302 116.934 179.902 116.934C190.702 116.934 190.302 117.234 191.402 109.534C192.802 100.734 197.402 98.9339 204.802 104.334C207.502 106.334 210.002 107.934 210.402 107.934C211.602 107.934 224.902 94.7339 224.902 93.5339C224.902 92.9339 223.302 90.0339 221.202 87.1339C217.602 81.9339 217.602 81.7339 219.202 78.5339C220.602 75.4339 221.202 75.1339 226.802 74.5339C234.002 73.7339 234.102 73.5339 233.702 61.0339C233.402 51.6339 233.202 51.4339 225.602 50.4339C221.402 49.8339 220.602 49.3339 219.202 46.4339C217.602 43.0339 217.602 43.0339 221.202 37.7339C223.302 34.8339 224.902 32.0339 224.902 31.6339C224.902 31.1339 222.102 27.8339 218.702 24.3339C211.602 16.9339 209.602 16.4339 203.902 21.0339C200.802 23.5339 199.502 24.0339 197.102 23.4339C193.102 22.6339 192.302 21.4339 191.402 15.1339C190.902 11.5339 190.102 9.63386 188.902 8.93386C185.902 7.33386 171.302 7.63386 169.602 9.33386ZM183.702 16.1339C184.402 16.8339 184.902 18.7339 185.002 20.3339C185.102 25.5339 186.302 26.9339 192.402 29.5339C199.902 32.5339 201.302 32.5339 205.302 29.4339C209.502 26.2339 209.902 26.3339 213.302 29.8339L216.202 32.8339L213.002 36.6339C209.302 41.1339 209.202 41.7339 212.302 49.4339C214.902 55.6339 215.502 56.1339 223.202 57.4339C226.802 58.0339 226.902 58.1339 226.902 62.4339C226.902 67.2339 226.802 67.2339 219.202 68.4339C215.302 69.0339 214.902 69.4339 213.302 73.7339C212.302 76.3339 211.202 78.8339 210.702 79.3339C209.202 81.1339 209.902 84.2339 212.402 87.5339C215.602 91.7339 215.502 92.9339 212.202 96.2339L209.402 98.8339L205.502 95.8339C200.802 92.4339 199.102 92.2339 193.902 94.9339C191.702 96.0339 189.302 96.9339 188.502 96.9339C187.102 96.9339 185.902 99.8339 184.402 107.134C183.902 109.634 183.402 109.934 180.102 109.934C175.402 109.934 173.902 108.534 173.902 103.934C173.902 99.2339 172.502 97.7339 166.002 95.1339C159.002 92.3339 158.102 92.3339 153.702 95.9339L150.102 98.9339L147.002 96.3339C143.202 93.2339 143.202 91.9339 146.402 88.1339C149.502 84.4339 149.502 81.9339 146.502 75.0339C144.002 69.3339 142.502 68.1339 137.402 68.0339C133.402 67.9339 131.902 66.3339 131.902 62.2339C131.902 58.5339 133.302 57.5339 140.102 56.4339C143.402 55.9339 144.102 55.2339 146.002 51.1339C149.302 43.6339 149.402 40.9339 146.502 37.0339C143.302 32.7339 143.302 32.8339 146.402 29.5339C149.402 26.3339 150.202 26.3339 154.302 29.4339C158.302 32.4339 158.902 32.5339 165.902 29.8339C172.302 27.4339 173.902 25.7339 173.902 21.3339C173.902 19.5339 174.602 17.3339 175.502 16.5339C177.302 14.6339 182.002 14.4339 183.702 16.1339Z" fill="#ECECEC"/>
<path d="M168.802 41.9338C161.302 45.9338 156.902 53.5338 156.902 62.6338C156.902 73.2338 163.002 81.2338 173.302 84.5338C183.102 87.6338 192.702 84.0338 198.702 75.0338C206.202 63.6338 202.102 48.1338 189.802 41.9338C184.602 39.2338 173.802 39.2338 168.802 41.9338ZM188.002 49.2338C192.702 52.3338 196.202 59.6338 195.302 64.3338C193.202 76.0338 180.602 81.9338 171.102 75.7338C157.902 66.9338 163.802 46.9338 179.502 46.9338C183.102 46.9338 185.602 47.6338 188.002 49.2338Z" fill="#ECECEC"/>
<path d="M114.302 40.3338C114.002 41.1338 113.902 42.8338 114.102 44.1338C114.402 46.3338 114.902 46.4338 123.002 46.7338L131.702 47.0338L132.102 43.4338C132.302 41.4338 132.302 39.6338 132.002 39.4338C131.802 39.1338 127.802 38.9338 123.202 38.9338C116.902 38.9338 114.702 39.2338 114.302 40.3338Z" fill="#ECECEC"/>
<path d="M132.902 121.134V124.434L148.102 124.234L163.302 124.034V121.234V118.434L148.102 118.134L132.902 117.834V121.134Z" fill="#ECECEC"/>
<path d="M132.902 136.434V139.934H148.302H163.702L163.402 136.634L163.202 133.434L148.002 133.134L132.902 132.834V136.434Z" fill="#ECECEC"/>
</svg>
