<svg width="268" height="268" viewBox="0 0 268 268" fill="none" xmlns="http://www.w3.org/2000/svg">
<path d="M130.424 3.17662C130.927 -1.05888 137.073 -1.05888 137.576 3.17662L141.792 38.7086C147.236 84.59 183.41 120.764 229.291 126.208L264.823 130.424C269.059 130.927 269.059 137.073 264.823 137.576L229.291 141.792C183.41 147.236 147.236 183.41 141.792 229.291L137.576 264.823C137.073 269.059 130.927 269.059 130.424 264.823L126.208 229.291C120.764 183.41 84.59 147.236 38.7086 141.792L3.17662 137.576C-1.05888 137.073 -1.05888 130.927 3.17662 130.424L38.7086 126.208C84.59 120.764 120.764 84.59 126.208 38.7086L130.424 3.17662Z" fill="url(#paint0_linear_2325_113)"/>
<defs>
<linearGradient id="paint0_linear_2325_113" x1="-1.35372e-06" y1="133.585" x2="268" y2="133.585" gradientUnits="userSpaceOnUse">
<stop offset="0.140625" stop-color="#B16CEA"/>
<stop offset="0.447917" stop-color="#FF5E69"/>
<stop offset="0.71875" stop-color="#FF8A56"/>
<stop offset="1" stop-color="#FFA84B"/>
</linearGradient>
</defs>
</svg>
