<svg width="242" height="241" viewBox="0 0 242 241" fill="#fff" xmlns="http://www.w3.org/2000/svg">
<path d="M0.6 1.60012C-0.2 3.60012 -0.2 18.4001 0.6 20.4001C1.1 21.8001 3.5 22.0001 17 22.0001C32.8 22.0001 34.2 21.7001 34.6 18.5001C34.6 17.9001 34.8 16.9001 34.8 16.2001C35 15.4001 37.6 15.0001 44.3 15.0001H53.6L61 22.5001L68.4 30.0001H74.1C78 30.0001 80.2 29.5001 81.1 28.4001C83.2 25.8001 81 23.5001 75.9 23.2001C71.9 22.9001 70.9 22.3001 63.9 15.0001L56.3 7.00012H45.7C34.6 7.00012 34 6.70012 34 1.90012C34 0.100122 33.1 0.00012207 17.6 0.00012207C3.6 0.00012207 1.1 0.200121 0.6 1.60012ZM27.5 11.0001V14.5001H17.5H7.5L7.2 10.7001L6.9 6.90012L17.2 7.20012L27.5 7.50012V11.0001Z"/>
<path d="M106.5 2.90012C99.5 6.20012 91.9 13.8001 88.8 20.7001C87.1 24.5001 86.6 27.4001 86.6 34.5001C86.6 42.4001 87 44.2001 89.4 49.0001C95.8 61.7001 107.2 69.0001 121 69.0001C134.8 69.0001 146.2 61.7001 152.6 49.0001C155 44.2001 155.4 42.4001 155.4 34.5001C155.4 27.4001 154.9 24.5001 153.2 20.7001C150.1 13.8001 142.5 6.20012 135.5 2.90012C130.4 0.400124 128.3 0.00012207 121 0.00012207C113.7 0.00012207 111.6 0.400124 106.5 2.90012ZM131.7 8.60012C138.5 11.2001 138.1 12.4001 128.2 22.2001L119.3 31.0001H107.2C100.4 31.0001 94.9 30.6001 94.5 30.0001C93.3 28.1001 96.4 20.8001 100.2 16.5001C107.8 7.90012 121 4.60012 131.7 8.60012ZM146.3 22.7001C150.8 32.9001 148.1 45.6001 139.3 54.3001C134.9 58.7001 133.5 58.9001 132.2 55.2001C131.6 53.7001 129.8 48.7001 128.1 44.0001L125 35.5001L133.7 26.8001C138.5 21.9001 142.8 18.0001 143.3 18.0001C143.7 18.0001 145.1 20.1001 146.3 22.7001ZM122.3 48.8001C124.4 54.4001 125.9 59.8001 125.6 60.7001C125.1 62.0001 123.9 62.2001 119.2 61.7001C109.3 60.8001 99.9 54.4001 95.9 45.7001C92.4 37.9001 92.4 37.9001 106.2 38.2001L118.4 38.5001L122.3 48.8001Z"/>
<path d="M161 21.1001C158.4 25.8001 159.6 26.0001 195.7 26.0001C225.7 26.0001 229.1 25.8001 229.7 24.4001C230 23.5001 229.9 22.0001 229.3 21.1001C228.4 19.7001 224.4 19.5001 195.2 19.2001C162.6 19.0001 162.1 19.0001 161 21.1001Z"/>
<path d="M161.1 32.4C160.2 33.5 160.1 34.4 161 36C162 37.8 162.9 38.1 168.3 37.8C174.5 37.5 174.5 37.5 174.5 34.5C174.5 31.5 174.4 31.5 168.4 31.2C164 31 162 31.3 161.1 32.4Z"/>
<path d="M52 42.9001C43.5 44.7001 39.9 49.8001 39.2 61.0001C38.7 69.4001 39.9 73.0001 43 73.0001C45.9 73.0001 47 69.9001 47 61.6001C47 50.3001 47.4 50.0001 64.9 50.0001C76.3 50.0001 79.2 49.7001 80.4 48.4001C82.2 46.6001 82.3 46.1001 81 44.0001C80.3 42.8001 77.5 42.5001 67.8 42.3001C61 42.2001 53.9 42.5001 52 42.9001Z"/>
<path d="M163.5 42.7001C160 43.7001 159.2 46.0001 161.6 48.4001C162.9 49.8001 166.5 50.0001 184.9 50.0001C213.4 50.0001 211 47.7001 211 75.0001V95.5001L199.4 107.1C189.5 117 187.8 119.2 188.3 121.2C189.1 124.4 212.2 147 214.6 147C216.9 147 242 122.1 242 119.9C242 119.1 236.6 113.2 230 106.8L218 95.1001V74.5001C218 51.5001 217.7 50.2001 211.3 45.3001L207.7 42.5001L186.6 42.3001C175 42.2001 164.6 42.4001 163.5 42.7001ZM223.7 111.2C228.3 115.8 232 119.9 232 120.5C232 121.1 228.2 125.4 223.5 130L215 138.5L205.8 129.2L196.5 120L205 111.5C209.6 106.8 213.9 103 214.5 103C215 103 219.2 106.7 223.7 111.2Z"/>
<path d="M4.7 78.7001C4.3 79.0001 4 97.7001 4 120C4 153.2 4.3 161 5.4 161.9C6.3 162.7 18.3 162.9 47.6 162.8L88.5 162.5V120.5V78.5001L46.9 78.2001C24.1 78.1001 5.1 78.3001 4.7 78.7001ZM82.4 86.6001C82.7 87.5001 83 102.9 83 120.9C83 145 82.7 153.9 81.8 154.8C80.9 155.7 71.9 156 47.4 156C29.1 156 13.5 155.7 12.6 155.4C11.2 154.9 11 150.8 11 120.6C11 101.7 11.3 86.0001 11.7 85.7001C12 85.3001 28 85.0001 47.1 85.0001C77.8 85.0001 81.9 85.2001 82.4 86.6001Z"/>
<path d="M17.2 90.2001C16.4 91.0001 16 95.3001 16 103.1C16 112.8 16.3 114.9 17.6 115.4C18.5 115.7 31.9 116 47.5 116C74.6 116 76 115.9 77 114.1C78.3 111.6 78.3 93.4001 77 90.9001C76 89.1001 74.6 89.0001 47.2 89.0001C26.1 89.0001 18.1 89.3001 17.2 90.2001ZM69.8 102.8L70.1 109L46.8 108.8L23.5 108.5L23.2 103.6C22.7 95.5001 21.2 95.9001 46.7 96.2001L69.5 96.5001L69.8 102.8Z"/>
<path d="M16.3 122.6C14.7 126.9 16 127.1 47 127.1C71.7 127.1 76.7 126.8 77.4 125.6C78.1 124.7 77.9 123.6 77.1 122.6C75.9 121.2 72 121 46.3 121C20 121 16.9 121.2 16.3 122.6Z"/>
<path d="M17.2 133.2C15.4 135 15.8 137.8 17.9 139C19.1 139.6 30.3 140 47.4 140C71 140 75.1 139.8 76.4 138.4C78.3 136.5 78.4 134.8 76.8 133.2C75.1 131.5 18.9 131.5 17.2 133.2Z"/>
<path d="M17.2 144.9C16.4 145.3 16 146.8 16.2 148.1L16.5 150.5H33H49.5L49.8 148.1C50 146.8 49.6 145.3 48.8 144.9C47.1 143.8 18.9 143.8 17.2 144.9Z"/>
<path d="M56.2 144.9C55.4 145.3 55 146.8 55.2 148.1C55.5 150.3 56 150.5 60.5 150.5C65.4 150.5 65.5 150.4 65.5 147.5C65.5 144.7 65.2 144.5 61.5 144.2C59.3 144.1 56.9 144.4 56.2 144.9Z"/>
<path d="M94.5 119C93.5 122.1 95.8 124.1 99.8 123.8C103.6 123.5 105.7 121.2 104.7 118.6C104.2 117.5 102.8 117 99.6 117C96 117 95 117.4 94.5 119Z"/>
<path d="M110.2 120.2C110.5 123.3 110.8 123.5 114.7 123.8C118 124 119.1 123.7 119.9 122.1C121.8 118.6 120.3 117 114.8 117H109.9L110.2 120.2Z"/>
<path d="M125.6 118.5C124.5 121.4 126.8 124 130.3 124C134.6 124 136.2 122.8 135.8 119.9C135.5 117.8 134.9 117.5 130.9 117.2C127.3 117 126.1 117.3 125.6 118.5Z"/>
<path d="M141.7 117.7C140.4 118.9 141 122.8 142.6 123.4C147.7 125.4 152.8 122.9 151.5 119C151 117.4 150 117 146.6 117C144.3 117 142 117.3 141.7 117.7Z"/>
<path d="M157.7 117.7C157.3 118 157 119.4 157 120.6C157 123.3 160.4 124.6 164.5 123.6C166.5 123.1 167 122.3 167 120C167 117.1 166.8 117 162.7 117C160.3 117 158 117.3 157.7 117.7Z"/>
<path d="M172.3 118.6C170.9 122.3 175.2 124.9 180.7 123.5C182.6 123.1 183.1 122.4 182.8 120.2C182.5 117.7 182.1 117.5 177.7 117.2C174 117 172.8 117.3 172.3 118.6Z"/>
<path d="M211.6 153.5C209.7 158.5 211.9 163.5 215.7 162.8C217.1 162.5 217.5 161.5 217.5 157.5C217.5 152.8 217.3 152.5 214.9 152.2C213.2 152 212 152.5 211.6 153.5Z"/>
<path d="M39.6 169.6C38.5 172.6 39 184.7 40.4 188.1C42.1 192.2 45.5 195.5 49.3 196.9C50.9 197.5 58.4 198 66 198C79 198 80 197.9 81 195.9C83.3 191.7 81 191 66 191C53.6 191 52 190.8 49.6 188.9C47.2 187 47 186.2 47 179.7C47 169.7 46.4 168 43 168C41.4 168 40 168.7 39.6 169.6Z"/>
<path d="M211.4 170.5C211.1 171.9 211.1 174.2 211.4 175.6C211.9 177.6 212.6 178.1 214.8 177.8C217.3 177.5 217.5 177.1 217.8 172.7C218.1 168.1 218.1 168 215.1 168C212.7 168 211.9 168.5 211.4 170.5Z"/>
<path d="M112 172.6C105.6 174.3 97.7 179.4 93.7 184.4C88.5 191 86.7 196.7 86.6 206C86.5 213.7 86.8 215.2 89.8 221.2C93.5 228.7 99.7 234.8 106.9 238.2C113.5 241.2 128.5 241.2 135.1 238.2C142.3 234.8 148.5 228.7 152.2 221.2C155.2 215.2 155.5 213.7 155.4 206C155.3 196.8 153.5 191.1 148.5 184.5C144.7 179.6 136.3 174.3 129.5 172.5C122.3 170.7 119.2 170.7 112 172.6ZM130.4 180.1C136.4 181.8 145.4 191.2 147.4 198C149.4 204.6 149.4 207.3 147.5 213.7C142.3 231.3 122.6 239.1 106.9 229.7C93.2 221.5 89.1 202.9 98.3 190.8C107 179.6 116.9 176.2 130.4 180.1Z"/>
<path d="M212.2 184.2C210.8 185.6 210.6 190.8 211.9 192.8C212.3 193.6 213.8 194 215.1 193.8C217.3 193.5 217.5 193 217.5 188.5C217.5 184.3 217.2 183.5 215.5 183.2C214.4 183.1 212.9 183.5 212.2 184.2Z"/>
<path d="M160.6 200.6C160.3 201.4 160.5 203 161 204.1C162 205.9 163.3 206 181.5 206C199.7 206 201 205.9 202 204.1C202.5 203 202.7 201.4 202.4 200.6C201.9 199.2 199 199 181.5 199C164 199 161.1 199.2 160.6 200.6Z"/>
<path d="M211.6 200.5C209.6 205.8 212.4 210.9 216.5 209.4C217.7 208.9 218 207.7 217.8 204.1C217.5 200 217.2 199.5 214.9 199.2C213.2 199 212 199.5 211.6 200.5Z"/>
<path d="M16.7 203.7C15.4 204.9 16 208.8 17.6 209.4C18.5 209.7 32.6 210 49 210C75.3 210 79.1 209.8 80.5 208.4C81.4 207.5 81.9 206.1 81.6 205.3C81.3 204.5 81 203.6 81 203.4C81 202.7 17.4 203 16.7 203.7Z"/>
<path d="M162.8 210.6C160.9 211.2 159.8 213.4 160.6 215.4C161.2 216.9 164.1 218 168 218C169.8 218 172.7 220.1 178 225.5L185.4 232.9L195.9 233.2L206.5 233.5L207.6 237L208.8 240.5L224.1 240.8C242.5 241.1 242 241.4 242 229.4C242 217.9 242.2 218 225 218C209.9 218 208 218.3 208 221C208 225.6 207.2 226 197.6 226H188.5L181.5 218.5C174.9 211.4 174.2 211 169.5 210.6C166.8 210.3 163.8 210.4 162.8 210.6ZM234.5 229.5V233.5L224.8 233.8C215.7 234.1 215.1 233.9 214.5 232C214.1 230.8 214.1 228.7 214.4 227.4C215 225 215.2 224.9 224.8 225.2L234.5 225.5V229.5Z"/>
<path d="M60 215.5C59.4 216.3 59 217.7 59.2 218.7C59.5 220.3 60.8 220.5 69.4 220.8C81.1 221.1 84.4 219.6 80.4 215.6C78.3 213.4 61.8 213.3 60 215.5Z"/>
</svg>
