<svg width="492" height="500" viewBox="0 0 492 500" fill="#15C196" xmlns="http://www.w3.org/2000/svg">
<path d="M196 0.421177C177.7 3.12118 163 10.6212 151.2 23.3212C133 42.7212 126.8 68.7212 134.3 94.4212C137.8 106.621 143 115.021 153.4 125.321C167.4 139.221 181.3 145.521 200.5 146.521C234.8 148.421 264.7 127.321 275.2 93.8212C277.1 87.4212 277.5 84.3212 277.4 72.8212C277.3 61.0212 277 58.3212 274.7 51.3212C270.9 39.9212 265.7 31.5212 256.5 22.2212C244.3 9.92118 231.3 3.12118 215.3 0.821177C208.6 -0.078823 201 -0.278823 196 0.421177ZM224.4 19.1212C237.9 24.1212 250.3 35.3212 256.5 48.2212C260.7 56.9212 262 63.2212 262 74.2212C262 90.2212 256.9 102.121 245.1 113.921C233.1 126.021 221.6 130.821 205 130.821C187.5 130.821 176 126.121 164 113.921C152 101.821 147 90.0212 147 73.3212C147 53.9212 156.6 35.9212 172.6 25.3212C183.6 18.0212 192.1 15.7212 207 16.2212C215.1 16.5212 219.1 17.2212 224.4 19.1212Z" />
<path d="M184.8 42.0208C180.4 43.6208 179.8 47.5208 180.2 75.6208L180.5 101.021L183.3 103.421C184.8 104.721 187 105.821 188.1 105.821C190.7 105.821 242.1 80.0208 243.7 77.9208C245.5 75.5208 245.3 70.4208 243.3 68.6208C241.3 66.9208 189.5 40.8208 188.3 40.9208C187.8 40.9208 186.3 41.4208 184.8 42.0208ZM208 67.3208C214.1 70.3208 219 73.0208 219 73.3208C219 73.8208 197.5 84.8208 196.5 84.8208C196.2 84.8208 196 79.6208 196 73.3208C196 67.0208 196.2 61.8208 196.5 61.8208C196.8 61.8208 202 64.3208 208 67.3208Z"/>
<path d="M364.3 8.82093C356.2 10.5209 349.5 15.8209 346.4 23.3209C344.3 28.4209 343.4 44.9209 344.9 50.4209C346.2 55.1209 349.8 57.4209 354.4 56.2209C359.1 55.1209 360 52.5209 360 40.0209C360 29.3209 360.1 28.6209 362.5 26.3209L364.9 23.8209H417.5C449.9 23.8209 470.8 24.2209 472 24.8209C473 25.3209 474.3 27.2209 474.9 28.9209C476.4 33.3209 476.4 130.321 474.9 134.621C474.2 136.621 472.8 138.021 470.8 138.721C466.5 140.221 369.5 140.221 365.1 138.721C363.4 138.121 361.5 136.821 361 135.821C360.4 134.721 360 122.421 360 106.321V78.7209L357.5 76.3209C353.1 71.8209 346.7 73.4209 345 79.6209C343.7 84.4209 343.7 127.821 345 134.921C346.2 141.521 350.1 147.321 356 151.321L360.5 154.321L416 154.621C477.9 154.921 476.3 155.121 483.5 148.121C491.2 140.621 491 143.021 491 81.8209V27.3209L488.6 22.3209C487.3 19.5209 484.8 15.9209 482.9 14.4209C475.5 8.12093 477.4 8.32093 420.5 8.12093C391.9 8.02093 366.6 8.42093 364.3 8.82093Z"/>
<path d="M418.2 42.7208C407.9 46.3208 402 55.1208 402 67.0208V73.8208H396C388.6 73.8208 386 75.8208 386 81.5208C386 83.6208 386.4 85.8208 386.8 86.5208C388 88.3208 392.7 89.8208 397.6 89.8208H402V103.821C402 116.521 402.2 118.021 404 119.821C406.6 122.421 413 122.521 415.3 120.021C416.7 118.521 417 115.821 417 104.021V89.8208H421.5C431 89.8208 435.7 85.3208 433.1 78.5208C431.7 75.0208 429.1 73.8208 422.6 73.8208H417V70.0208C417 64.5208 418.8 59.0208 421 57.8208C422 57.3208 427.8 56.8208 433.8 56.8208C443.3 56.8208 445.1 56.5208 447.4 54.7208C450.8 52.0208 451.1 46.1208 447.9 43.2208C444.8 40.4208 425.7 40.0208 418.2 42.7208Z"/>
<path d="M4.3 82.8208C3.1 83.3208 1.7 84.6208 1.1 85.7208C0.3 87.0208 0 109.621 0 156.221C0 223.521 0 224.821 2 226.821C3.9 228.721 5.3 228.821 56.9 228.821H109.9L111.9 226.221C114 223.621 114 222.821 114 155.321C114 89.6208 113.9 86.9208 112.1 84.7208L110.2 82.3208L58.3 82.1208C29.6 82.0208 5.5 82.3208 4.3 82.8208ZM98 155.321V212.821H57H16V155.321V97.8208H57H98V155.321Z"/>
<path d="M51.5 117.321C48.8 119.921 48.4 122.221 49.9 126.121C51.3 129.821 56.5 131.121 67.7 130.621C76.2 130.221 77.5 129.921 79.1 127.921C81.9 124.421 81.6 119.421 78.4 116.921C76.1 115.121 74.3 114.821 64.8 114.821C54.6 114.821 53.8 114.921 51.5 117.321Z"/>
<path d="M35 149.821C32.4 152.421 32.4 157.821 34.9 160.921C36.7 163.221 37.4 163.321 52.4 163.721C70.5 164.121 76.4 163.421 79.1 160.721C81.8 158.021 81.6 152.721 78.7 150.021C76.5 147.921 75.5 147.821 56.7 147.821C38.3 147.821 36.9 147.921 35 149.821Z"/>
<path d="M35 182.821C33.8 184.021 33 186.121 33 188.321C33 190.521 33.8 192.621 35 193.821C36.9 195.721 38.3 195.821 57 195.821C75.7 195.821 77.1 195.721 79 193.821C81.7 191.121 81.7 185.521 79 182.821C77.1 180.921 75.7 180.821 57 180.821C38.3 180.821 36.9 180.921 35 182.821Z"/>
<path d="M306.8 133.021C303.5 135.721 279 169.621 279 171.621C279 172.721 279.3 174.421 279.6 175.321C280.5 177.621 285.8 180.121 288.5 179.421C291.7 178.621 319 142.021 319 138.521C319 133.121 311.2 129.621 306.8 133.021Z"/>
<path d="M322.8 186.721C312.6 194.421 304.1 201.521 303.8 202.621C303 205.621 305.6 210.721 308.6 211.821C310.5 212.621 311.9 212.521 313.9 211.521C318.6 209.121 348.9 185.921 350.6 183.321C353.7 178.621 350.3 172.821 344.6 172.821C341.9 172.821 337.8 175.421 322.8 186.721Z"/>
<path d="M216.8 204.021C201.2 216.821 174.9 238.321 158.4 251.921C131.6 273.921 126.3 277.821 110.9 286.921C88.3 300.121 84.2 303.221 80.5 309.921C77.8 314.821 77.5 316.121 77.5 324.921V334.521L70.8 338.821C60.2 345.621 55.9 354.021 58.1 363.721C59.3 369.221 60.3 371.021 64.8 376.021C72.8 384.921 82.4 386.121 95.1 379.821L101.7 376.521L106 379.721C116.1 387.021 128.6 387.621 141.6 381.421C145.8 379.421 149.3 377.821 149.5 377.821C149.7 377.821 153.5 384.421 158.1 392.621C170 413.521 173.2 416.721 184.3 418.321C188.2 418.921 189.9 418.621 194.3 416.521C200.6 413.421 205.4 408.821 208.2 403.421C209.8 400.321 210.1 398.121 209.8 392.921C209.4 386.921 208.7 385.021 201.1 371.021C196.5 362.621 193 355.521 193.2 355.221C193.5 355.021 221.3 344.521 255 331.821C288.8 319.121 317.1 308.121 318.1 307.221C320.8 304.821 321.2 301.221 319.4 297.521C315.8 290.521 280.6 230.121 278.3 227.021C276.4 224.521 275.2 223.821 272.6 223.821C270.7 223.821 268.2 224.621 267.1 225.621C262.5 229.221 263.5 231.821 282.6 264.921C292.4 282.121 300.6 296.621 300.8 297.321C301 298.121 276.6 307.721 234 323.721L166.8 348.921L149.2 359.121C131.7 369.221 131.4 369.321 125 369.321C120.4 369.321 117.7 368.721 115.8 367.421C112.9 365.521 95.7 336.621 93.4 329.821C91.7 325.021 93.2 318.221 96.8 314.521C100.1 311.121 127.7 294.521 128.9 295.221C129.4 295.521 134.4 303.921 140 313.821C150.8 332.921 153.2 335.521 158.5 334.221C161.6 333.421 164 330.221 164 326.921C164 325.621 159.3 316.021 153.5 305.621C147.7 295.221 143 286.421 143 285.921C143 285.321 211.8 227.621 240.7 204.121L245.9 199.821L248.2 204.021C251.1 209.421 254.6 211.221 258.8 209.721C260.9 209.021 262.2 207.621 263 205.521C264 202.621 263.7 201.521 260.3 195.021C258.3 191.021 255.3 186.221 253.7 184.321C248.6 178.021 248.3 178.221 216.8 204.021ZM89 354.721C91.2 358.521 93 362.021 93 362.521C93 364.021 84.2 367.821 80.9 367.821C74.1 367.821 70.3 358.421 75.3 353.821C77 352.121 83.4 348.121 84.7 347.821C84.8 347.821 86.7 350.921 89 354.721ZM186.5 377.421C195.6 393.421 196.1 395.321 192.5 399.621C189.5 403.221 185 403.921 181.3 401.321C178.7 399.521 161.4 369.521 162.6 369.121C163.1 368.921 166.4 367.021 170 364.921C175.7 361.521 176.7 361.221 177.7 362.621C178.4 363.421 182.3 370.121 186.5 377.421Z"/>
<path d="M351.1 226.221C334 229.821 330.4 230.821 328.9 232.721C325.2 237.321 327 243.121 332.6 244.721C335.5 245.521 340.2 244.921 358.3 241.221C373.5 238.221 381 236.221 382.2 235.021C385.1 232.121 385.5 227.721 383 224.521C380.1 220.821 376.3 221.021 351.1 226.221Z"/>
<path d="M26.4 256.921C24.6 258.921 24.5 262.121 24.2 346.921L23.9 434.821H14.1C5.2 434.821 4.2 435.021 2.2 437.121C0.2 439.221 0 440.521 0 451.921C0 470.421 2.8 478.521 12.2 487.921C18.2 493.921 25.4 497.521 34.2 498.921C38.1 499.521 83.1 499.821 151.5 499.621L262.5 499.321L268.3 497.021C279.6 492.421 289.1 482.321 292.5 471.321C293.5 467.921 294 461.921 294 452.521C294 434.721 294.1 434.821 280 434.821H270.1L269.8 392.921C269.5 353.321 269.4 350.921 267.6 348.921C264.9 345.921 259.6 346.121 256.5 349.321L254 351.721V393.321V434.821H147H40V352.321V269.821H76.3H112.7L114.8 267.521C117.6 264.521 117.7 259.521 115 256.821C113.1 254.921 111.7 254.821 70.7 254.821C28.9 254.821 28.3 254.821 26.4 256.921ZM279 456.121C279 468.121 273.8 477.121 264.5 481.421C260.2 483.521 257.9 483.821 248.3 483.821H237V478.121C237 471.221 234.5 467.821 229.4 467.821C224.1 467.821 221.9 470.421 221.3 477.621L220.7 483.821H146.9H73V478.421C73 471.521 70.4 467.821 65.5 467.821C60.1 467.821 57.9 470.421 57.3 477.621L56.7 483.821H45.8C38.6 483.821 33.8 483.321 31.5 482.421C21.2 478.121 16 469.921 16 458.121V450.821H147.5H279V456.121Z"/>
<path d="M358.5 265.221C353.1 267.721 348.7 272.221 346.1 277.821C344.7 280.921 344.5 287.921 344.5 335.321C344.5 378.521 344.8 390.121 345.9 393.221C347.7 398.521 353.6 404.721 359 407.221C363.3 409.221 365.2 409.321 414.2 409.621C446.8 409.821 467.1 409.521 470.7 408.821C477.7 407.621 483.4 403.821 487.5 397.821C490.4 393.421 490.5 393.021 490.8 379.221L491.2 365.121L488.5 362.921C485 360.221 482 360.221 478.6 362.921C476.1 364.921 476 365.321 476 375.221C476 386.321 474.9 391.321 472 392.821C470.8 393.421 449.9 393.821 417.5 393.821H364.9L362.5 391.321L360 388.921V336.321C360 303.921 360.4 283.021 361 281.821C361.5 280.821 363.4 279.521 365.1 278.921C369.3 277.421 464.9 277.421 470.2 278.821C472.9 279.621 474.1 280.621 474.9 283.021C475.6 284.921 476 296.121 476 312.921C476 339.221 476 339.821 478.2 341.821C481.4 344.821 487.8 344.021 490.2 340.421C490.6 339.821 491 326.221 491 310.321C491 278.021 490.7 276.721 483.9 269.921C476.7 262.621 478.8 262.821 418 262.821H363.5L358.5 265.221Z"/>
<path d="M407.7 305.321C405.6 306.121 401.7 308.421 399 310.321C386.4 319.621 382.2 335.721 389 349.421C399.2 370.221 424.8 374.421 440.9 357.921C453.3 345.121 453.1 326.221 440.3 313.521C433.9 307.121 428.1 304.521 419 304.121C414.1 303.921 410.2 304.321 407.7 305.321ZM426 320.821C432.1 324.121 435.7 332.621 434.1 339.821C432.8 345.721 430.4 348.721 425.3 351.021C414.3 355.921 402.9 350.021 401.4 338.621C400.2 329.621 405.1 321.721 413.4 319.721C416.7 318.921 423.5 319.521 426 320.821Z"/>
</svg>
