<svg width="491" height="492" viewBox="0 0 491 492" fill="#15C196" xmlns="http://www.w3.org/2000/svg">
<path d="M54.4 1.10107C50.2 2.30107 49 5.50107 49 16.0011V25.0011H27.1C6.5 25.0011 5.1 25.1011 2.6 27.1011L0 29.1011V209.101C0 387.701 0 389.001 2 391.001C4 393.001 5.3 393.001 133 393.001H262V401.201C262.1 420.601 264.8 434.701 270.9 447.501C280.8 468.201 300.7 485.201 321 490.101C329.1 492.101 425.1 492.101 433 490.101C455.6 484.401 475.8 465.701 485.4 441.601C490.5 428.901 491.2 421.901 490.7 388.601C490.4 365.101 489.9 356.901 488.6 351.001C483.5 328.501 470.7 299.301 457.2 279.001C450.8 269.401 447.7 265.401 436.6 252.501L432.8 248.001L436 244.301C441.9 237.601 443.4 230.401 440.8 221.701C439.6 217.701 434.3 211.301 430.6 209.301C428.7 208.201 429.1 206.701 439.3 175.201C445.2 157.001 450 141.001 450 139.501C450 135.901 445.9 132.001 442.1 132.001C440.4 132.001 432.4 134.501 424.4 137.501C416.3 140.501 409.6 143.001 409.4 143.001C409.2 143.001 409 117.401 409 86.1011V29.1011L406.4 27.1011C403.9 25.1011 402.5 25.0011 381.9 25.0011H360V15.4011C360 4.60107 359.3 2.70107 354.9 1.10107C350.8 -0.298933 305.9 -0.398933 300.9 1.00107C296.1 2.30107 295 5.10107 295 16.0011V25.0011H204.5H114V15.4011C114 10.2011 113.5 5.00107 113 4.00107C112.4 2.90107 110.3 1.60107 108.2 1.00107C103.7 -0.198933 58.8 -0.198933 54.4 1.10107ZM98 35.1011C98 52.9011 97.8 54.5011 95.8 58.1011C90 68.4011 73 68.4011 67.2 58.1011C65.2 54.5011 65 52.9011 65 35.1011V16.0011H81.5H98V35.1011ZM344 35.3011C344 57.6011 343.4 59.8011 335.9 63.8011C328 68.0011 319.1 66.0011 313.6 58.6011C311.7 56.1011 311.5 54.2011 311.2 35.9011L310.9 16.0011H327.4H344V35.3011ZM49.3 48.9011C49.9 58.7011 52.9 65.8011 59 71.8011C64.4 77.1011 68.9 79.5011 76 80.8011C95.4 84.4011 112.6 69.8011 113.8 48.8011L114.3 41.0011H204.5H294.7L295.3 49.0011C296.1 58.8011 298.6 65.0011 304.3 70.8011C309.9 76.6011 315.3 79.6011 322 80.8011C334.9 83.1011 347 77.8011 354.4 66.5011C358.5 60.2011 360 55.0011 360 47.1011V41.0011H377H394V70.0011V99.0011H205H16V70.0011V41.0011H32.4H48.7L49.3 48.9011ZM393.8 132.101L393.5 149.201L384.6 152.801L375.8 156.301L347.6 152.101C332.2 149.801 318.9 148.001 318.2 148.001C315.7 148.001 312 152.801 312 156.101C312 157.901 315 170.401 318.6 183.901C323.1 200.801 324.8 208.601 324 208.801C323.3 209.101 321.2 210.601 319.2 212.401C309.7 220.701 309.4 237.501 318.7 245.801L321.2 248.101L314.8 255.301C295.8 276.601 280 303.801 270.9 331.101C266.6 344.101 263 360.401 263 367.401C263 369.801 262.7 373.201 262.4 374.901L261.8 378.001H138.9H16V246.501V115.001H205H394L393.8 132.101ZM428.5 155.701C428.2 157.301 424.7 168.801 420.7 181.501L413.4 204.501L376.9 204.801L340.4 205.001L335.3 185.801C332.6 175.201 330.4 166.301 330.6 166.101C330.7 166.001 341.8 167.201 355.2 169.001L379.5 172.201L403 162.701C415.9 157.401 427.1 153.101 427.8 153.101C428.8 153.001 429 153.801 428.5 155.701ZM422.3 222.101C425.4 223.801 426 224.901 426 229.701C426 232.701 425.4 234.601 424 236.001C422.1 237.901 420.7 238.001 376.7 238.001C327 238.001 329.4 238.301 327.5 232.201C326.6 229.001 328.8 223.001 331.4 222.001C334.8 220.601 419.7 220.801 422.3 222.101ZM425.3 263.301C443.4 281.601 459.4 308.701 468.5 336.501C473.9 353.001 475.1 361.201 475.7 386.001C476.5 420.501 474.3 433.201 465 447.401C456.8 459.901 446.8 468.501 435.1 473.201C429.6 475.501 428.8 475.501 380.5 475.801C346.4 476.001 329.7 475.801 325.5 475.001C304.1 470.901 284 448.701 279.4 423.901C277.2 412.601 277.9 364.201 280.4 353.501C285.5 331.001 298.6 301.601 311.8 283.001C315.5 277.801 322.8 269.101 328.1 263.701L337.8 254.001H377H416.1L425.3 263.301Z"/>
<path d="M52.4 132.801C49.4 134.801 49 138.301 49 163.901C49 181.501 49.4 190.701 50.2 192.401C51.9 196.401 56.3 197.001 81.5 197.001C105.4 197.001 111.3 196.201 113 193.001C113.6 191.901 114 180.501 114 164.501C114 138.301 113.6 134.801 110.6 132.801C110 132.401 96.9 132.001 81.5 132.001C66.1 132.001 53 132.401 52.4 132.801ZM98 164.001V181.001H81.5H65V164.001V147.001H81.5H98V164.001Z"/>
<path d="M153.9 133.301C135.1 140.301 126.6 159.401 134.1 177.101C136.5 182.601 143.8 189.901 150 193.201C156 196.301 166.9 196.901 174 194.501C180.9 192.201 190 183.801 193.1 176.801C196.3 169.501 196.4 158.501 193.2 151.501C190.3 145.201 183.9 138.601 177.5 135.301C171.4 132.101 159.7 131.201 153.9 133.301ZM173.8 150.601C178.2 154.001 180 157.901 180 164.301C180 168.301 179.4 170.601 177.8 173.001C173.8 178.801 170.6 180.501 163.5 180.501C156.7 180.501 153.6 179.001 149.7 173.801C147.3 170.501 146.4 162.401 147.9 157.801C151.1 148.001 165.2 144.101 173.8 150.601Z"/>
<path d="M237 132.901C212.7 140.801 205.6 169.901 223.7 187.201C230.5 193.701 235.3 195.501 245.5 195.501C256.1 195.501 260.9 193.601 267.9 186.801C274.5 180.301 277.5 173.201 277.5 164.001C277.5 154.901 274.9 148.601 268.7 142.201C262.3 135.601 256 132.701 247 132.401C242.9 132.201 238.4 132.401 237 132.901ZM250.5 148.101C258.5 150.301 262.4 156.301 261.8 165.101C261.3 172.701 257.4 177.801 250.8 179.901C244.8 181.701 239.9 180.701 235.3 176.701C224.7 167.401 228.1 151.101 241.4 148.001C245.8 146.901 246.1 146.901 250.5 148.101Z"/>
<path d="M51.1 216.601C49.1 219.101 49 220.501 49 245.601C49 263.401 49.4 272.701 50.2 274.401C51.9 278.401 56.3 279.001 81.5 279.001C105.4 279.001 111.3 278.201 113 275.001C113.6 273.901 114 262.501 114 246.501C114 220.301 113.6 216.801 110.6 214.801C110 214.401 96.8 214.001 81.3 214.001H53.1L51.1 216.601ZM98 246.001V263.001H81.5H65V246.001V229.001H81.5H98V246.001Z"/>
<path d="M152.3 216.001C145.2 218.801 137.7 225.801 134.3 232.801C130.6 240.301 130.5 250.901 133.9 258.601C136.4 264.501 143.6 271.901 149.7 275.001C165.2 283.001 185 275.601 192.9 259.001C196.3 251.701 196.5 240.801 193.3 233.801C190.4 227.501 183.6 220.401 177.5 217.201C170.5 213.701 159.6 213.101 152.3 216.001ZM172.5 231.901C177.5 234.801 180 239.501 180 246.001C180 250.301 179.4 252.501 177.8 255.001C173.8 260.801 170.6 262.501 163.5 262.501C156.7 262.501 153.6 261.001 149.7 255.801C147.3 252.501 146.4 244.401 147.9 239.801C151 230.501 163.4 226.501 172.5 231.901Z"/>
<path d="M234.3 216.001C227.2 218.801 219.7 225.801 216.3 232.801C214 237.601 213.5 239.701 213.6 246.001C213.7 254.901 215.9 260.601 221.6 267.001C228.9 275.001 236.1 278.201 246.7 278.101C258.4 278.001 269.5 270.501 274.9 259.001C278.3 251.701 278.5 240.801 275.3 233.801C272.4 227.501 265.6 220.401 259.5 217.201C252.5 213.701 241.6 213.101 234.3 216.001ZM250.5 230.101C257.8 232.101 262 237.801 262 245.501C262 260.601 246.3 268.301 235.3 258.701C223.3 248.101 229.3 230.701 245.5 229.101C246.1 229.101 248.3 229.501 250.5 230.101Z"/>
<path d="M51.1 298.601C49.1 301.101 49 302.501 49 327.601C49 345.401 49.4 354.701 50.2 356.401C51.9 360.401 56.3 361.001 81.5 361.001C105.4 361.001 111.3 360.201 113 357.001C113.6 355.901 114 344.501 114 328.201C114 302.501 113.9 301.201 111.9 298.601L109.9 296.001H81.5H53.1L51.1 298.601ZM98 328.001V345.001H81.5H65V328.001V311.001H81.5H98V328.001Z"/>
<path d="M152.4 298.101C134.5 305.001 126.3 326.001 134.9 342.901C137.8 348.501 147.1 356.501 153 358.501C168.9 363.801 185.4 356.501 192.9 341.001C196.7 333.101 196.6 322.801 192.7 314.901C185.2 299.601 167.5 292.201 152.4 298.101ZM172.5 313.901C177.4 316.701 180 321.501 180 327.801C180 338.701 172.5 345.801 161.9 344.801C150 343.601 143.2 330.901 148.8 320.101C152.9 311.901 163.8 309.001 172.5 313.901Z"/>
<path d="M369 279.401V287.701L362.9 288.301C350.8 289.401 338.1 298.501 332.3 310.101C324.8 325.301 327.9 344.801 339.8 356.601C349.3 366.001 358.8 369.001 379 369.001C392 369.001 395.5 370.001 401.2 375.001C416.5 388.501 410.5 413.701 390.9 417.901C388.1 418.501 374.9 419.001 361 419.001H336V426.501V434.001H352.5H369V442.501V451.001H377H385V442.501V434.001H388.8C401.3 434.001 416.4 423.301 422 410.701C424.6 404.801 425.9 394.801 425 387.801C422.9 372.701 411.5 359.501 396.5 354.801C394.9 354.301 386.1 353.501 377 353.101C359 352.301 356.9 351.701 351 345.801C346.2 341.101 344 335.601 344 328.201C344 318.001 348.5 310.601 357.5 305.701C361.3 303.601 363 303.501 389.3 303.201L417 302.901V295.401V288.001H401H385V279.501V271.001H377H369V279.401Z"/>
</svg>
