<svg width="60" height="60" viewBox="0 0 246 246" fill="#fff" xmlns="http://www.w3.org/2000/svg">
<path d="M57.5001 14.4001C55.8001 15.1001 53.0001 17.4001 51.2001 19.4001C48.3001 22.7001 48.0001 23.7001 48.0001 29.5001V36.0001H36.3001C22.4001 36.0001 17.5001 37.7001 13.2001 44.3001L10.5001 48.4001L10.2001 127.9C9.90009 216.4 9.70009 212.9 16.5001 218.9C18.4001 220.5 21.6001 222.4 23.7001 222.9C28.3001 224.2 133.8 224.4 135.8 223.1C136.6 222.6 137 221 136.8 219.4L136.5 216.5L80.5001 216C34.8001 215.6 24.1001 215.2 22.4001 214.1C17.4001 210.8 17.5001 212.5 17.2001 148.7L16.9001 89.0001H122.5H228L228.2 122.2C228.5 155.1 228.5 155.5 230.6 155.8C235.1 156.4 235.1 156.1 234.8 100.8L234.5 48.4001L231.8 44.3001C227.5 37.7001 222.6 36.0001 208.7 36.0001H197V29.5001C197 23.4001 196.8 22.7001 193.4 19.0001C186.5 11.4001 178.4 11.5001 171.6 19.1001C168.2 22.7001 168 23.5001 168 29.5001V36.0001H152.5H137V29.5001C137 23.5001 136.8 22.7001 133.4 19.1001C126.6 11.5001 118.5 11.4001 111.6 19.0001C108.2 22.7001 108 23.4001 108 29.5001V36.0001H92.5001H77.0001V29.5001C77.0001 23.7001 76.7001 22.7001 73.8001 19.4001C70.5001 15.7001 65.6001 13.0001 62.3001 13.0001C61.3001 13.1001 59.1001 13.7001 57.5001 14.4001ZM67.4001 23.1001C70.0001 25.1001 70.0001 25.2001 70.0001 39.6001C70.0001 52.7001 69.8001 54.2001 68.0001 56.0001C66.8001 57.2001 64.7001 58.0001 62.5001 58.0001C60.3001 58.0001 58.2001 57.2001 57.0001 56.0001C55.2001 54.2001 55.0001 52.7001 55.0001 39.6001C55.0001 25.2001 55.0001 25.1001 57.6001 23.1001C59.1001 21.9001 61.3001 21.0001 62.5001 21.0001C63.7001 21.0001 65.9001 21.9001 67.4001 23.1001ZM127.4 23.1001C130 25.1001 130 25.2001 130 39.6001C130 52.7001 129.8 54.2001 128 56.0001C126.8 57.2001 124.7 58.0001 122.5 58.0001C120.3 58.0001 118.2 57.2001 117 56.0001C115.2 54.2001 115 52.7001 115 39.6001C115 25.2001 115 25.1001 117.6 23.1001C119.1 21.9001 121.3 21.0001 122.5 21.0001C123.7 21.0001 125.9 21.9001 127.4 23.1001ZM187.4 23.1001C190 25.1001 190 25.2001 190 39.6001C190 52.7001 189.8 54.2001 188 56.0001C186.8 57.2001 184.7 58.0001 182.5 58.0001C180.3 58.0001 178.2 57.2001 177 56.0001C175.2 54.2001 175 52.7001 175 39.6001C175 25.2001 175 25.1001 177.6 23.1001C179.1 21.9001 181.3 21.0001 182.5 21.0001C183.7 21.0001 185.9 21.9001 187.4 23.1001ZM48.0001 49.7001C48.0001 59.3001 53.9001 66.0001 62.5001 66.0001C71.1001 66.0001 77.0001 59.3001 77.0001 49.7001V44.0001H92.5001H108V49.7001C108 59.3001 113.9 66.0001 122.5 66.0001C131.1 66.0001 137 59.3001 137 49.7001V44.0001H152.5H168V49.7001C168 59.3001 173.9 66.0001 182.5 66.0001C191.1 66.0001 197 59.3001 197 49.7001V44.0001H208.8C226.6 44.0001 228 45.7001 228 67.5001V81.0001H122.5H17.0001V67.5001C17.0001 45.7001 18.4001 44.0001 36.2001 44.0001H48.0001V49.7001Z"/>
<path d="M42.5 109.5C40.3 111.6 40 112.8 40 119.9C40 129.4 40.4 130.6 44.1 132.5C47.9 134.5 62.1 134.5 65.9 132.5C69.6 130.6 70 129.4 70 119.9C70 112.8 69.7 111.6 67.5 109.5C65.3 107.2 64.4 107 55 107C45.6 107 44.7 107.2 42.5 109.5ZM63 120.5V126H55H47V120.5V115H55H63V120.5Z"/>
<path d="M87.5 109.5C85.3 111.6 85 112.8 85 119.9C85 129.4 85.4 130.6 89.1 132.5C92.9 134.5 107.1 134.5 110.9 132.5C114.6 130.6 115 129.4 115 119.9C115 112.8 114.7 111.6 112.5 109.5C110.3 107.2 109.4 107 100 107C90.6 107 89.7 107.2 87.5 109.5ZM108 120.5V126H100H92V120.5V115H100H108V120.5Z"/>
<path d="M132.5 109.5C130.3 111.6 130 112.8 130 119.9C130 129.4 130.4 130.6 134.1 132.5C137.9 134.5 152.1 134.5 155.9 132.5C159.6 130.6 160 129.4 160 119.9C160 112.8 159.7 111.6 157.5 109.5C155.3 107.2 154.4 107 145 107C135.6 107 134.7 107.2 132.5 109.5ZM153 120.5V126H145H137V120.5V115H145H153V120.5Z"/>
<path d="M177.5 109.5C175.3 111.6 175 112.8 175 119.9C175 129.4 175.4 130.6 179.1 132.5C182.9 134.5 197.1 134.5 200.9 132.5C204.6 130.6 205 129.4 205 119.9C205 112.8 204.7 111.6 202.5 109.5C200.3 107.2 199.4 107 190 107C180.6 107 179.7 107.2 177.5 109.5ZM198 120.5V126H190H182V120.5V115H190H198V120.5Z"/>
<path d="M42.5 143.5C40.3 145.6 40 146.8 40 153.8C40 160.3 40.4 162.2 42.1 164.4C44.1 166.9 44.5 167 55 167C65.5 167 65.9 166.9 67.9 164.4C69.6 162.2 70 160.3 70 153.8C70 146.8 69.7 145.6 67.5 143.5C65.3 141.2 64.4 141 55 141C45.6 141 44.7 141.2 42.5 143.5ZM63 154.5V160H55H47V154.5V149H55H63V154.5Z"/>
<path d="M87.5 143.5C85.3 145.6 85 146.8 85 153.8C85 160.3 85.4 162.2 87.1 164.4C89.1 166.9 89.5 167 100 167C110.5 167 110.9 166.9 112.9 164.4C114.6 162.2 115 160.3 115 153.8C115 146.8 114.7 145.6 112.5 143.5C110.3 141.2 109.4 141 100 141C90.6 141 89.7 141.2 87.5 143.5ZM108 154.5V160H100H92V154.5V149H100H108V154.5Z"/>
<path d="M132.5 143.4C130.3 145.7 130 146.7 130 153.8C130 160.4 130.4 162.2 132.1 164.4C133.7 166.5 134.9 167 137.4 166.8C140 166.6 140.6 166 140.8 163.7C141.1 161.5 140.7 160.7 139.1 160.3C137.3 159.8 137 159 137 154.4V149H145.4C154.5 149 156.4 148 155.8 143.8C155.5 141.6 155.1 141.5 145.2 141.2C135.5 140.9 134.9 141 132.5 143.4Z"/>
<path d="M174.7 142.1C159.2 145.8 143.7 160.8 139.5 176.4C138.2 181.1 137.9 185.4 138.2 192.6C138.5 201.2 139 203.4 141.8 209.4C151.8 230.8 173.8 242.3 195.8 237.6C205.6 235.6 213.7 231 221 223.4C239.7 204 239.5 174.4 220.6 155.6C213.6 148.7 207 144.8 198.5 142.5C192.1 140.9 180.8 140.7 174.7 142.1ZM204.1 152.8C229.6 165.3 235.3 198.7 215.5 218.5C188.6 245.5 142.7 224.8 145.3 186.9C146.4 170.5 155.6 158.1 171.7 151.4C176.8 149.2 178.7 149 187.6 149.2C196.5 149.5 198.3 149.9 204.1 152.8Z"/>
<path d="M193.7 188.2L179.1 203.5L171.8 196.2C164.5 189 160.9 187.3 159.6 190.6C158.5 193.5 159 194.2 167.7 203.1C173.1 208.7 177.1 212 178.4 212C179.8 212 186.4 206.2 197.4 195.1C211.1 181.4 214.1 177.9 213.8 175.9C213.6 174.2 212.8 173.4 210.9 173.2C208.7 172.9 206.1 175.2 193.7 188.2Z"/>
<path d="M42.1 177.6C40.4 179.8 40 181.7 40 188.2C40 195.2 40.3 196.4 42.5 198.5C44.7 200.8 45.6 201 55 201C64.4 201 65.3 200.8 67.5 198.5C69.7 196.4 70 195.2 70 188.2C70 181.7 69.6 179.8 67.9 177.6C65.9 175.1 65.5 175 55 175C44.5 175 44.1 175.1 42.1 177.6ZM63 187.5V193H55H47V187.5V182H55H63V187.5Z"/>
<path d="M87.1 177.6C85.4 179.8 85 181.7 85 188.2C85 195.2 85.3 196.4 87.5 198.5C89.7 200.8 90.6 201 100 201C109.4 201 110.3 200.8 112.5 198.5C114.7 196.4 115 195.2 115 188.2C115 181.7 114.6 179.8 112.9 177.6C110.9 175.1 110.5 175 100 175C89.5 175 89.1 175.1 87.1 177.6ZM108 187.5V193H100H92V187.5V182H100H108V187.5Z"/>
</svg>
