<svg width="295" height="298" viewBox="0 0 295 298" fill="#15C196" xmlns="http://www.w3.org/2000/svg">
<path d="M59.6 1.26758C53.8 3.36758 2.7 54.4676 1.1 59.7676C0.3 62.4676 0 94.8676 0 172.668V281.868L2.1 286.068C4.9 291.668 6.7 293.568 11.2 295.868C14.9 297.768 18.4 297.768 119.4 297.568L223.8 297.268L227.6 294.168C233.1 289.768 235.9 283.668 236 276.168C236 271.768 235.6 269.668 234.4 268.668C231.6 266.368 229.7 268.768 229.5 274.868C229.2 280.868 227.5 285.168 224 288.268C221.8 290.268 220.3 290.268 117.9 290.268H14L10.8 286.968L7.5 283.768V173.468V63.2676L30 62.7676C62.5 62.0676 61.3 63.2676 62 30.7676L62.5 8.26758L141.4 7.96756L220.3 7.76758L223.6 10.2676C229.5 14.7676 230.1 19.1676 229.8 52.6676L229.5 81.6676L231.8 82.2676C233.1 82.5676 234.5 82.5676 235 82.2676C235.6 81.8676 236 68.6676 236 49.1676C236 14.2676 235.9 13.3676 230.6 7.06757C224.5 -0.132416 230.4 0.267578 142.5 0.0675659C76.4 -0.132416 62.9 0.0675659 59.6 1.26758ZM55 32.9676C55 57.3676 56.5 55.7676 32.9 55.7676C20.9 55.7676 14.9 55.3676 14.4 54.6676C13.7 53.3676 51.7 14.7676 53.7 14.7676C54.7 14.7676 55 18.9676 55 32.9676Z" />
<path d="M93.4 33.2676C90.9 35.7676 90.8 36.1676 91.2 47.3676C91.5 58.1676 91.7 59.0676 93.9 60.8676C95.9 62.4676 97.6 62.7676 102.9 62.5676C109.3 62.2676 109.5 62.1676 109.8 59.5676C110.2 56.6676 109.1 56.0676 102 55.5676L98.5 55.2676V46.7676V38.2676L144.4 37.9676C180.5 37.7676 190.5 37.9676 191.2 38.9676C192.5 41.1676 192.1 53.3676 190.7 54.6676C189.8 55.3676 179 55.8676 157.5 55.9676C129.1 56.2676 125.6 56.4676 124.7 57.9676C123.9 59.1676 124 60.0676 124.9 61.1676C126.1 62.5676 130.4 62.7676 159.7 62.7676H193.1L195.5 60.2676C196.9 58.9676 198 57.0676 198.1 56.0676C198.2 52.9676 198.2 39.3676 198.1 37.4676C198 36.4676 196.9 34.5676 195.5 33.2676L193.1 30.7676H144.5H95.9L93.4 33.2676Z"/>
<path d="M227.9 97.4676C226.4 97.6676 222.9 99.8676 220 102.368L214.7 106.868L208 106.168C195.7 104.968 189.4 110.468 186.5 125.068C186.1 127.068 184.5 128.568 180.5 130.868C170.5 136.468 167.6 145.168 172.6 154.768C175.4 160.268 175.3 163.568 171.9 169.168C167.6 176.168 171 186.368 179.1 190.768C185.5 194.268 187 195.668 187 198.268C187 205.068 192.7 213.968 197.9 215.268C203 216.568 203 216.568 203 239.168C203 262.468 203.4 264.068 209 265.268C212.1 265.968 213.7 265.368 223.3 259.868C225.4 258.668 228.2 256.968 229.6 256.068C232.3 254.368 233 254.568 240.5 259.268C251.4 266.168 256.6 267.068 260.6 262.568C262.3 260.768 262.5 258.268 262.8 238.768L263.1 216.968L266.9 215.368C272.4 213.268 275.5 208.968 276.9 201.868C277.9 196.868 278.7 195.368 281.4 193.268C283.2 191.868 285.1 190.768 285.6 190.768C287.4 190.768 292.7 184.368 293.9 180.868C295.5 175.968 295.3 174.168 292.3 167.568C289.9 162.168 289.8 161.268 290.9 158.368C295.5 146.868 295.4 147.368 293.9 142.268C292.3 136.968 289.6 133.768 284.4 131.268C280.2 129.268 277.4 124.968 276.5 119.368C275.6 114.168 272.1 109.568 267.5 107.268C264.6 105.968 262.4 105.768 257.1 106.268L250.4 106.968L245.1 102.468C240.5 98.4676 235.3 96.3676 231.5 96.9676C231 96.9676 229.3 97.2676 227.9 97.4676ZM240.5 107.768C245.2 112.568 249.5 113.968 257.5 113.168C263.1 112.568 263.8 112.768 266.8 115.268C269.4 117.368 270 118.668 270 121.768C270 128.068 273.5 133.168 280.1 136.768C285 139.368 286.1 140.468 287.1 143.768C288.1 147.168 288 148.168 285.6 152.868C282.3 159.568 282.3 163.468 285.6 169.368C289.9 176.968 288 181.468 278.3 186.768C273.5 189.368 270 195.268 270 200.568C270 202.368 269 204.768 267.6 206.468C265.2 209.168 264.9 209.268 256.6 208.968C247.3 208.668 244.8 209.568 240.1 214.968C238.8 216.468 236.3 217.968 234.5 218.368C230.7 219.068 224.6 216.768 223.1 213.968C221.2 210.368 215.3 208.468 208.4 209.068C203 209.568 201.7 209.368 198.9 207.468C196.2 205.568 195.5 204.268 194.4 198.868C192.9 191.868 190.4 188.368 185.4 186.168C181.6 184.568 177 179.368 177 176.668C177 175.568 178.1 172.168 179.5 169.168C182.6 162.268 182.6 160.168 179.4 153.168C175.4 144.468 176.8 140.268 185 136.468C191.1 133.668 195 127.568 195 120.668C195 118.868 196 117.068 198.2 115.268C201.2 112.768 201.9 112.568 207.5 113.168C215 113.868 220.2 112.568 223.2 108.868C226.4 105.068 228.9 103.868 233 103.768C235.9 103.768 237.4 104.568 240.5 107.768ZM219.5 219.768C227.8 227.768 236.8 227.568 246.3 219.168C248.3 217.268 251.1 215.768 252.4 215.768C255.6 215.768 256 218.368 256 236.668C256 251.568 255.3 258.768 254 258.768C253.6 258.768 249.1 256.268 244.1 253.268C239 250.268 233.9 247.768 232.6 247.768C231.3 247.768 226 250.168 220.9 253.168C215.8 256.168 211.3 258.468 210.8 258.168C210.4 257.868 210 248.168 210 236.568V215.468L213.2 216.168C215 216.468 217.8 218.168 219.5 219.768Z"/>
<path d="M223.5 126.368C215.1 128.468 204 136.968 200.4 143.968C198.3 147.968 196 157.068 196 161.068C196 169.668 201.2 181.168 207.8 187.368C214.2 193.368 221.3 196.268 231.1 196.568C238.8 196.968 240.2 196.668 246.3 193.968C254.1 190.368 260.8 184.068 264.6 176.568C267.1 171.868 267.4 170.168 267.5 161.268C267.5 152.168 267.2 150.768 264.5 145.468C261.2 138.768 254.3 132.068 247.3 128.768C243.7 126.968 240.4 126.368 234 126.168C229.3 125.968 224.6 126.068 223.5 126.368ZM245.5 135.768C255.8 141.468 261 150.168 261 161.768C261 170.168 258.5 176.368 252.7 181.968C245 189.368 230.6 191.968 221 187.668C215.5 185.168 208.6 178.668 205.7 173.268C202.7 167.468 202.8 154.868 206 149.268C209.9 142.168 216.1 136.668 222.9 134.068C228.3 132.068 240.5 132.968 245.5 135.768Z"/>
<path d="M33.7 107.468C32.4 108.668 33 112.568 34.6 113.168C37 114.068 149.3 113.868 150.8 112.868C151.6 112.468 152 110.968 151.8 109.668L151.5 107.268L92.9 106.968C60.7 106.868 34 107.068 33.7 107.468Z"/>
<path d="M34.8 137.468C32.7 137.968 32.4 142.068 34.4 143.668C35.3 144.468 51.7 144.668 93.6 144.568L151.5 144.268L151.8 141.868C152.6 136.768 152.9 136.768 92.6 136.868C61.7 136.968 35.7 137.168 34.8 137.468Z"/>
<path d="M34.8 168.868C32.2 170.368 32.5 174.368 35.3 175.168C39.3 176.268 148 175.868 150.1 174.768C152.2 173.568 152.6 170.768 150.8 168.968C149.2 167.368 37.4 167.268 34.8 168.868Z"/>
<path d="M33.7 200.468C33.3 200.768 33 202.068 33 203.268C33 204.968 33.8 205.668 36.1 206.168C40.2 206.968 146.8 206.968 149.8 206.168C151.6 205.668 152 204.868 151.8 202.868L151.5 200.268L92.9 199.968C60.7 199.868 34 200.068 33.7 200.468Z"/>
<path d="M33.7 245.468C32.4 246.668 33 250.568 34.6 251.168C37 252.068 93.3 251.868 94.8 250.868C95.6 250.468 96 248.968 95.8 247.668L95.5 245.268L64.9 244.968C48.1 244.868 34.1 245.068 33.7 245.468Z"/>
</svg>
