<svg width="386" height="386" viewBox="0 0 386 386" fill="#fff" xmlns="http://www.w3.org/2000/svg">
<path d="M42.8516 19.9483C24.9516 22.2543 9.25156 38.2959 6.85156 56.6434C5.65156 66.4688 5.75156 322.432 6.95156 331.255C8.35156 340.479 11.4516 346.996 17.9516 354.114C23.8516 360.531 29.2516 364.14 36.5516 366.346C43.9516 368.551 342.952 368.551 350.352 366.346C357.652 364.14 363.052 360.531 368.952 354.114C375.452 346.996 378.552 340.479 379.952 331.255C381.252 321.63 381.252 64.8647 379.952 56.0418C378.452 46.6174 374.052 38.3961 367.052 31.5785C360.052 24.9613 353.152 21.4522 343.952 20.0486C336.452 18.8455 52.1516 18.7452 42.8516 19.9483ZM351.152 33.1826C358.652 36.6917 365.252 43.6096 367.852 50.6278C369.652 55.34 369.952 58.4481 369.952 73.086V90.1301H245.752C177.352 90.1301 120.852 90.5312 120.152 91.0325C118.052 92.3359 118.352 98.2512 120.452 99.7551C122.052 100.958 143.752 101.159 246.152 101.159H369.952L369.752 217.661L369.452 334.263L367.152 338.975C364.152 344.99 358.152 351.006 352.152 354.014L347.452 356.32H193.452H39.4516L34.3516 353.613C28.1516 350.304 22.9516 345.091 19.8516 338.975L17.4516 334.263L17.1516 217.661L16.9516 101.159H58.4516C98.6516 101.159 100.052 101.058 101.952 99.1535C104.152 96.9478 104.452 94.9426 102.952 92.0351C101.952 90.2304 100.352 90.1301 59.4516 90.1301H16.9516V73.086C16.9516 58.4481 17.2516 55.34 19.0516 50.6278C22.7516 40.6018 32.7516 32.5811 43.4516 30.9769C46.1516 30.5759 115.252 30.2751 196.952 30.3753L345.452 30.4756L351.152 33.1826Z"/>
<path d="M215.152 44.7125C203.652 50.3271 203.652 68.7749 215.152 74.6902C219.052 76.6954 226.952 76.6954 230.852 74.6902C235.552 72.1837 239.152 66.6694 239.652 61.2554C240.852 48.5224 226.652 38.9977 215.152 44.7125ZM227.352 54.538C229.652 56.9442 230.152 59.7515 228.752 62.7593C227.752 64.965 226.652 65.6668 223.852 65.8673C219.252 66.2684 216.952 64.0627 216.952 59.551C216.952 54.1369 223.652 50.8284 227.352 54.538Z"/>
<path d="M265.452 44.913C255.652 50.8283 253.352 61.9572 260.052 70.4792C266.552 78.7005 280.752 77.9987 286.452 69.1759C291.252 61.7566 290.652 54.0366 284.652 48.2216C278.952 42.8076 271.152 41.4039 265.452 44.913ZM277.452 55.0392C278.452 56.1421 279.252 58.4481 279.152 60.2528C278.952 68.1733 266.652 68.1733 266.652 60.2528C266.652 53.9364 273.452 50.6278 277.452 55.0392Z"/>
<path d="M314.552 45.4143C299.452 54.538 305.552 76.3946 323.152 76.2943C335.352 76.1941 342.952 63.1603 337.452 51.7307C333.652 43.7099 322.452 40.6019 314.552 45.4143ZM326.752 54.6382C328.252 55.6408 328.952 57.1447 328.952 59.551C328.952 63.8621 326.752 66.0678 322.452 66.0678C316.652 66.0678 313.852 59.1499 317.952 55.0393C320.352 52.633 323.652 52.4325 326.752 54.6382Z"/>
<path d="M105.752 123.918C103.652 124.419 102.452 128.129 103.452 131.136C103.852 132.44 105.252 133.442 107.452 133.843C113.052 134.846 114.352 137.152 114.952 147.679C115.252 153.394 115.952 157.605 116.852 158.608C117.952 160.011 117.952 160.813 116.552 163.721C115.552 165.826 114.952 169.736 114.952 173.747C114.952 182.369 113.052 187.081 109.252 187.883C104.752 188.886 103.452 189.889 103.152 192.796C102.652 196.506 104.552 198.411 108.652 198.411C115.552 198.411 122.652 192.295 124.952 184.274C125.552 182.369 125.952 178.058 125.952 174.549C125.952 168.433 126.052 168.232 129.452 166.227C134.752 163.019 134.952 160.613 130.152 156.402C126.252 152.893 126.152 152.692 125.652 144.671C125.152 136.25 124.152 133.442 120.552 129.432C116.952 125.422 110.052 122.915 105.752 123.918Z"/>
<path d="M73.8516 125.221C65.8516 127.627 61.9516 133.843 61.2516 145.574C60.7516 153.695 60.6516 153.895 56.6516 157.304C51.9516 161.515 52.1516 164.021 57.4516 167.23C60.7516 169.135 60.9516 169.536 60.9516 175.05C61.0516 187.181 64.1516 193.899 71.4516 197.408C78.8516 201.017 83.9516 199.714 83.9516 194.3C83.9516 191.192 82.7516 190.089 77.7516 188.485C73.3516 186.981 71.9516 183.572 71.9516 173.847C71.9516 170.538 71.2516 166.528 70.4516 165.024C69.2516 162.618 69.1516 161.716 70.3516 159.51C71.0516 158.006 71.9516 152.893 72.1516 148.08C72.6516 138.556 73.8516 135.949 78.7516 134.746C82.4516 133.843 83.9516 132.339 83.9516 129.632C83.9516 125.02 80.0516 123.316 73.8516 125.221Z"/>
<path d="M156.552 136.851C154.652 138.656 154.452 142.365 156.152 144.07C157.052 144.972 178.252 145.273 245.552 145.273C325.052 145.273 333.752 145.072 334.352 143.669C335.352 141.162 335.052 137.753 333.752 136.45C332.852 135.548 311.852 135.247 245.352 135.247C167.352 135.247 157.952 135.447 156.552 136.851Z"/>
<path d="M157.952 176.654C155.252 177.958 154.252 181.868 155.952 184.374C156.752 185.678 167.852 185.878 243.952 186.179C303.452 186.279 331.652 186.079 332.952 185.377C334.352 184.575 334.952 183.271 334.952 180.765C334.952 177.958 334.452 177.156 332.352 176.353C328.252 174.749 161.052 175.05 157.952 176.654Z"/>
<path d="M268.352 210.843C266.252 212.948 264.952 215.254 264.952 216.858C264.952 220.568 262.052 221.871 259.252 219.365C257.752 217.861 255.752 217.259 252.452 217.259C247.752 217.259 247.452 217.56 239.352 225.581C231.552 233.401 230.952 234.203 230.952 238.114C230.952 240.72 231.652 243.227 232.952 244.831C235.852 248.44 235.552 250.546 232.252 250.546C228.452 250.546 223.152 253.955 221.952 257.163C220.552 260.672 220.652 279.22 222.052 281.927C223.752 285.336 227.152 287.642 230.552 287.642C235.352 287.642 236.352 289.446 233.452 292.855C227.852 299.573 229.052 303.483 239.952 314.11C247.352 321.329 247.952 321.73 252.252 321.73C255.552 321.73 257.552 321.129 259.652 319.324C263.252 316.416 264.952 317.018 264.952 321.129C264.952 325.54 268.152 329.45 272.852 330.854C274.952 331.455 280.652 331.856 285.752 331.656C294.152 331.255 295.052 331.054 297.752 328.448C299.652 326.643 300.952 324.136 301.352 321.73C302.052 316.918 303.652 316.316 307.252 319.324C310.752 322.231 316.252 322.432 320.452 319.825C322.152 318.823 326.252 314.912 329.452 311.203C334.752 305.187 335.452 303.884 335.452 300.174C335.452 297.367 334.752 295.161 333.652 293.858C330.752 290.65 331.852 288.243 336.452 287.542C338.852 287.141 341.152 285.937 342.652 284.233C344.752 281.726 344.952 280.624 344.952 269.094V256.762L341.452 253.654C339.452 251.949 336.752 250.546 335.352 250.546C331.952 250.546 331.452 248.44 333.852 244.43C337.752 238.013 336.352 234.203 326.652 224.679C322.452 220.468 319.052 218.062 316.852 217.56C312.852 216.658 307.052 217.961 306.352 219.866C305.252 222.674 302.152 220.368 301.052 215.856C299.252 208.938 296.052 207.434 282.652 207.434H271.752L268.352 210.843ZM290.952 220.869C290.952 225.28 293.352 227.987 298.952 229.992C306.752 232.8 307.352 232.8 310.852 229.892L314.152 227.185L319.752 232.8L325.352 238.414L322.652 241.322C319.352 244.731 319.352 245.733 322.152 252.651C325.152 260.171 325.652 260.572 330.552 260.572H334.952V269.094V277.616H330.452H325.852L322.952 284.233C319.352 292.254 319.252 293.657 322.452 296.665C323.852 297.969 324.952 299.472 324.952 300.074C324.952 300.676 322.652 303.483 319.752 306.39L314.652 311.604L311.252 308.696C307.252 305.087 306.952 305.087 299.352 307.694C292.452 310.1 290.952 311.704 290.952 316.918V320.728H282.952H274.952V315.815V310.802L269.552 308.396C260.552 304.185 260.452 304.185 256.152 308.095L252.252 311.604L247.152 306.39C244.252 303.483 241.952 300.676 241.952 300.074C241.952 299.472 243.052 297.969 244.452 296.665C247.552 293.758 247.552 291.652 244.652 284.133L242.352 278.117L236.852 277.616L231.452 277.115V269.094V261.073L236.452 260.572C241.352 260.07 241.452 259.97 244.152 254.556C247.552 247.538 247.552 244.831 244.352 241.422L241.652 238.615L246.452 233.101C249.052 229.992 251.552 227.486 251.952 227.486C252.452 227.486 254.152 228.789 255.752 230.494C257.452 232.098 259.352 233.502 260.152 233.401C260.852 233.401 264.352 231.897 267.952 230.193L274.452 226.985L274.752 222.172L275.052 217.46H283.052H290.952V220.869Z"/>
<path d="M274.852 241.923C262.052 246.435 254.952 256.561 254.952 269.996C254.952 289.246 274.852 302.58 293.352 295.663C304.552 291.351 311.352 281.426 311.352 269.094C311.252 260.572 309.652 256.361 303.752 249.944C296.052 241.522 284.752 238.414 274.852 241.923ZM290.552 252.451C297.052 255.458 300.352 260.572 300.752 268.492C301.052 274.107 300.752 275.611 298.752 278.618C292.052 288.444 280.052 290.048 271.252 282.328C264.952 276.713 263.252 268.893 266.852 261.775C271.752 252.15 281.452 248.34 290.552 252.451Z"/>
<path d="M65.2515 217.159C63.6515 217.761 63.5515 223.676 65.1515 225.28C66.8515 226.985 113.052 226.985 114.752 225.28C116.252 223.776 116.252 219.164 114.752 217.661C113.852 216.758 107.052 216.457 90.0515 216.558C77.0515 216.558 65.8515 216.858 65.2515 217.159Z"/>
<path d="M136.252 217.159C134.652 217.761 134.552 223.676 136.152 225.28C137.452 226.584 206.552 227.085 208.552 225.681C210.352 224.478 211.152 220.668 209.952 218.463C208.952 216.457 208.152 216.457 173.152 216.558C153.552 216.558 136.852 216.858 136.252 217.159Z"/>
<path d="M64.1516 257.764C62.6516 259.268 62.6516 263.88 64.1516 265.384C65.8516 267.089 204.052 267.089 205.752 265.384C207.252 263.88 207.252 259.268 205.752 257.764C204.052 256.06 65.8516 256.06 64.1516 257.764Z"/>
<path d="M64.7516 297.367C62.7516 297.868 61.4516 301.778 62.3516 304.185C62.6516 304.987 64.0516 306.19 65.4516 306.691C68.9516 307.994 199.852 308.095 203.352 306.691C205.452 305.889 205.952 305.087 205.952 302.28C205.952 299.773 205.352 298.47 204.052 297.668C202.152 296.665 68.5516 296.364 64.7516 297.367Z"/>
</svg>
