<svg width="508" height="508" viewBox="0 0 508 508" fill="#15C196" xmlns="http://www.w3.org/2000/svg">
<path d="M258.8 1.15859C249.8 3.85859 245.1 13.8586 246.5 27.1586C247.1 33.2586 247.1 33.4586 244.8 33.9586C225.5 37.5586 210.1 42.9586 196.8 50.5586L188.5 55.3586L184.5 52.8586C176.2 47.8586 164.6 42.3586 156.2 39.5586C137.3 33.3586 136.9 33.2586 82.8 32.8586L33 32.4586V40.3586V48.2586L22.1 48.7586C9.1 49.3586 4.9 51.2586 1.9 57.9586C0.1 61.8586 0 67.7586 0 204.459C0 344.859 0 346.959 2 351.059C3.3 353.659 5.4 355.959 7.9 357.359L11.8 359.559H80.3H148.7L150 364.159C151.6 369.859 157.6 379.159 162.1 382.959C164 384.559 168.3 387.159 171.7 388.759C192.7 398.659 218 387.859 226.1 365.559L228.3 359.559H245.5H262.7L263.2 364.459C264.1 374.059 271.9 384.559 281.8 389.659L286.5 392.059L347.5 392.559C407.5 393.059 408.6 393.059 412.5 395.159C421.6 400.059 426.4 407.959 426.3 418.259C426.2 428.759 421.1 436.359 411.3 440.759C407.4 442.459 402.2 442.559 293 442.359L178.7 442.059L177.4 436.559C173 419.059 158.9 403.559 141.4 396.759L134.5 394.059L86.5 393.759C52.9 393.559 36.7 393.759 32.5 394.559C16.5 397.659 4.1 410.259 1 426.559C-0.3 433.359 -0.3 467.759 1 474.559C3.4 487.459 11.8 498.159 23.7 503.859L30.5 507.059H82.5H134.5L141 504.559C158.9 497.559 173 482.059 177.4 464.559L178.7 459.059L294.6 458.559L410.5 458.059L416.2 455.759C431.3 449.659 440.9 436.459 441.8 420.359C442.8 403.059 434.3 388.559 419 381.159L412.5 378.059L350.9 377.559L289.4 377.059L285.8 374.559C278.5 369.559 276.1 360.359 280.2 352.659C284.2 344.859 286 344.159 303.3 343.459C320.7 342.659 321.6 342.459 328.7 337.859C334.5 334.059 338.1 329.759 341.3 322.759C343.4 318.259 343.5 316.659 343.8 281.459L344.1 244.759L349.8 244.159C353 243.759 358.3 242.659 361.7 241.659L367.8 239.759L374.1 246.259C385.1 257.559 399 268.459 407.9 272.859C415.4 276.659 417.1 277.059 423.5 277.059C429.7 277.059 431.1 276.759 434.2 274.359C439.5 270.359 441.4 265.559 441.8 255.259C442.4 242.659 438.5 226.659 429.9 205.359L425.9 195.659L430.9 185.359C433.7 179.659 436.7 172.259 437.6 168.859L439.3 162.759L443.9 162.059C446.4 161.759 453.9 160.059 460.5 158.459C486.5 151.959 501.9 143.159 506.5 132.359C508.6 127.159 508.4 124.759 505.4 118.759C499.6 107.059 480 97.9586 445.5 91.0586C436.2 89.1586 428.4 87.1586 428.2 86.6586C426.9 82.7586 416.6 68.8586 410.5 62.8586L403.2 55.7586L405.6 47.7586C409 35.9586 410.3 24.6586 409.1 17.9586C407.1 7.15859 403.6 2.85859 395.1 0.558586C384.5 -2.24141 369.1 5.45859 348.3 24.2586C339.9 31.8586 338.8 32.5586 334.9 32.5586C332.6 32.5586 327.8 33.0586 324.3 33.6586L318 34.7586L311.2 28.3586C286.6 5.15859 271.5 -2.74141 258.8 1.15859ZM276.9 18.9586C283.3 22.8586 299.9 36.6586 300 38.1586C300 38.6586 297.8 39.9586 295.1 40.9586C289.6 42.9586 278.5 49.2586 272.8 53.7586L269.1 56.6586L267.1 50.0586C262 33.7586 260.7 17.6586 264.2 15.3586C266.2 14.0586 271 15.4586 276.9 18.9586ZM393.5 20.9586C394.2 26.1586 391.8 42.6586 390 45.5586C389.3 46.7586 388 46.4586 382.8 43.8586C379.3 42.0586 373.3 39.7586 369.5 38.5586C365.6 37.3586 361.7 36.0586 360.7 35.6586C359.2 35.1586 360.1 34.0586 365.7 29.4586C378.9 18.7586 387 14.2586 391.1 15.2586C392.4 15.6586 393.1 17.1586 393.5 20.9586ZM132.3 49.6586C146.7 51.7586 160.6 56.7586 173.3 64.3586L181 68.9586V86.9586L180.9 105.059L176 108.359C167.7 114.059 163.1 122.159 164.4 128.959C165.3 133.759 170.1 139.759 175.9 143.559L181 146.859V227.759C181 272.159 180.8 308.559 180.6 308.559C180.4 308.559 176 307.259 170.8 305.659C134.1 294.359 92.1 292.259 55.5 299.959L49 301.359V174.959V48.5586H87.1C109.1 48.5586 128.1 49.0586 132.3 49.6586ZM354.6 50.1586C363 51.9586 372.3 55.1586 380 59.0586L384.9 61.5586L382.3 67.7586C374.7 86.7586 358.3 117.959 343 142.559L334.9 155.559H327.9H321L314.5 145.459C298 119.959 273.9 74.2586 275.5 71.5586C275.8 71.0586 278.8 68.5586 282.3 66.0586C293.2 57.7586 307.1 51.7586 319.8 49.5586C328.2 48.1586 346.4 48.4586 354.6 50.1586ZM253.5 58.6586C255.5 64.7586 256.1 68.1586 255.5 69.0586C251.2 74.9586 244.1 85.6586 243.8 86.5586C243.6 87.1586 236.3 89.1586 227.5 91.0586C218.7 92.8586 208 95.2586 203.8 96.3586L196 98.3586V83.5586V68.7586L200.8 65.9586C215.7 57.1586 236.2 50.0586 247.6 49.6586C250.6 49.5586 250.7 49.7586 253.5 58.6586ZM33 192.559C33 262.959 33.3 320.559 33.6 320.559C33.9 320.559 41.2 319.059 49.8 317.159C75.6 311.559 80.6 311.059 105 311.159C134.6 311.159 152.6 314.259 178.2 323.659C185.5 326.359 189.5 327.359 190.3 326.759C191 326.259 197 323.959 203.6 321.759C241.3 309.259 280.8 307.359 323.8 316.159C327.6 316.959 327.6 317.059 325 321.259C322 326.359 319.8 326.959 302.9 327.659C289.1 328.159 286.8 328.559 281.9 330.759C276.2 333.459 271.5 337.359 268.5 341.859L266.8 344.559H240H213.3L212.8 352.759C212.4 359.559 211.9 361.859 209.7 365.259C204.7 373.159 198.1 376.659 188.4 376.759C181.1 376.759 174.9 374.259 170.3 369.459C166 364.959 164.2 360.159 163.4 351.659L162.7 344.559H89.4H16V204.559V64.5586H24.5H33V192.559ZM409.6 85.9586C415.1 93.2586 421.3 105.959 423.4 114.159C425.6 122.559 427 137.259 426.3 143.859L425.7 149.359L418 150.459C406.8 152.159 382.6 154.359 366.5 155.159L352.6 155.859L354.1 153.459C367.6 132.659 386 99.0586 393.6 81.2586L397.4 72.4586L401.3 76.2586C403.4 78.3586 407.2 82.7586 409.6 85.9586ZM266.4 90.8586C270 99.0586 283.2 123.259 293.1 139.859L302 154.859L290.8 154.159C279.1 153.459 254.8 150.959 249.4 149.959C246.4 149.459 246.2 149.159 245.7 143.559C244.4 131.959 247.7 113.959 253.5 101.059C256.2 94.9586 262.1 85.5586 263.2 85.5586C263.7 85.5586 265.1 87.9586 266.4 90.8586ZM234.6 107.259C232.2 115.059 230.8 123.859 230.3 134.359L229.7 146.559L226.1 145.959C224.1 145.659 216.7 143.859 209.5 142.059C179.1 134.359 172.4 126.859 188.5 118.759C194.8 115.659 212.5 109.959 223 107.759C235 105.159 235.3 105.159 234.6 107.259ZM455 109.259C465.4 111.759 478.1 116.059 484.3 119.159C499.5 126.859 492.4 134.459 463 141.959C455.6 143.759 447.8 145.659 445.8 145.959L442 146.659V137.859C442 129.359 440.3 116.959 438 109.559C437.5 107.659 437 105.959 437 105.759C437 105.259 443.9 106.659 455 109.259ZM207.8 157.159C212.4 158.459 219.9 160.359 224.5 161.259L232.7 162.959L235.4 171.059L238 179.259L232.7 190.659C219.7 218.259 213.8 237.459 213.6 253.059C213.5 261.559 213.9 263.659 215.7 267.159C225.8 286.159 249 278.959 282.3 246.459L293.3 235.759L297.5 237.559C302.9 239.859 321.4 244.559 325.1 244.559H328V272.959V301.359L321.5 299.959C301 295.659 268.3 294.159 248.5 296.559C232.7 298.459 208.7 303.959 197.8 308.059C196.1 308.759 196 304.659 196 231.059C196 157.459 196.1 153.359 197.8 154.059C198.7 154.359 203.3 155.759 207.8 157.159ZM264.6 167.559C270.1 168.059 283 169.159 293.5 169.959L312.5 171.359L315.2 174.659C316.8 176.459 318 178.259 318 178.659C318 179.559 301.6 201.359 294.6 209.859L288.9 216.559L284.2 213.359C276.9 208.359 265.3 196.759 260.4 189.459C256.3 183.259 250 170.059 250 167.659C250 166.259 252.2 166.259 264.6 167.559ZM422 167.759C421.9 170.059 417.3 180.559 413.2 187.359C405.5 200.359 392 212.459 377.1 220.059L371.7 222.759L369.6 220.259C362.3 211.559 347.5 192.959 343.1 186.859C337.6 179.259 337.4 178.059 341 173.759C342.9 171.559 343.8 171.359 362.2 170.559C383.5 169.559 411.3 167.559 411.9 166.959C412.1 166.759 414.5 166.559 417.2 166.559C420.4 166.559 422 166.959 422 167.759ZM336.2 202.759C340.7 208.459 347.1 216.159 350.4 220.059L356.3 226.959L353.4 227.759C347.4 229.359 331.5 229.859 324 228.559C316.1 227.259 304 223.859 304 222.959C304 222.459 327.3 192.559 327.7 192.559C327.8 192.559 331.6 197.159 336.2 202.759ZM256 207.959C260.7 213.659 265.7 218.259 275.9 226.359L278.4 228.259L268.5 238.059C250.9 255.359 240 262.959 233.7 262.359C229 261.859 228.3 258.059 230.4 244.859C232.3 233.059 236.8 218.459 242.6 205.159L246.4 196.359L248.5 198.859C249.6 200.259 253 204.359 256 207.959ZM419.3 221.759C425 239.559 427.8 255.359 426.1 259.859C424.1 264.959 416.8 262.959 405.9 254.459C399 248.959 384 235.459 384 234.559C384 234.259 387.9 231.459 392.8 228.259C397.6 225.159 404.4 219.959 408 216.659C411.6 213.359 414.8 210.659 415.1 210.559C415.4 210.559 417.3 215.659 419.3 221.759ZM82 450.559V491.659L57.2 491.359L32.3 491.059L27.4 488.059C24.4 486.159 21.4 483.159 19.5 480.159L16.5 475.259L16.2 452.659C16 438.659 16.3 428.659 16.9 426.459C18.7 420.559 23.4 415.059 29.1 412.159C34.4 409.559 34.5 409.559 58.2 409.559H82V450.559ZM140.2 412.759C145.6 415.259 156 423.759 156 425.659C156 426.159 151.2 426.559 145.4 426.559C139.5 426.559 133 427.059 130.9 427.659C125.9 429.259 120.4 433.859 118 438.659L116 442.559H107H98V425.959V409.359L116.3 409.759C133.6 410.059 134.8 410.159 140.2 412.759ZM163.4 443.159C164.3 445.559 164.1 456.859 163.1 458.459C162.4 459.459 159.3 459.659 148.7 459.459C132.6 458.959 131 458.259 131 450.559C131 445.659 132.6 443.259 136.5 442.259C137.6 442.059 144 441.759 150.6 441.659C160.9 441.559 162.9 441.859 163.4 443.159ZM118 462.459C120.4 467.259 125.9 471.859 130.9 473.459C133 474.059 139.5 474.559 145.4 474.559C151.2 474.559 156 474.959 156 475.459C156 477.359 145.6 485.859 140.2 488.359C134.8 490.959 133.6 491.059 116.3 491.359L98 491.759V475.159V458.559H107H116L118 462.459Z" />
<path d="M66 89.5586V97.5586H73.5H81V89.5586V81.5586H73.5H66V89.5586Z" />
<path d="M99 89.5586V97.5586H123H147V89.5586V81.5586H123H99V89.5586Z" />
<path d="M66 122.559V130.559H106.5H147V122.559V114.559H106.5H66V122.559Z" />
<path d="M66 188.059V228.559H106.5H147V188.059V147.559H106.5H66V188.059ZM131 188.059V212.559H106H81V188.059V163.559H106H131V188.059Z" />
<path d="M66 253.559V261.559H73.5H81V253.559V245.559H73.5H66V253.559Z" />
<path d="M99 253.559V261.559H106.5H114V253.559V245.559H106.5H99V253.559Z" />
<path d="M131 253.559V261.559H139H147V253.559V245.559H139H131V253.559Z" />
</svg>
