<svg width="250" height="251" viewBox="0 0 250 250" fill="#fff" xmlns="http://www.w3.org/2000/svg">
<path d="M7.10014 1.95052C5.20014 2.97891 2.80014 5.44706 1.80014 7.40101C0.100142 10.6919 0.000142399 15.6282 0.000142399 98.1056C0.000142399 191.484 -0.0998577 189.324 5.00014 193.952C7.10014 195.906 9.00014 196.009 53.4001 196.523C78.7001 196.832 99.6001 197.243 99.8001 197.346C100.8 198.271 99.3001 202.796 95.0001 211.743C89.6001 223.056 90.0001 222.85 79.9001 223.57C73.0001 223.981 68.5001 227.066 65.9001 232.928C62.6001 240.436 64.0001 247.017 69.3001 248.971C74.0001 250.617 178.7 250.411 182 248.663C189.5 244.755 187.4 232.003 178.1 225.627C175.5 223.776 173.3 223.261 168.5 223.261C161.3 223.261 160.8 222.85 156 213.08C151.1 202.899 149.7 198.374 151.2 197.346C151.9 196.934 172.2 196.523 196.3 196.523C234.8 196.523 240.6 196.317 243.6 194.878C250.3 191.587 250 196.626 250 98.3112V9.14929L247.9 6.0641C243.5 -0.209117 249.6 0.0994022 124.8 0.0994022C16.0001 0.0994022 10.3001 0.202242 7.10014 1.95052ZM239.5 7.70953L243 9.25213V85.9705V162.586L125.2 162.38L7.50014 162.072L7.20014 86.5875C7.00014 6.98966 6.90014 9.14929 11.5001 7.29817C12.6001 6.78398 63.6001 6.37262 124.8 6.37262C219.8 6.26978 236.6 6.47546 239.5 7.70953ZM242.5 178.526C242.5 187.267 242.4 187.782 240 189.016C238 190.044 214.2 190.25 123.7 190.044C-7.59985 189.838 7.00014 191.278 7.00014 178.012C7.00014 173.693 7.30014 169.785 7.70014 169.476C8.00014 169.065 61.0001 168.859 125.4 168.962L242.5 169.271V178.526ZM141.7 197.346C142.3 197.757 143.9 201.151 145.3 204.75C146.6 208.452 148.9 213.903 150.3 216.782C152.6 221.307 152.7 222.13 151.4 222.644C149 223.57 100.7 223.364 99.2001 222.336C98.1001 221.616 98.1001 220.896 99.6001 218.017C102 213.389 105.6 204.339 106.5 200.842C106.9 199.3 107.7 197.757 108.3 197.346C109.9 196.317 140.1 196.317 141.7 197.346ZM174.6 231.386C176.3 232.414 178.2 234.779 178.9 236.528C181.6 243.109 184.6 242.801 125 242.801H71.0001V239.819C71.0001 236.528 74.2001 231.797 77.4001 230.46C78.5001 229.946 100.2 229.535 125.5 229.535C168.8 229.432 171.7 229.535 174.6 231.386Z"/>
<path d="M15.2001 15.731C14.3001 16.6565 14.0001 24.8837 14.0001 46.5829C14.0001 74.041 14.1001 76.2007 15.8001 77.1262C20.2001 79.4915 20.5001 77.9489 20.8001 48.9482L21.1001 21.6957H125.6H230V48.8453C230 77.1262 230.3 79.2859 234.3 77.6404C236.8 76.7149 237.2 70.7502 236.8 42.4693C236.6 20.7701 236.3 16.348 235 15.5253C232.6 13.9827 16.7001 14.1884 15.2001 15.731Z"/>
<path d="M34.0001 33.0081C32.3001 34.7563 32.0001 36.4018 32.0001 44.8346C32.0001 58.1009 32.6001 58.718 45.3001 58.718C50.3001 58.718 55.0001 58.3066 55.6001 57.8952C58.0001 56.2498 59.0001 52.3419 59.0001 44.3204C59.0001 36.8131 58.7001 35.7847 56.5001 33.5223C54.3001 31.1569 53.3001 30.9513 45.0001 30.9513C37.3001 30.9513 35.7001 31.2598 34.0001 33.0081ZM51.8001 45.0403L52.1001 51.5192H45.7001C38.6001 51.5192 38.0001 51.005 38.0001 44.8346C38.0001 38.5614 38.6001 38.0472 45.4001 38.3557L51.5001 38.6642L51.8001 45.0403Z"/>
<path d="M158 40.8239C153.9 45.1431 148.9 49.6681 147 51.005C142.1 54.193 133.4 56.6612 123.7 57.381C114 58.1009 110.3 59.7463 108.5 64.2713C107.7 66.0196 105.8 74.4524 104.1 82.9881C102.4 91.4209 100.1 102.733 99.0001 108.081C96.1001 121.45 95.1001 127.826 95.7001 129.369C96.6001 131.631 96.9001 131.528 134 123.507C142 121.759 150.7 119.908 153.4 119.29C156.1 118.776 159.7 117.542 161.4 116.514C164.8 114.457 165 113.943 167.5 96.7686C169.7 81.754 172.1 77.0234 182.4 66.8423C187.1 62.2145 191 57.7924 191 56.9697C191 54.81 169.4 33.008 167.3 33.008C166.3 33.008 162.1 36.5046 158 40.8239ZM177.8 61.4946L173.1 66.2252L166.1 59.2321C162.2 55.3242 159 51.4163 159 50.3879C159 49.4624 160.9 46.9942 163.3 44.9374L167.5 41.3381L175 48.9482L182.5 56.6612L177.8 61.4946ZM160.9 63.2429C169 71.5729 168.8 70.6473 164.6 80.9313C163.1 84.6335 161.5 91.5238 160.7 98.2084C159.9 104.276 158.8 109.726 158.3 110.241C157.1 111.475 111.9 121.656 111.1 120.833C110.8 120.627 114.4 116.411 119.1 111.578C126.6 103.762 127.8 102.939 130.3 103.556C134.7 104.482 139.6 103.145 142.9 99.9566C145.6 97.3856 146 96.2544 146 91.7295C146 79.6972 133.6 74.1439 125 82.3711C122.3 84.942 122 85.8676 122 91.8323V98.3112L113.5 107.053C106.7 114.046 105 115.28 105 113.531C105 111.372 109 91.1124 112.7 74.6581C113.6 70.6473 114.7 66.9451 115.2 66.3281C115.7 65.6082 119.5 64.7855 123.7 64.3741C133.3 63.4486 143.8 60.6719 148.2 57.8952C150 56.764 152 55.7356 152.5 55.7356C153.1 55.6328 156.9 59.0265 160.9 63.2429ZM138 87.513C139.1 88.6443 140 90.2897 140 91.1124C140 93.0664 135.6 97.797 133.9 97.797C131.9 97.797 128 93.4777 128 91.3181C128 86.0733 134.3 83.708 138 87.513Z"/>
<path d="M37.0001 68.6934C32.6001 70.4417 32.0001 72.19 32.0001 81.754C32.0001 95.226 32.5001 95.7402 44.9001 95.7402C58.1001 95.7402 58.4001 95.5346 58.8001 83.1938C59.3001 69.9275 58.4001 68.7963 46.9001 68.2821C42.3001 68.1792 37.8001 68.2821 37.0001 68.6934ZM52.0001 81.8569V88.5415H45.6001C38.6001 88.5415 38.0001 88.0273 38.0001 81.8569C38.0001 75.6865 38.6001 75.1723 45.6001 75.1723H52.0001V81.8569Z"/>
<path d="M14.7001 87.2046C14.3001 87.5131 14.0001 102.219 14.0001 119.908C14.0001 143.355 14.3001 152.199 15.2001 153.125C17.0001 154.976 234.5 154.873 235.7 153.022C236.7 151.479 237.4 96.9744 236.5 90.804C235.9 86.6904 235.6 86.3819 233.2 86.6904L230.5 86.9989L230 116.822L229.5 146.646L125.3 146.954L21.0001 147.16V119.188C21.0001 103.762 20.7001 90.0841 20.4001 88.7472C19.8001 86.5876 16.2001 85.5592 14.7001 87.2046Z"/>
<path d="M34.0001 107.053C32.3001 108.801 32.0001 110.446 32.0001 118.879C32.0001 132.043 32.7001 132.762 44.9001 132.762C52.3001 132.762 54.1001 132.454 56.4001 130.603C58.9001 128.649 59.0001 128.032 59.0001 119.29C59.0001 110.858 58.8001 109.829 56.5001 107.567C54.3001 105.201 53.3001 104.996 45.0001 104.996C37.3001 104.996 35.7001 105.304 34.0001 107.053ZM52.0001 118.879V125.564H45.6001C38.6001 125.564 38.0001 125.049 38.0001 118.879C38.0001 112.709 38.6001 112.195 45.6001 112.195H52.0001V118.879Z"/>
</svg>