<svg width="525" height="409" viewBox="0 0 525 409" fill="#15C196" xmlns="http://www.w3.org/2000/svg">
<path d="M183.5 0.588886C155.9 3.98889 130.3 16.4889 110.1 36.5889C92.3 54.2889 81.2 73.8889 75.8 96.9889C72.6 110.889 72.2 133.589 74.8 148.989C79.9 178.389 91.7 206.689 112.4 238.689L116.1 244.489H102.5H89V226.789C89 209.789 88.9 208.989 86.5 204.889C82.5 198.089 78 196.489 63.1 196.489C52.9 196.489 50.3 196.789 47 198.489C42.2 200.889 38.1 206.189 37.3 210.789L36.8 214.189L24.6 214.689C11.9 215.189 8.5 216.189 4.3 220.689C3.1 221.889 1.7 224.289 1.1 225.789C0.4 227.689 0 244.889 0 276.289C0 323.789 0 323.989 2.3 327.889C6.6 335.489 11.6 337.389 27.6 337.489H36.7L37.4 341.489C38.2 346.589 42.9 351.889 48.5 353.989C51.9 355.389 55.4 355.589 65.2 355.389C76.7 354.989 78 354.789 81.7 352.289C88.3 347.889 89 345.389 89 324.589V306.489H128.6H168.3L185.9 323.689C204.2 341.689 221.8 357.089 243 373.989C257.1 385.189 282.7 403.789 287.3 406.089C290.9 407.989 300.4 408.989 305.5 408.089C313 406.689 357.7 373.389 389 346.089C436.7 304.189 472.3 263.089 495.5 222.989C527.6 167.489 533.7 113.689 512.5 71.4889C507.4 61.3889 505.1 58.9889 501.5 59.8889C498.2 60.6889 495 63.9889 495 66.4889C495 67.5889 496.4 71.3889 498.1 74.7889C507.9 94.0889 511.9 115.089 509.9 136.089C505.9 178.989 485.5 220.789 444.6 269.989C432.9 284.089 393.1 324.189 378 337.089C348.4 362.489 304.7 394.489 299.6 394.489C291.7 394.489 231.4 347.989 200 317.689L188.5 306.589L224.8 306.489H261V322.189C261.1 344.689 262.4 348.789 271 353.189C274.8 355.189 277 355.489 287 355.489C293.3 355.489 300.1 355.089 301.9 354.489C307.2 352.989 310.8 348.989 312.1 342.989L313.3 337.689L325.4 337.289C339.9 336.689 343.7 335.389 347.7 329.389L350.5 325.089L350.8 277.089L351.1 228.989L348.8 224.489C345.1 217.189 340.2 215.189 325.4 214.689L313.4 214.289L312.2 209.989C310.8 204.789 306.7 199.689 302.3 197.889C300.2 196.989 294.9 196.489 286.8 196.489C275.9 196.489 274 196.789 270.6 198.789C262.4 203.489 261.1 207.689 261 229.189V244.489H247.7C232.1 244.489 230 245.289 230 251.389C230 258.489 231 258.989 246.9 259.289L261 259.689V275.589V291.489H175H89V275.489V259.489H144.8C178.2 259.489 201.9 259.089 203.9 258.489C208 257.389 209 256.089 209 251.989C209 244.589 208.2 244.489 168.2 244.489H133.2L125.2 232.189C102.1 196.789 91 168.189 88 136.289C85.6 110.189 91.7 84.8889 105.7 63.7889C115.8 48.3889 136.8 30.8889 154.2 23.3889C167.9 17.3889 177.1 15.3889 194.4 14.7889C217.8 13.8889 233.7 17.0889 251.1 26.1889C262.7 32.2889 270.7 38.4889 281.8 49.8889C292.4 60.7889 295.7 62.4889 303 60.4889C306.7 59.4889 309.3 57.4889 317.5 49.0889C332.5 33.6889 344.9 25.4889 361.5 19.9889C383.5 12.5889 413.3 12.5889 435 19.9889C445.7 23.6889 457.4 29.7889 465.5 35.9889C478.7 46.0889 479.7 46.6889 482 45.9889C485 44.9889 488 41.4889 488 38.7889C488 35.9889 483 30.9889 472.6 23.2889C457.9 12.5889 438.1 4.28889 419.6 1.28889C404.4 -1.21111 376.7 0.188886 363.5 4.18889C341.3 10.7889 326.6 19.7889 309.1 37.2889L298.7 47.6889L291.3 39.5889C272.9 19.5889 249.2 6.28889 224.3 2.08889C212.7 0.0888855 193.5 -0.611114 183.5 0.588886ZM74.5 275.989V339.989H63H51.5L51 306.189C50.4 268.889 50.8 270.489 43.9 270.489C37.2 270.489 37.1 271.189 36.8 298.089L36.5 321.989L26.6 322.289C20.2 322.489 16.3 322.189 15.4 321.389C14.2 320.489 14 312.689 14 276.089C14 251.889 14.4 231.389 14.8 230.689C15.4 229.789 18.4 229.489 26.1 229.689L36.5 229.989L37 237.589C37.6 246.589 38.8 248.489 44.1 248.489C50.6 248.489 51 247.489 51 229.089C51 220.189 51.3 212.489 51.7 212.089C52.1 211.789 57.4 211.589 63.4 211.689L74.5 211.989V275.989ZM298 275.989V340.489H287H276V276.689C276 241.589 276.3 212.489 276.7 212.189C277 211.789 282 211.489 287.7 211.489H298V275.989ZM335.5 275.989V321.989H324.5H313.5L313.2 276.989C313.1 252.189 313.2 231.389 313.5 230.689C313.8 229.789 316.7 229.489 324.7 229.689L335.5 229.989V275.989Z" />
<path d="M252.9 87.3891C250.9 88.8891 248.2 96.8891 237.5 132.389C230.3 156.089 224.3 175.489 224 175.489C223.7 175.489 220.8 166.389 217.6 155.189C207.7 121.589 205.9 116.389 203.9 114.389C202.1 112.589 200.2 112.489 161 112.489C121.3 112.489 119.9 112.589 118 114.489C115.4 117.089 115.4 122.589 117.8 124.789C119.5 126.289 123.6 126.489 156.6 126.489H193.5L205.5 165.689C212.3 188.089 218.3 205.789 219.3 206.689C221.5 208.989 227.3 208.989 229.1 206.889C229.9 205.989 236.6 185.589 244.2 161.589C251.7 137.589 258.1 118.689 258.4 119.489C258.7 120.289 260.1 124.989 261.5 129.989C262.9 134.889 264.7 139.589 265.5 140.489C266.9 141.789 272.7 141.989 306.5 142.289L346 142.589L348.6 139.989C350.7 137.889 351.1 136.789 350.6 134.189C349.3 127.389 349.6 127.489 310.9 127.489H276.1L272 114.189C264.6 90.4891 263.9 88.4891 261.7 86.9891C258.8 84.9891 255.8 85.0891 252.9 87.3891Z" />
</svg>
