<svg width="234" height="234" viewBox="0 0 234 234" fill="#fff" xmlns="http://www.w3.org/2000/svg">
<path d="M59.0273 1.23383C57.7268 1.83383 56.1261 3.93383 55.5258 5.73383C54.8256 7.63383 53.2249 9.63383 51.4241 10.5338C46.422 13.1338 40.8196 19.1338 37.9184 25.1338C36.4178 28.3338 33.5166 32.7338 31.5157 34.9338C26.6137 40.4338 26.5136 45.4338 31.3156 50.6338L34.617 54.3338L30.5153 56.3338C25.4132 58.9338 23.7124 62.1338 24.3127 67.9338C24.8129 72.9338 28.1143 76.6338 33.0164 77.6338C35.3173 78.0338 36.6179 79.4338 39.1189 84.1338C40.9197 87.4338 44.3211 91.8338 46.6221 93.8338C50.2236 96.8338 50.9239 97.9338 50.7238 100.434C50.4237 103.234 49.6234 103.734 39.9193 108.034C27.514 113.634 23.4123 116.834 19.4106 124.034C17.0096 128.534 16.4094 130.934 16.0092 138.934L15.4089 148.434L12.0075 148.734C10.0067 148.934 8.30594 148.534 7.80573 147.734C7.30552 147.034 6.90535 126.534 6.90535 102.134C6.90535 54.1338 7.0054 53.3338 12.4077 49.1338C13.9083 47.9338 16.0092 46.9338 17.0096 46.9338C18.5102 46.9338 18.9104 46.1338 18.9104 43.4338C18.9104 40.3338 18.6103 39.9338 16.4094 39.9338C12.7078 39.9338 6.40514 43.4338 4.10417 46.6338C-0.097599 52.5338 -0.197641 54.8338 0.102485 115.434L0.402612 173.434L2.70358 177.434C4.00413 179.634 6.60523 182.634 8.60607 183.934C12.2076 186.434 12.3076 186.434 40.3194 186.734C55.826 186.934 68.8315 187.434 69.3317 187.934C69.8319 188.434 69.6318 192.634 68.9315 197.634C67.1307 211.434 67.3308 210.934 63.8293 210.934C57.5267 210.934 50.9239 216.634 50.9239 222.134C50.9239 223.734 51.6242 226.334 52.4245 227.934C55.5258 233.934 55.7259 233.934 101.645 233.934C141.662 233.934 143.563 233.834 146.764 231.934C156.668 225.934 151.166 210.934 139.161 210.934C136.16 210.934 136.16 210.834 135.059 204.134C134.459 200.434 133.859 195.134 133.759 192.434L133.459 187.434L161.971 186.934C192.083 186.434 192.384 186.334 197.086 181.234C202.488 175.434 202.488 175.634 202.788 141.634L203.088 109.934H199.587H195.985V128.134C195.985 138.234 195.585 147.034 195.185 147.734C194.484 148.634 185.981 148.934 155.868 148.734L117.452 148.434L116.852 138.934C115.951 122.334 110.549 115.434 92.5415 107.934C82.1371 103.634 81.937 103.534 81.937 100.234C81.937 97.8338 82.6373 96.4338 84.8382 94.8338C86.4389 93.7338 89.8403 89.4338 92.4414 85.3338C95.1425 81.2338 97.8437 77.9338 98.644 77.9338C101.445 77.9338 105.947 74.8338 107.448 71.9338C110.649 65.7338 107.948 58.1338 101.545 55.8338L98.0438 54.6338L101.545 50.5338C103.846 47.9338 104.947 45.5338 104.947 43.5338C104.947 39.9338 101.945 34.5338 99.0442 32.9338C97.8437 32.3338 96.9433 31.1338 96.9433 30.1338C96.8433 24.3338 89.2401 14.2338 82.3371 10.9338C79.0358 9.33383 77.7352 8.03383 77.335 5.93383C76.9349 4.43383 75.5343 2.53383 73.9336 1.63383C70.6322 -0.366166 62.5288 -0.566166 59.0273 1.23383ZM70.4321 10.1338C70.7323 11.4338 70.9323 16.4338 70.7323 21.3338C70.4321 31.1338 69.4317 32.7338 64.6297 31.5338L61.9285 30.9338V19.4338V7.93383H65.9302C69.2316 7.93383 70.032 8.33383 70.4321 10.1338ZM54.9256 24.4338C54.9256 30.4338 54.7255 30.9338 52.5246 31.5338C51.224 31.8338 48.823 31.9338 47.3224 31.7338C42.9205 31.2338 43.1206 28.1338 47.9226 22.6338C53.7251 16.1338 54.9256 16.4338 54.9256 24.4338ZM83.9378 21.6338C85.8386 23.7338 88.0396 26.4338 88.6398 27.6338C89.7403 29.5338 89.6402 30.0338 87.8395 30.9338C86.739 31.5338 84.1379 31.9338 82.1371 31.7338L78.4355 31.4338L78.1354 24.6338C77.8353 16.6338 78.8357 16.1338 83.9378 21.6338ZM96.7432 40.1338C98.644 42.0338 98.1438 44.6338 95.7428 46.3338C93.842 47.7338 89.3401 47.9338 66.9307 47.9338C52.3245 47.9338 39.4191 47.6338 38.1185 47.3338C35.5174 46.5338 34.2169 42.5338 35.9176 40.4338C37.018 39.1338 41.72 38.9338 66.3304 38.9338C87.7394 38.9338 95.8428 39.2338 96.7432 40.1338ZM89.7403 64.9338C89.9404 71.4338 89.5402 76.4338 88.7398 78.4338C85.0383 87.5338 76.0345 93.9338 66.6305 93.9338C59.8277 93.9338 55.6259 92.3338 50.4237 87.8338C44.4212 82.5338 42.9205 78.2338 42.9205 65.8338C42.9205 60.0338 43.2207 54.9338 43.6208 54.5338C44.021 54.2338 54.4254 54.0338 66.8306 54.1338L89.4401 54.4338L89.7403 64.9338ZM35.7175 67.2338C35.3173 70.4338 31.5157 70.2338 31.1156 67.0338C30.6153 63.8338 33.8167 61.0338 35.2173 63.4338C35.6175 64.3338 35.9176 66.0338 35.7175 67.2338ZM101.445 66.4338C101.445 68.7338 100.945 69.5338 99.2443 69.7338C97.2434 70.0338 96.9433 69.6338 96.9433 66.4338C96.9433 63.2338 97.2434 62.8338 99.2443 63.1338C100.945 63.3338 101.445 64.1338 101.445 66.4338ZM73.9336 102.234C73.9336 103.934 69.7318 105.934 66.3304 105.934C63.1291 105.934 57.7268 103.134 58.4271 101.934C58.8272 101.334 62.4288 100.934 66.5305 100.934C72.0328 100.934 73.9336 101.234 73.9336 102.234ZM56.5263 111.134C57.4266 112.534 53.425 115.934 50.8239 115.934C49.6234 115.934 48.9231 115.234 48.9231 113.934C48.9231 110.734 54.9256 108.434 56.5263 111.134ZM83.3376 111.934C84.5381 113.134 83.3376 115.934 81.5368 115.934C79.2358 115.934 75.5343 112.434 76.3346 111.034C77.135 109.734 81.6369 110.334 83.3376 111.934ZM68.7314 115.734C69.1316 118.534 66.3304 119.734 64.2295 117.634C62.8289 116.334 62.8289 115.734 63.9294 114.434C65.7301 112.234 68.3312 112.934 68.7314 115.734ZM42.4203 119.134C43.6208 124.534 44.3211 124.934 50.7238 123.334C53.8251 122.634 56.7264 122.034 57.0265 121.934C57.7268 121.934 56.7264 128.134 54.4254 137.934C53.525 141.534 52.6246 145.434 52.3245 146.734C51.9243 148.934 51.7242 149.034 37.6183 148.734L23.4123 148.434L23.1122 140.734C22.9121 134.234 23.2122 132.334 25.3131 128.234C28.0143 122.734 29.815 121.034 35.4174 118.134C40.8196 115.334 41.62 115.434 42.4203 119.134ZM98.9442 119.134C106.247 123.534 109.949 130.434 109.949 139.434C109.949 149.434 110.749 148.934 94.8424 148.934C81.2367 148.934 80.9366 148.934 80.4363 146.634C80.1362 145.434 78.8357 139.534 77.4351 133.534C76.0345 127.534 75.0341 122.434 75.3342 122.234C75.5343 122.034 77.4351 122.234 79.636 122.834C81.7369 123.434 84.6381 123.934 86.1388 123.934C88.4397 123.934 89.04 123.334 89.9404 119.934C90.5406 117.734 91.541 115.934 92.2413 115.934C92.9416 115.934 95.9429 117.434 98.9442 119.134ZM69.3317 129.834C70.5322 133.934 72.9332 145.234 72.9332 147.034C72.9332 148.734 72.2329 148.934 66.4304 148.934C60.2278 148.934 59.9277 148.834 59.9277 146.534C59.9277 144.434 62.3287 132.434 63.3291 129.434C63.9294 127.734 68.8315 128.034 69.3317 129.834ZM195.385 157.534C196.485 160.334 195.985 168.934 194.584 172.334C193.884 174.134 191.883 176.634 190.183 177.834L187.181 179.934H101.745C36.0176 179.934 15.8091 179.634 14.0083 178.634C9.70653 176.434 7.70569 172.634 7.20548 165.634C6.90535 162.034 6.90535 158.334 7.20548 157.534C7.80573 156.134 17.4098 155.934 101.345 155.934C185.581 155.934 194.785 156.134 195.385 157.534ZM125.855 189.134C126.256 190.434 126.956 195.234 127.356 199.834C127.756 204.434 128.357 208.834 128.657 209.534C129.057 210.734 124.655 210.934 102.045 210.934H74.934V207.334C74.934 204.034 76.7348 190.934 77.5351 188.134C77.7352 187.234 83.4376 186.934 101.445 186.934C124.955 186.934 125.055 186.934 125.855 189.134ZM141.762 218.534C143.063 218.934 144.263 220.234 144.663 221.734C145.864 226.834 145.064 226.934 101.345 226.934C66.0303 226.934 60.8281 226.734 59.5275 225.334C57.3266 223.234 57.5267 221.334 60.1278 219.534C62.0286 218.134 67.631 217.934 100.945 217.934C122.154 217.934 140.462 218.234 141.762 218.534Z"/>
<path d="M50.924 66.4338C50.924 69.7338 51.124 69.9338 54.4254 69.9338C57.7268 69.9338 57.9269 69.7338 57.9269 66.4338C57.9269 63.1338 57.7268 62.9338 54.4254 62.9338C51.124 62.9338 50.924 63.1338 50.924 66.4338Z"/>
<path d="M73.9337 66.4338C73.9337 69.8338 74.0337 69.9338 77.9353 69.9338C81.837 69.9338 81.937 69.8338 81.937 66.4338C81.937 63.0338 81.837 62.9338 77.9353 62.9338C74.0337 62.9338 73.9337 63.0338 73.9337 66.4338Z"/>
<path d="M172.375 165.334C172.075 166.134 171.975 167.834 172.175 169.134C172.375 170.934 173.175 171.534 175.777 171.734C178.878 172.034 178.978 171.934 178.978 168.034C178.978 164.134 178.778 163.934 175.977 163.934C174.276 163.934 172.675 164.534 172.375 165.334Z"/>
<path d="M169.674 9.33386C168.874 10.1339 167.873 13.3339 167.573 16.3339C166.873 21.7339 166.673 21.9339 162.971 23.0339C159.37 24.1339 158.869 24.0339 155.168 21.0339C152.967 19.3339 150.266 17.9339 149.165 17.9339C146.564 17.9339 134.959 29.1339 134.959 31.7339C134.959 32.7339 136.26 35.3339 137.961 37.5339C143.163 44.4339 141.062 49.4339 132.458 50.5339C129.757 50.9339 126.856 51.6339 126.256 52.2339C125.355 52.8339 124.955 56.2339 124.955 62.4339C124.955 68.6339 125.355 72.0339 126.256 72.7339C126.856 73.2339 129.857 74.1339 132.858 74.5339C137.56 75.3339 138.661 75.9339 140.262 78.6339L142.062 81.8339L138.561 86.5339C136.56 89.1339 134.959 92.0339 134.959 93.0339C134.959 95.4339 146.664 106.934 149.165 106.934C150.266 106.934 152.867 105.534 154.968 103.934C159.27 100.534 159.97 100.334 163.972 102.434C166.373 103.634 166.873 104.734 167.473 109.134C167.873 112.034 168.674 115.034 169.174 115.634C169.874 116.534 173.376 116.934 179.978 116.934C190.783 116.934 190.383 117.234 191.483 109.534C192.884 100.734 197.486 98.9339 204.889 104.334C207.59 106.334 210.091 107.934 210.491 107.934C211.692 107.934 224.997 94.7339 224.997 93.5339C224.997 92.9339 223.397 90.0339 221.296 87.1339C217.694 81.9339 217.694 81.7339 219.295 78.5339C220.695 75.4339 221.296 75.1339 226.898 74.5339C234.101 73.7339 234.201 73.5339 233.801 61.0339C233.501 51.6339 233.301 51.4339 225.698 50.4339C221.496 49.8339 220.695 49.3339 219.295 46.4339C217.694 43.0339 217.694 43.0339 221.296 37.7339C223.397 34.8339 224.997 32.0339 224.997 31.6339C224.997 31.1339 222.196 27.8339 218.795 24.3339C211.692 16.9339 209.691 16.4339 203.988 21.0339C200.887 23.5339 199.587 24.0339 197.186 23.4339C193.184 22.6339 192.384 21.4339 191.483 15.1339C190.983 11.5339 190.183 9.63386 188.982 8.93386C185.981 7.33386 171.375 7.63386 169.674 9.33386ZM183.78 16.1339C184.48 16.8339 184.98 18.7339 185.08 20.3339C185.181 25.5339 186.381 26.9339 192.484 29.5339C199.987 32.5339 201.387 32.5339 205.389 29.4339C209.591 26.2339 209.991 26.3339 213.392 29.8339L216.294 32.8339L213.092 36.6339C209.391 41.1339 209.291 41.7339 212.392 49.4339C214.993 55.6339 215.593 56.1339 223.297 57.4339C226.898 58.0339 226.998 58.1339 226.998 62.4339C226.998 67.2339 226.898 67.2339 219.295 68.4339C215.393 69.0339 214.993 69.4339 213.392 73.7339C212.392 76.3339 211.292 78.8339 210.791 79.3339C209.291 81.1339 209.991 84.2339 212.492 87.5339C215.693 91.7339 215.593 92.9339 212.292 96.2339L209.491 98.8339L205.589 95.8339C200.887 92.4339 199.186 92.2339 193.984 94.9339C191.783 96.0339 189.382 96.9339 188.582 96.9339C187.181 96.9339 185.981 99.8339 184.48 107.134C183.98 109.634 183.48 109.934 180.178 109.934C175.476 109.934 173.976 108.534 173.976 103.934C173.976 99.2339 172.575 97.7339 166.072 95.1339C159.07 92.3339 158.169 92.3339 153.767 95.9339L150.166 98.9339L147.064 96.3339C143.263 93.2339 143.263 91.9339 146.464 88.1339C149.566 84.4339 149.566 81.9339 146.564 75.0339C144.063 69.3339 142.563 68.1339 137.46 68.0339C133.459 67.9339 131.958 66.3339 131.958 62.2339C131.958 58.5339 133.359 57.5339 140.162 56.4339C143.463 55.9339 144.163 55.2339 146.064 51.1339C149.365 43.6339 149.465 40.9339 146.564 37.0339C143.363 32.7339 143.363 32.8339 146.464 29.5339C149.465 26.3339 150.266 26.3339 154.368 29.4339C158.369 32.4339 158.969 32.5339 165.972 29.8339C172.375 27.4339 173.976 25.7339 173.976 21.3339C173.976 19.5339 174.676 17.3339 175.576 16.5339C177.377 14.6339 182.079 14.4339 183.78 16.1339Z"/>
<path d="M168.874 41.9338C161.37 45.9338 156.969 53.5338 156.969 62.6338C156.969 73.2338 163.071 81.2338 173.376 84.5338C183.18 87.6338 192.784 84.0338 198.786 75.0338C206.289 63.6338 202.188 48.1338 189.883 41.9338C184.68 39.2338 173.876 39.2338 168.874 41.9338ZM188.082 49.2338C192.784 52.3338 196.285 59.6338 195.385 64.3338C193.284 76.0338 180.679 81.9338 171.175 75.7338C157.969 66.9338 163.872 46.9338 179.578 46.9338C183.18 46.9338 185.681 47.6338 188.082 49.2338Z"/>
<path d="M114.351 40.3338C114.051 41.1338 113.951 42.8338 114.151 44.1338C114.451 46.3338 114.951 46.4338 123.054 46.7338L131.758 47.0338L132.158 43.4338C132.358 41.4338 132.358 39.6338 132.058 39.4338C131.858 39.1338 127.856 38.9338 123.254 38.9338C116.952 38.9338 114.751 39.2338 114.351 40.3338Z"/>
<path d="M132.958 121.134V124.434L148.165 124.234L163.371 124.034V121.234V118.434L148.165 118.134L132.958 117.834V121.134Z"/>
<path d="M132.958 136.434V139.934H148.365H163.771L163.471 136.634L163.271 133.434L148.065 133.134L132.958 132.834V136.434Z"/>
</svg>
