<svg width="172" height="229" viewBox="0 0 172 229" fill="none" xmlns="http://www.w3.org/2000/svg">
<path d="M64.328 8.09999C53.928 12.5 42.428 17.2 38.828 18.7C21.528 25.6 20.828 27.4 33.328 32.1C41.728 35.2 42.128 35.6 41.428 41C40.128 49.8 37.928 81.4 38.528 82.3C38.828 82.8 37.728 84.6 36.028 86.3C34.428 88.1 32.528 90.6 31.828 91.8C30.228 95.1 30.328 102.2 32.228 105.8C33.928 109.2 38.728 113 41.228 113C42.128 113 43.428 114.2 44.028 115.7C48.528 126.6 50.428 129.8 55.828 135.5C61.928 141.8 61.928 141.8 60.928 145.7C59.528 151 55.828 153.4 46.328 155.4C34.028 158 25.228 162.8 16.628 171.9C3.42803 185.6 -0.371967 195.8 0.0280334 215.6L0.328033 228.5H85.828H171.328L171.628 216C171.828 206.8 171.528 201.9 170.328 197.5C164.528 176.4 145.928 159.3 123.828 154.9C115.628 153.2 112.128 150.7 110.728 145.7C109.728 141.8 109.728 141.8 115.828 135.5C121.228 129.8 123.128 126.6 127.628 115.7C128.328 114.1 129.528 113 130.628 113C131.728 113 133.728 112.1 135.228 110.9C142.928 104.9 143.028 93.1 135.428 86.1C134.028 84.8 133.128 83.4 133.328 83C133.828 82.2 131.228 46.1 130.228 39.9C129.728 36.8 129.928 36 131.628 35.1C134.928 33.4 137.728 33.8 140.328 36.5C143.428 39.5 143.528 42.3 140.628 45C138.928 46.5 138.228 48.7 137.728 53.8C137.328 57.5 136.628 62.8 136.328 65.6C135.628 70.4 135.728 70.7 137.928 71.3C141.028 72.2 147.728 72.2 151.828 71.3L155.128 70.7L154.428 65.1C152.628 49.7 152.028 46.6 150.628 45.6C149.828 45 148.928 42.5 148.528 40.2C148.228 37.7 147.028 34.8 145.728 33.4C143.628 31.2 143.628 30.9 145.128 29.2C148.528 25.5 147.528 24.7 132.628 18.6C128.028 16.7 116.128 11.8 106.128 7.59999C96.128 3.39999 86.928 0 85.628 0C84.328 0.0999908 74.828 3.7 64.328 8.09999ZM110.228 15.6C122.928 20.9 133.728 25.6 134.228 26C134.728 26.5 134.028 27.4 132.428 28.1C130.628 29 129.428 29 129.028 28.4C128.128 27.1 126.428 26.4 114.828 23.2C106.128 20.8 103.728 20.6 86.828 20.6C67.228 20.6 57.828 22.1 46.128 27.1C42.228 28.8 40.928 28.9 38.828 27.9C36.728 26.9 36.528 26.6 37.928 25.8C40.828 23.9 83.328 6.2 85.228 6.09999C86.328 6.09999 97.528 10.3 110.228 15.6ZM105.928 27.4C110.028 28.2 115.928 29.7 118.928 30.7L124.328 32.5L125.528 50C126.128 59.6 126.928 69.2 127.228 71.3C128.028 76.2 126.928 76.6 116.528 74.7C104.628 72.4 98.128 71.8 85.328 71.9C72.928 71.9 69.128 72.2 55.028 74.7C49.428 75.7 45.428 76 44.828 75.4C44.328 74.9 44.328 71.6 44.828 67.5C45.228 63.6 45.928 54.6 46.328 47.5C46.728 40.3 47.528 34 48.028 33.3C49.228 31.9 57.828 29.2 66.828 27.5C76.028 25.7 96.828 25.7 105.928 27.4ZM147.928 61.4C148.828 64.8 148.328 66 146.028 66C142.828 66 141.728 64.5 142.428 61.1C143.328 56.9 146.828 57.1 147.928 61.4ZM110.528 79C114.528 80.2 114.828 80.5 116.828 86.9C118.028 90.5 119.828 94.8 121.028 96.4C124.228 100.8 123.228 112.7 118.928 121.4C113.228 132.9 95.128 147 85.828 147C80.728 147 70.328 141.3 62.828 134.3C53.328 125.5 49.628 118 49.028 106.4C48.628 99.3 48.828 97.7 50.228 96.7C51.128 96 52.628 92.1 53.628 88.1C55.528 79.8 55.328 80 66.828 78C74.028 76.8 105.128 77.5 110.528 79ZM48.428 86.2C47.528 91.5 46.728 92.9 45.728 90.4C44.528 87.4 44.728 83.2 46.128 82.7C48.728 81.6 49.028 82.1 48.428 86.2ZM126.828 83.5C128.128 85 127.328 90.5 125.728 91.5C124.828 92.1 123.428 89.3 122.228 84.5C121.728 82.5 122.028 82 123.628 82C124.728 82 126.128 82.7 126.828 83.5ZM41.128 95.1C43.328 99 43.428 107 41.328 107C37.928 107 35.528 99.6 37.228 94.2C38.228 91.2 39.028 91.4 41.128 95.1ZM135.028 98.3C135.028 102.4 133.528 105.6 130.828 107C128.928 108 128.828 107.7 128.828 102.7C128.828 99.1 129.328 96.8 130.328 96C131.128 95.3 131.828 94 131.828 93.2C131.828 91.7 131.928 91.7 133.428 93.2C134.328 94.1 135.028 96.3 135.028 98.3ZM85.828 152C90.928 152 93.628 151.4 98.528 149.1C104.528 146.2 104.728 146.2 105.328 148.1C105.728 149.2 105.828 150.3 105.628 150.4C105.528 150.6 100.928 153.8 95.628 157.4L85.828 164.2L76.128 157.4C70.728 153.8 66.128 150.6 66.028 150.4C65.828 150.3 65.928 149.2 66.328 148.1C66.928 146.2 67.128 146.2 73.128 149.1C78.028 151.4 80.728 152 85.828 152ZM72.128 161.7C76.328 164.7 79.828 167.7 79.828 168.4C79.828 170.3 72.128 177.3 70.628 176.7C69.928 176.5 66.928 172.1 64.028 167C59.228 158.4 58.928 157.6 60.528 156.5C62.628 155 62.028 154.7 72.128 161.7ZM112.628 158C110.528 162.6 102.028 176.4 101.028 176.8C99.528 177.3 91.828 170.3 91.828 168.3C91.828 167.7 95.728 164.4 100.428 161.1C107.828 155.9 109.328 155.3 110.928 156.3C111.928 156.9 112.728 157.7 112.628 158ZM55.528 164.2C57.128 166.6 60.628 172.2 63.328 176.7C66.128 181.5 68.928 185 69.828 185C70.628 185 74.328 182.3 78.028 179C81.628 175.7 85.228 173 86.028 173C86.728 173 90.028 175.7 93.328 179C96.828 182.6 100.128 185 101.328 185C103.028 185 104.928 182.5 109.728 174.5C113.128 168.8 116.728 163.1 117.728 161.8L119.528 159.6L125.928 161.4C140.928 165.5 155.228 177.1 161.828 190.5C165.128 197.2 165.328 198.1 165.628 210.2L166.028 223H151.928H137.828V211.2C137.828 198.7 137.028 196.3 133.628 198.1C132.028 199 131.828 200.4 131.828 211V223H85.828H39.828V211C39.828 200.4 39.628 199 38.028 198.1C34.628 196.3 33.828 198.7 33.828 211.2V223H19.728H5.62803L6.02803 210.7C6.42803 200.2 6.82803 197.7 9.02803 192.8C15.828 178 28.328 166.8 43.628 161.9C51.728 159.4 52.428 159.5 55.528 164.2Z" fill="#ECECEC"/>
</svg>
