<svg width="444" height="444" viewBox="0 0 444 444" fill="#fff" xmlns="http://www.w3.org/2000/svg">
<path d="M214 18.5V26H221H228V18.5V11H221H214V18.5Z" />
<path d="M186.5 18.1C183.8 19.2 181.1 20.5 180.7 20.9C179.9 21.7 183.3 31.7 184.9 33.3C185.6 34 195.4 30.6 197.3 29C198.1 28.3 193.6 16.7 192.4 16.3C191.9 16.2 189.3 17 186.5 18.1Z" />
<path d="M248.1 18.2C247.6 19.5 246.5 22.3 245.6 24.4C243.7 28.9 243.8 29.1 250 31.5C252.5 32.4 255.1 33.4 255.7 33.7C256.5 34 257.7 32.5 258.8 29.9C262.6 21.1 262.6 21.2 257.8 19.1C249.8 15.7 249.1 15.6 248.1 18.2Z" />
<path d="M156 38.5L151.6 43L156.3 47.8L161 52.5L165.7 47.8L170.4 43L166 38.5C163.6 36 161.3 34 161 34C160.7 34 158.4 36 156 38.5Z" />
<path d="M275 38.6L270.5 43.1L275.2 47.6C277.8 50 280.3 52 280.7 52C281.2 52 283.6 50 286 47.5L290.4 43L286 38.5C283.6 36 281.1 34 280.5 34C279.9 34 277.4 36 275 38.6Z" />
<path d="M212.4 47C197.7 49 185.6 55.4 174.7 67C163.8 78.5 158 93 158 108.7V117H110.6C59.2 117 60.8 116.8 59.5 122.3C59 124.5 38 305.4 38 307.6C38 308.3 40.1 311.4 42.6 314.6C49.2 323 52.1 329.7 52.7 338.3C53.6 350.3 50.2 360.3 42.2 369.2C37.9 374 37 379 39.9 381.9L42 384H119.8C206.2 384 204.3 384.1 215.3 377.4L221 373.9L226.8 377.4C235.9 383 241.6 384 264.2 384H283.9L284.2 407.1C284.5 428.6 284.6 430.3 286.4 431.6C287.5 432.4 289.8 433 291.5 433C294.2 433 296.4 431.2 307.1 420.4L319.5 407.9L331.7 420.4C342.5 431.6 344.3 433 347.2 433C354.4 433 355 430.7 355 404.9V384H377.5C399.1 384 400.1 383.9 402.1 381.9C405 379 404.1 374 399.8 369.2C391.8 360.3 388.4 350.3 389.3 338.3C389.9 329.7 392.8 323 399.4 314.6C401.9 311.4 404 308.3 404 307.6C404 305.4 383 124.5 382.5 122.3C381.2 116.8 382.8 117 331.4 117H284V108.7C284 93.2 278.2 78.6 267.7 67.3C252.8 51.4 233.3 44.3 212.4 47ZM233.6 62.4C241.6 64.5 248.9 68.9 255.6 75.5C275.7 95.3 274.5 126.1 252.9 146.8L247.6 151.9L246.6 166L245.6 180H236.8H228V160.2L227.9 140.5L237.7 131.3L247.5 122.1L242.2 116.8L236.9 111.5L228.9 119.9L221 128.3L213.1 119.9L205.1 111.5L199.8 116.8L194.5 122.1L204.3 131.3L214.1 140.5L214 160.2V180H205.2H196.4L195.4 165.9L194.4 151.8L190 147.7C167.5 126.7 165.9 95.9 186.4 75.4C192.5 69.3 199.7 64.9 207.5 62.4C212.9 60.7 227.3 60.7 233.6 62.4ZM165 138.9C167.3 143.3 171.7 149.7 174.9 153.2L180.6 159.5L182.9 185C184.1 199 185.6 213.6 186.2 217.5C188.2 231.3 195.3 241.5 206.8 247.1C210.6 249 213.2 249.4 220.5 249.5C228.3 249.5 230.2 249.1 235 246.8C241.8 243.5 249.1 236.6 252.1 230.9C255 225.1 256.4 216 259.1 185.5L261.4 159.5L267.1 153.2C270.3 149.7 274.7 143.3 277 138.9L281.1 131H325.3H369.5L378.8 213.3C384 258.5 388.4 296.3 388.6 297.2C389.1 298.8 384.1 298.9 315.3 299.2C241.7 299.6 241.5 299.6 235.5 301.8C232.2 303 227.6 305.4 225.3 307.1L221 310.1L216.8 307.1C214.4 305.4 209.8 303 206.5 301.8C200.5 299.6 200.3 299.6 126.7 299.2C57.9 298.9 52.9 298.8 53.4 297.2C53.6 296.3 58 258.5 63.2 213.3L72.5 131H116.7H160.9L165 138.9ZM243.6 197.1C243.3 198.8 243 202 243 204.1V208H221H199V204.1C199 202 198.7 198.8 198.4 197.1L197.8 194H221H244.3L243.6 197.1ZM240 222.6C240 222.9 238.6 225.2 236.9 227.7C230.2 237.3 215.9 238.8 207.2 230.7C205 228.7 202 223.9 202 222.5C202 222.2 210.6 222 221 222C231.5 222 240 222.3 240 222.6ZM204 316.1C206.5 317.2 210.6 320.2 213.2 322.7C219.6 329 222.4 329 228.8 322.7C238.2 313.5 232.9 314 312.4 314C367.9 314 382.1 314.3 381.7 315.2C375.4 329.4 375.5 329 375.6 341.5C375.6 353.6 376 355.4 381.5 368.2C382.2 369.9 381.2 370 368.6 370H355V352.6C355 335.7 354.3 330.4 351.7 328.8C351 328.4 329.2 328 303.3 328H256V335V342H270H284V356.1V370.2L262.8 369.8C238.6 369.4 237.2 369 228 360.4C225.3 357.8 222.3 356 221 356C219.7 356 216.7 357.9 213.8 360.6C211.1 363.1 206.8 366.1 204.2 367.3C199.5 369.5 199 369.5 129.8 369.8C91.4 369.9 60 369.7 60 369.3C60 368.9 61.2 365.7 62.7 362.2L65.4 356H125.7H186V349V342H126.6H67.3L66.7 335.5C66.2 330.1 64.5 324.6 60.3 315.2C59.9 314.3 74.1 314 129.6 314C197.7 314 199.6 314.1 204 316.1ZM340 375.2V408.4L331.1 399.7C322.3 391 319.7 389.7 316 392C315.2 392.5 310.8 396.6 306.3 401.2L298 409.5V375.7V342H319H340V375.2Z" />
<path d="M89.7 146.7C87.5 149.2 87.3 150.1 83.5 184.7C80 216.6 80 220 83.5 221.4C84.4 221.7 100.6 222 119.4 222C147.4 222 154 221.7 155.6 220.6C157.4 219.2 157.5 217.6 157.5 183.5C157.5 149.4 157.4 147.8 155.6 146.4C154 145.3 147.8 145 122.5 145C94.1 145 91.2 145.2 89.7 146.7ZM144 183.5V208H119.7H95.4L98.1 183.7C99.6 170.4 100.9 159.4 100.9 159.2C101 159.1 110.7 159 122.5 159H144V183.5Z" />
<path d="M284 159V166H319.5H355V159V152H319.5H284V159Z" />
<path d="M277 187V194H284H291V187V180H284H277V187Z" />
<path d="M305 187V194H333.5H362V187V180H333.5H305V187Z" />
<path d="M270 215V222H288H306.1L305.8 215.2L305.5 208.5L287.8 208.2L270 208V215Z" />
<path d="M319.7 208.7C319.3 209 319 212.2 319 215.7V222H340.5H362V215V208H341.2C329.7 208 320 208.3 319.7 208.7Z" />
<path d="M80.4 237.3C80.1 238.1 80 241.4 80.2 244.6L80.5 250.5H101.5H122.5V243.5V236.5L101.7 236.2C84.8 236 80.9 236.2 80.4 237.3Z" />
<path d="M137 243.5V251.1L143.8 250.8L150.5 250.5L150.8 243.2L151.1 236H144H137V243.5Z" />
<path d="M263.2 243.2L263.5 250.5H302H340.5V243.5V236.5L301.7 236.2L262.9 236L263.2 243.2Z" />
<path d="M354.4 237.4C354.1 238.1 354 241.4 354.2 244.6L354.5 250.5H361.5H368.5L368.8 243.2L369.1 236H362C357 236 354.8 236.4 354.4 237.4Z" />
<path d="M73.4 265.3C73.1 266.1 73 269.4 73.2 272.6L73.5 278.5H105H136.5V271.5V264.5L105.2 264.2C79.4 264 73.9 264.2 73.4 265.3Z" />
<path d="M151 271.5V279L168.3 278.8L185.5 278.5V271.5V264.5L168.3 264.2L151 264V271.5Z" />
<path d="M249.4 265.3C249.1 266.1 249 269.4 249.2 272.6L249.5 278.5H284.5H319.5V271.5V264.5L284.7 264.2C256 264 249.9 264.2 249.4 265.3Z" />
<path d="M333.4 265.3C333.1 266.1 333 269.4 333.2 272.6L333.5 278.5H351H368.5V271.5V264.5L351.2 264.2C337.2 264 333.9 264.2 333.4 265.3Z" />
<path d="M138.1 64.2C137.6 65.5 136.5 68.3 135.6 70.4C134.7 72.6 134.1 74.4 134.2 74.6C134.4 74.7 137.3 75.9 140.8 77.4L147.1 79.9L149.1 75.4C152.8 66.6 152.8 66.6 146.5 64.2C139.5 61.5 139.1 61.5 138.1 64.2Z" />
<path d="M295.2 64.2C289.2 66.6 289.2 66.7 292.9 75.4L294.9 79.9L301.2 77.4C304.7 75.9 307.6 74.7 307.7 74.6C308.5 73.9 303 62.5 301.8 62.3C301.1 62.2 298.1 63.1 295.2 64.2Z" />
</svg>
