<svg width="524" height="508" viewBox="0 0 524 508" fill="#15C196" xmlns="http://www.w3.org/2000/svg">
<path d="M147.3 0.553703C109.4 3.9537 77.6 18.9537 49.1 46.8537C16.8 78.6537 0 118.054 0 162.354C0 204.054 14.4 240.954 42.7 271.554C62.7 293.254 83.8 307.454 109 316.054C118.4 319.354 136.5 323.554 140.9 323.554C143.4 323.554 143.5 324.154 141.4 329.154C140.4 331.454 139.7 335.954 139.7 340.354C139.7 346.654 140.1 348.454 143.1 354.254C146.8 361.454 153.4 367.554 160 369.754C162.2 370.454 174.3 371.054 192.3 371.254C208.1 371.554 221 371.954 221 372.154C221 372.454 220.2 374.054 219.3 375.854C218.1 378.054 217.6 381.354 217.6 386.554C217.7 398.054 221.7 405.654 230.9 411.554L235.8 414.754L233.7 418.954C231.1 423.754 230.2 434.954 231.9 441.154C233.8 448.154 238.9 453.954 247.4 459.054C249 459.954 248.9 460.354 246.9 464.554C245.7 466.954 244.5 471.754 244.3 475.054C243.4 486.454 250.5 498.654 261.4 504.354L266.5 507.054L320 506.754C379.8 506.354 378 506.554 378 499.754C378 491.954 376.5 491.554 345 491.554H319.1L321.2 486.854C324.9 478.454 322.6 466.454 315.3 456.854L312.9 453.554L315.4 450.254C316.8 448.454 318.8 444.954 319.9 442.554C324.1 433.354 321.7 419.054 314.9 411.954L311.8 408.754L314.5 406.154C315.9 404.754 318.2 401.154 319.5 398.254C325.9 384.754 319.7 366.854 306 359.154L300.5 356.054L232.5 355.554C169.9 355.054 164.2 354.954 161.3 353.254C151.9 348.154 151.7 334.254 160.9 327.954L164.5 325.554H213.4H262.4L265.7 328.754C269.7 332.654 274.9 332.954 278.4 329.654C279.6 328.454 281 327.554 281.4 327.554C281.8 327.554 297.6 342.754 316.6 361.254C340 384.254 352.5 395.754 355.7 397.454C362.1 400.654 372.8 401.454 379.6 399.154C382.3 398.254 386.7 395.754 389.5 393.654L394.4 389.654L399.1 393.054C411.1 401.954 429.9 407.954 450.8 409.454C460.7 410.254 464 410.154 466.5 409.154C470.2 407.554 471.5 404.054 470 400.154C468.7 396.654 466.1 395.554 459.3 395.554C438.3 395.554 416.4 389.154 404.8 379.554C401.4 376.754 401.2 376.254 400.9 369.354C400.3 358.254 397.1 352.654 382.7 337.854L370.7 325.554H380.1C394.7 325.554 399 323.654 399 317.254C399 315.954 398 313.954 396.7 312.754C394.5 310.654 393.5 310.554 374.9 310.554H355.5L341 296.054L326.5 281.554H377.5C436.3 281.554 442.5 282.054 452.6 287.054C458.6 289.954 461.7 292.554 471.7 303.054L483.7 315.554H496.3H509V387.054V458.554H495.8H482.5L471.4 467.954C449.6 486.454 440.2 490.554 418.5 491.254C402.9 491.654 399.5 492.154 397.5 494.154C395.3 496.354 395.6 502.154 398 504.554C399.8 506.354 401.3 506.554 411.8 506.554C425.4 506.454 435.7 504.854 445.4 501.154C455.1 497.454 460.5 494.154 475.9 482.654L489.3 472.554H504.7C518.7 472.554 520.2 472.354 522 470.554C524 468.554 524 467.254 524 386.754C524 308.654 523.9 304.754 522.2 303.254C520.6 301.854 517.9 301.554 505.2 301.554H490L478.3 289.754C465.1 276.554 459.2 272.754 446.4 269.554C439.2 267.654 435.2 267.554 384.1 267.554H329.5L317.2 255.254C310.5 248.554 305 242.654 305 242.254C305 241.754 307 236.854 309.4 231.254C311.8 225.654 314.6 218.454 315.6 215.154C316.6 211.954 317.9 209.154 318.6 208.854C319.2 208.654 327.6 211.854 337.3 216.054L354.9 223.654L396.8 223.354L438.8 223.054L441.6 220.554C443.1 219.154 446.4 213.554 449.1 208.054C455.6 194.454 467.2 162.954 466.8 160.054C466.5 157.854 419.5 99.1537 413.8 93.8537C410.2 90.4537 372.3 71.6537 357.3 65.7537C336.8 57.6537 323.9 54.4537 309 53.8537C298.5 53.4537 295.7 53.6537 291.1 55.2537L285.8 57.1537L274.1 45.6537C267.7 39.2537 258.5 31.1537 253.5 27.6537C242.9 20.2537 224 10.8537 212 7.0537C194.1 1.4537 167.1 -1.2463 147.3 0.553703ZM191 17.0537C210.8 21.3537 232.3 30.7537 248.2 42.2537C278.9 64.3537 302.1 101.354 308.4 138.454C310.2 149.154 310.5 172.054 309 181.154C304.9 204.654 302 214.654 294.8 229.054C279.1 260.354 247.7 288.754 215.5 300.854C178.3 314.954 132.6 313.054 97.8 296.054C69.4 282.154 44.1 257.454 30.3 230.054C19.5 208.754 16 194.454 15.3 168.554C14.9 154.554 15.2 147.454 16.3 139.554C21.1 107.754 35.3 80.2537 59.1 56.8537C82.5 33.9537 107.2 21.3537 139.5 15.9537C150.2 14.1537 180.7 14.8537 191 17.0537ZM317.7 69.0537C335.3 71.9537 357.4 80.2537 386.5 95.0537L404.5 104.154L424.3 128.154C435.1 141.254 445.9 154.454 448.1 157.254L452.2 162.554L446 178.754C436.1 204.254 434.5 207.854 431.9 208.854C430.6 209.354 412.9 209.554 392.5 209.354L355.5 208.954L339.5 201.654C330.7 197.554 323.2 194.054 322.8 193.654C322.4 193.354 322.7 188.754 323.5 183.554C326.9 161.554 324.4 136.554 316.3 111.054C313.3 101.554 307.8 89.7537 301.1 78.6537C298.3 74.0537 296 69.8537 296 69.4537C296 67.3537 305.8 67.1537 317.7 69.0537ZM306 264.054L314.6 272.654L294.1 293.654C282.8 305.154 273.1 314.554 272.5 314.554C271.2 314.554 255 298.354 255 296.954C255 296.354 257.1 294.354 259.8 292.554C266.1 288.054 280.6 273.954 289.2 263.754C293.1 259.254 296.5 255.554 296.8 255.554C297.2 255.554 301.3 259.354 306 264.054ZM348.2 324.254C386.6 362.754 387 363.254 387 369.254C387 379.954 377.4 387.754 366.1 386.054C361.7 385.454 360.3 384.254 326.7 350.754L292 316.054L303.7 304.354C310.2 297.854 315.7 292.554 316 292.554C316.3 292.554 330.8 306.854 348.2 324.254ZM244.5 307.554L247.4 310.554H239C234.4 310.554 230.9 310.354 231.2 310.054C231.8 309.454 240.4 304.754 241.1 304.654C241.4 304.554 242.9 305.854 244.5 307.554ZM300.1 373.054C304.4 375.354 307 380.154 307 385.854C307 391.254 305.4 394.854 301.5 398.554L298.8 401.054L270.6 401.354C242.6 401.654 242.4 401.654 239 399.354C230 393.354 229.7 379.354 238.5 373.554C241.3 371.654 243.3 371.554 269.3 371.554C292.5 371.554 297.6 371.854 300.1 373.054ZM300.1 418.054C304.6 420.454 307 425.054 307 431.554C307 435.254 306.4 438.154 305 440.254C301.5 446.054 299.4 446.554 276.3 446.554C255.8 446.554 255.4 446.554 251.8 444.054C242.9 438.054 243.2 424.054 252.3 418.554C255.2 416.754 257.4 416.554 276.3 416.554C293.1 416.554 297.7 416.854 300.1 418.054ZM301 463.454C305.8 465.954 308.4 470.754 308.5 477.154C308.5 482.854 306.7 486.154 301.6 489.954C299.2 491.754 297.2 492.054 284.2 492.354C270.8 492.654 269.2 492.454 266.2 490.654C256.5 484.454 256.5 469.554 266.2 463.554C269.1 461.854 271.3 461.554 283.5 461.554C295.3 461.554 298.1 461.854 301 463.454Z" />
<path d="M145.5 40.9537C134 42.6537 123.7 45.4537 113.2 49.9537C102.9 54.2537 98 57.8537 98 61.0537C98 64.0537 102.6 69.5537 105.1 69.5537C106.2 69.5537 110.3 67.9537 114.3 65.9537C129.6 58.2537 145.1 54.5537 162.5 54.5537C186.1 54.5537 207.5 61.3537 225.6 74.5537L231.9 79.1537L225.7 85.8537L219.5 92.5537L202 98.7537C184.6 104.954 184.4 105.054 161.5 120.054C148.6 128.554 129.2 140.154 117.2 146.554C105.5 152.754 95.4 158.754 94.9 159.754C94.2 161.054 95.9 166.854 102 183.754C111.5 209.654 112.3 211.354 115.3 212.054C125.3 214.154 196.8 224.554 198.6 224.154C202.8 223.054 204.9 215.054 201.9 211.954C200.9 211.054 187.6 208.554 162.1 204.654C139.5 201.154 123.4 198.254 123 197.554C121.6 195.354 110.7 166.554 111.1 166.154C111.9 165.454 146.9 146.554 147.5 146.554C147.8 146.554 157.6 140.154 169.3 132.254C190.4 118.054 190.5 118.054 209.5 111.054L228.5 104.054L235 96.9537C238.6 92.9537 242 89.7537 242.5 89.6537C243.8 89.5537 251.7 100.154 256.3 108.154C270.1 131.754 273.8 161.054 266.8 190.554C264.7 199.554 264.3 200.554 262 201.054C260.6 201.254 252.1 202.454 243 203.654C233.9 204.854 225.1 206.354 223.4 207.054C219.8 208.554 218.5 212.054 220 215.954C221.8 220.654 224.3 221.054 240.5 218.554C248.6 217.354 255.4 216.654 255.7 216.954C256.7 217.954 245.9 232.354 238.7 239.354C221.2 256.854 202.2 266.654 179.3 270.054C141.5 275.754 105.6 262.754 81.5 234.754C65.2 215.954 56.9 196.454 55.2 172.954C52.7 138.954 61.6 112.554 83.9 87.5537C88.6 82.2537 89 79.7537 85.4 76.1537C81.6 72.4537 78.8 72.8537 73.9 77.7537C62.5 89.4537 50.6 109.354 45.7 125.054C37.6 150.954 38.5 183.254 48.1 207.454C58.9 234.954 82.3 260.554 108.8 273.954C134.4 286.954 173 289.454 200.9 279.854C219.2 273.654 238.8 261.054 252.2 246.654C270.7 226.854 281.8 202.054 285.1 173.054C287.7 149.954 281.4 122.254 268.6 100.554C263.5 91.8537 252 77.3537 248.3 74.7537C246.9 73.8537 243.9 71.4537 241.6 69.4537C230.3 59.6537 213.4 49.9537 200 45.7537C183.7 40.5537 161.7 38.5537 145.5 40.9537Z" />
</svg>
