<svg width="525" height="524" viewBox="0 0 525 524" fill="#15C196" xmlns="http://www.w3.org/2000/svg">
<path d="M72.0198 1.45915C70.2198 2.35915 67.0198 7.75915 59.8198 22.3592C51.1198 40.0592 49.9198 42.0592 47.3198 42.5592C45.8198 42.8592 36.6198 44.0592 27.0198 45.2592C17.4198 46.3592 8.21983 48.0592 6.71983 48.8592C3.51983 50.4592 0.719827 56.0592 1.61983 58.8592C2.01983 59.8592 9.41983 67.8592 18.1198 76.6592L33.9198 92.6592L30.0198 113.659C26.6198 132.359 26.3198 134.959 27.5198 137.859C29.1198 141.659 34.2198 144.559 38.0198 143.859C39.5198 143.559 48.7198 138.959 58.6198 133.759L76.4198 124.259L95.9198 134.259C117.02 145.159 118.02 145.459 123.32 140.359C126.82 137.059 126.82 135.059 123.02 111.459L119.92 92.7592L135.52 77.1592C152.02 60.5592 152.62 59.4592 150.02 52.7592C148.52 48.7592 144.02 47.3592 122.62 44.6592C111.62 43.2592 102.62 42.0592 102.52 41.9592C102.42 41.7592 98.2198 33.0592 93.1198 22.5592C82.2198 0.159153 79.6198 -2.34085 72.0198 1.45915ZM83.0198 45.1592C86.4198 51.7592 90.2198 57.9592 91.5198 58.9592C93.2198 60.2592 97.1198 61.2592 104.72 62.0592C122.22 64.0592 121.62 62.9592 110.62 74.0592C105.42 79.3592 100.62 84.9592 100.02 86.4592C99.2198 88.6592 99.5198 92.1592 101.02 101.359C102.22 108.059 103.02 113.959 102.82 114.659C102.62 115.459 98.5198 113.659 91.5198 109.559C83.9198 105.159 79.4198 103.159 77.1198 103.159C74.7198 103.159 69.9198 105.159 61.7198 109.659C55.1198 113.259 49.6198 116.059 49.5198 115.959C49.3198 115.759 50.2198 109.559 51.5198 102.159C53.1198 92.7592 53.5198 87.9592 52.8198 86.2592C52.3198 84.8592 47.6198 79.3592 42.3198 74.0592L32.8198 64.2592L36.1198 63.7592C38.0198 63.4592 44.1198 62.5592 49.8198 61.7592C55.4198 61.0592 60.7198 59.8592 61.5198 59.1592C62.4198 58.4592 66.0198 52.3592 69.6198 45.5592C73.2198 38.7592 76.3198 33.1592 76.5198 33.1592C76.7198 33.1592 79.7198 38.5592 83.0198 45.1592Z" />
<path d="M458.02 15.5593C429.12 23.9593 404.52 31.3593 403.32 31.9593C397.82 34.9593 398.02 32.0593 398.02 104.459C398.02 141.259 397.72 171.159 397.32 170.959C396.82 170.759 393.12 168.959 389.02 166.959C368.82 157.059 347.02 160.559 331.32 176.159C318.12 189.359 312.92 207.859 317.52 225.659C325.02 254.459 356.92 270.259 385.12 259.159C398.82 253.759 411.42 240.059 415.42 226.259C416.82 221.559 417.02 212.859 417.02 163.559V106.259L423.82 104.259C427.52 103.159 449.42 96.8593 472.52 90.1593C495.62 83.5593 515.82 77.5593 517.32 76.9593C518.82 76.3593 521.02 74.7593 522.02 73.3593C523.92 71.0593 524.02 69.1593 524.02 39.5593C524.02 17.4593 523.72 7.45929 522.82 5.65929C521.42 2.55929 517.22 0.159293 513.32 0.259293C511.82 0.259293 486.92 7.15929 458.02 15.5593ZM504.02 41.9593V60.7593L461.22 72.9593C437.72 79.6593 418.12 85.1593 417.72 85.1593C417.32 85.1593 417.02 76.9593 417.02 66.8593V48.6593L459.32 36.0593C482.52 29.0593 502.12 23.3593 502.82 23.2593C503.72 23.1593 504.02 27.5593 504.02 41.9593ZM375.22 182.159C385.52 185.059 395.02 195.659 396.92 206.559C399.52 221.259 392.72 234.259 379.12 240.559C372.42 243.559 359.32 243.559 352.92 240.359C338.62 233.359 332.22 216.959 337.52 201.059C339.82 194.159 348.52 185.259 355.02 182.859C360.22 181.059 369.92 180.759 375.22 182.159Z" />
<path d="M236.52 88.8593C235.42 89.1593 233.52 90.2593 232.32 91.4593C230.22 93.3593 230.02 94.4593 230.02 103.359C230.02 112.759 230.12 113.359 232.62 115.659C236.42 119.159 242.82 119.159 246.42 115.559C248.82 113.059 249.02 112.259 249.02 103.559C249.02 95.3593 248.72 93.9593 246.82 91.7593C244.42 89.2593 240.02 87.9593 236.52 88.8593Z" />
<path d="M195.52 129.859C191.42 130.859 189.02 134.259 189.02 139.059C189.12 146.759 192.52 149.159 203.42 149.159C210.72 149.159 215.62 147.659 217.02 145.159C218.42 142.459 218.22 134.959 216.62 132.859C215.82 131.859 213.72 130.659 211.92 130.159C208.42 129.159 199.12 128.959 195.52 129.859Z" />
<path d="M265.32 130.559C261.42 132.359 259.72 137.359 261.12 142.659C262.42 147.459 266.12 149.159 274.92 149.159C286.32 149.159 289.92 146.859 290.02 139.459C290.02 136.459 289.32 134.459 287.72 132.559C285.52 130.059 284.62 129.759 276.92 129.459C271.12 129.259 267.52 129.559 265.32 130.559Z" />
<path d="M234.52 161.359C230.72 163.559 230.12 165.459 230.02 175.259C230.02 183.359 230.32 185.059 232.02 186.859C236.12 191.359 245.62 190.559 247.92 185.559C249.42 182.159 249.32 166.159 247.72 164.059C244.92 160.359 238.52 159.059 234.52 161.359Z" />
<path d="M221.02 254.759C208.22 258.459 205.02 259.759 202.82 262.259C199.62 265.659 199.42 266.659 201.62 272.159C204.32 278.959 208.92 279.759 221.02 275.659C225.02 274.259 228.72 273.159 229.22 273.159C229.62 273.159 230.02 281.359 230.02 291.459V309.759L187.82 321.959C164.52 328.659 135.72 337.059 123.72 340.559L102.02 346.859L102.22 327.859L102.52 308.859L114.82 305.259C121.52 303.259 127.92 300.859 129.02 299.959C133.22 296.259 130.62 286.259 125.02 284.359C120.52 282.759 87.5198 291.959 84.3198 295.659L82.0198 298.259V365.859V433.359L78.8198 431.159C70.1198 425.459 61.3198 423.059 49.3198 423.059C35.1198 423.159 24.2198 428.059 13.6198 439.159C-5.48018 459.159 -4.38018 491.559 16.2198 510.659C26.9198 520.559 38.9198 524.759 54.0198 523.859C78.3198 522.459 97.0198 505.359 101.02 480.959C101.62 477.259 102.02 452.659 102.02 420.859C102.02 391.359 102.22 367.159 102.52 367.159C103.02 367.159 226.12 331.559 228.82 330.659C229.72 330.359 230.02 336.759 230.02 360.759V391.259L223.52 387.659C214.92 382.759 208.32 381.159 198.02 381.059C169.62 380.959 147.92 402.659 148.02 431.059C148.12 446.259 151.72 455.659 161.72 466.259C177.42 482.859 201.62 486.959 222.32 476.559C229.02 473.159 240.02 462.159 243.42 455.459C249.12 444.059 249.02 446.759 249.02 347.459V256.259L246.72 253.659C243.12 249.359 238.62 249.559 221.02 254.759ZM210.92 403.259C217.02 405.959 224.42 413.359 227.02 419.459C229.52 425.159 229.92 434.859 228.02 440.759C225.12 449.559 217.62 457.259 208.52 460.759C202.22 463.059 191.02 462.359 184.72 459.159C174.12 453.859 167.72 443.359 167.72 431.659C167.72 409.159 190.42 394.159 210.92 403.259ZM57.2198 443.259C68.4198 445.659 78.7198 455.959 81.1198 467.059C83.2198 477.059 80.1198 487.359 72.7198 494.959C66.5198 501.459 61.9198 503.459 52.4198 503.959C45.2198 504.359 43.5198 504.059 38.7198 501.859C31.7198 498.659 25.5198 492.459 22.3198 485.459C20.2198 480.859 19.8198 478.859 20.2198 472.359C20.8198 458.159 29.5198 447.159 43.0198 443.559C48.8198 441.959 50.7198 441.959 57.2198 443.259Z" />
<path d="M159.12 274.259C155.02 278.359 154.92 282.759 158.92 287.059C161.12 289.459 162.72 290.159 165.52 290.159C170.62 290.159 175.02 285.759 175.02 280.659C175.02 277.959 174.22 276.259 172.12 274.059C168.02 270.059 163.22 270.059 159.12 274.259Z" />
<path d="M400.52 299.959C396.72 300.759 394.72 303.759 382.92 327.359C376.32 340.459 370.52 351.159 369.92 351.159C365.12 351.159 320.32 358.459 318.12 359.659C316.52 360.459 314.72 362.359 314.02 364.059C311.62 369.959 313.02 371.959 332.92 391.459L351.72 409.759L347.42 435.759C342.42 465.359 342.42 466.159 349.52 469.259C351.92 470.359 354.62 470.859 356.12 470.459C357.42 470.059 368.12 464.659 379.92 458.359C391.72 451.959 401.92 446.859 402.52 446.859C403.12 446.859 413.42 452.059 425.42 458.559C437.32 464.959 448.52 470.459 450.12 470.859C453.82 471.559 457.62 469.159 459.62 464.859C460.92 461.859 460.72 459.659 456.62 435.659L452.22 409.659L471.52 390.859C485.12 377.659 491.02 371.259 491.52 369.159C492.32 365.359 489.92 360.759 486.12 359.259C484.52 358.559 471.82 356.359 458.02 354.359L432.72 350.659L421.82 327.659C415.82 315.059 410.02 303.659 408.92 302.559C406.72 300.259 403.82 299.359 400.52 299.959ZM411.52 350.259C419.02 365.159 420.52 367.459 423.32 368.559C425.12 369.259 434.02 370.959 443.32 372.259C452.52 373.559 460.02 374.859 460.02 375.259C460.02 375.559 454.22 381.159 447.02 387.659C437.92 395.959 433.82 400.359 433.22 402.559C432.62 404.659 433.12 411.159 435.02 423.659C436.52 433.559 437.72 441.759 437.52 441.959C437.42 442.159 429.32 438.359 419.62 433.459L402.02 424.659L384.42 433.459C374.72 438.359 366.62 442.159 366.52 441.959C366.32 441.759 367.52 434.459 369.12 425.659C373.62 401.159 374.42 404.059 358.32 388.559C350.72 381.259 344.72 375.159 345.02 374.859C345.32 374.659 353.42 373.359 362.92 371.859C375.02 370.059 381.22 368.659 382.92 367.459C384.52 366.359 388.82 359.059 393.82 349.359C398.32 340.459 402.32 333.159 402.52 333.159C402.82 333.159 406.82 340.859 411.52 350.259Z" />
</svg>
