<svg width="520" height="524" viewBox="0 0 520 524" fill="#fff" xmlns="http://www.w3.org/2000/svg">
<path d="M232.539 0.913019C177.739 6.11302 129.639 28.213 85.0392 68.513C37.3392 111.713 10.3392 162.713 1.33924 226.813C-0.660757 241.413 -0.360757 286.313 1.83924 300.813C10.7392 358.613 35.0392 405.213 79.0392 449.313C117.739 488.013 167.239 512.713 224.039 521.413C242.239 524.213 285.739 524.013 305.039 521.013C335.039 516.313 358.239 509.113 384.039 496.313C411.139 482.913 429.239 469.913 450.239 448.613C478.039 420.613 496.839 390.513 508.039 356.413C516.539 330.713 520.139 306.013 519.239 280.813C518.239 256.613 513.339 236.613 503.439 217.813C497.039 205.513 490.639 197.113 480.539 187.513C464.039 171.613 444.739 161.613 417.039 154.513L412.139 153.313L427.539 142.313C474.939 108.813 505.639 79.513 514.639 59.113C519.239 48.813 516.839 37.313 509.139 32.013C504.139 28.613 499.939 27.713 489.039 27.713C476.539 27.613 463.339 30.313 442.539 37.013C396.439 51.913 353.339 72.213 294.239 106.913L279.039 115.713L277.339 110.513C276.439 107.613 275.639 102.113 275.639 98.213C275.539 86.513 279.239 76.813 289.439 62.313C296.339 52.513 298.439 46.513 298.539 37.113C298.539 18.913 286.039 4.21302 267.639 0.813019C261.439 -0.286981 244.939 -0.286981 232.539 0.913019ZM265.839 21.013C274.539 23.613 280.839 33.413 278.739 41.113C278.239 42.913 274.939 48.713 271.339 53.913C259.639 71.013 255.539 83.113 255.639 99.713C255.639 108.313 256.739 114.313 260.039 124.413C260.639 126.313 258.539 128.013 242.939 138.813C213.539 159.013 193.639 174.513 173.239 193.013C166.339 199.313 165.639 199.713 162.739 198.913C148.439 194.813 131.039 198.213 119.439 207.513C113.539 212.113 105.839 221.513 97.7392 233.813C89.5392 246.213 68.5392 286.313 68.5392 289.513C68.5392 292.113 72.1392 296.713 75.0392 297.813C79.8392 299.613 121.439 301.013 137.339 299.913C164.539 298.013 174.439 294.913 184.639 285.113C191.439 278.613 194.839 273.413 198.039 264.513L200.239 258.613L211.139 255.213C224.239 251.313 242.039 244.713 257.039 238.313C291.239 223.713 341.839 197.913 368.039 181.613L384.039 171.713L395.039 172.113C422.739 173.313 446.839 182.713 464.439 199.213C480.639 214.513 493.939 240.913 498.039 266.013C499.739 276.713 500.039 299.513 498.539 311.813C492.739 359.313 470.239 402.013 430.939 439.813C393.039 476.313 348.639 496.413 292.039 502.813C280.139 504.113 247.839 504.113 235.739 502.713C133.639 491.313 47.2392 414.913 25.0392 316.313C19.2392 290.413 17.9392 250.813 22.0392 222.813C29.3392 172.313 52.2392 128.013 90.3392 90.413C136.439 44.813 191.439 20.613 250.439 19.913C256.839 19.913 263.539 20.313 265.839 21.013ZM494.439 46.413C497.339 47.013 497.639 47.413 497.039 49.713C494.739 59.413 469.939 84.913 439.539 109.013C416.539 127.213 387.439 147.013 360.039 163.013C325.139 183.413 295.839 199.213 295.139 198.013C294.939 197.613 292.739 192.313 290.139 186.213C285.339 174.713 277.839 161.913 270.539 152.713C267.239 148.513 266.639 147.313 267.739 146.313C272.139 142.413 325.439 111.113 350.039 98.013C411.339 65.513 475.339 42.613 494.439 46.413ZM261.639 174.613C266.739 182.013 270.639 189.613 275.039 201.313L277.439 207.813L274.239 209.213C272.439 209.913 266.739 212.513 261.539 214.813C246.339 221.613 228.139 228.613 213.739 233.413C206.439 235.813 200.239 237.813 200.139 237.813C199.939 237.813 199.239 235.913 198.539 233.513C196.539 226.813 192.739 220.013 188.239 215.113L184.039 210.613L188.539 206.613C191.039 204.413 198.239 198.313 204.539 192.913C214.639 184.513 221.639 179.113 244.039 162.513L249.039 158.913L252.739 163.113C254.839 165.413 258.839 170.613 261.639 174.613ZM160.739 219.213C168.839 222.513 173.739 226.813 177.539 233.913C186.539 250.813 177.339 271.613 158.239 277.313C150.139 279.713 128.539 281.113 111.039 280.313C102.239 280.013 94.9392 279.513 94.7392 279.313C94.0392 278.613 107.839 254.413 115.739 242.713C119.939 236.313 125.939 228.813 129.039 226.013C138.839 217.013 149.739 214.713 160.739 219.213Z" />
<path d="M165.839 65.6129C143.539 73.6129 132.939 99.5129 143.039 121.513C146.039 128.013 155.239 137.413 161.739 140.613C172.139 145.713 186.439 145.513 197.139 140.313C203.839 137.013 212.339 128.513 215.739 121.713C221.039 111.113 221.239 97.3129 216.239 86.6129C212.939 79.3129 204.639 71.2129 196.639 67.4129C190.939 64.8129 188.639 64.3129 180.539 64.1129C173.239 63.8129 169.839 64.2129 165.839 65.6129ZM185.139 84.3129C193.439 86.7129 200.539 95.9129 200.539 104.113C200.539 109.413 195.739 117.813 190.739 121.313C186.939 123.913 185.539 124.313 179.739 124.313C174.239 124.213 172.339 123.813 168.839 121.513C164.239 118.613 159.739 111.813 158.939 106.613C157.539 98.0129 164.639 87.1129 173.439 84.4129C179.339 82.5129 179.239 82.5129 185.139 84.3129Z" />
<path d="M337.239 233.213C332.939 236.513 333.139 247.413 337.539 249.813C340.339 251.313 347.839 251.013 350.239 249.313C354.339 246.413 354.439 237.713 350.539 233.813C348.139 231.413 340.039 231.113 337.239 233.213Z" />
<path d="M424.539 279.213C410.739 283.113 400.439 293.713 396.539 308.013C394.439 316.013 395.639 327.513 399.339 335.113C403.539 343.613 411.239 351.313 419.439 355.213C425.439 358.013 426.939 358.313 436.039 358.313C445.339 358.313 446.539 358.113 452.639 355.113C464.839 349.113 474.939 335.113 476.239 322.413C476.939 315.613 475.139 305.913 471.939 299.613C469.039 293.813 460.839 285.513 455.239 282.613C446.039 277.913 434.039 276.613 424.539 279.213ZM447.739 301.413C464.739 313.213 455.039 340.113 434.439 338.613C427.039 338.113 421.239 334.313 417.739 327.813C415.739 324.013 415.439 322.213 415.739 316.613C416.039 311.013 416.539 309.313 419.139 306.113C426.139 297.313 438.839 295.213 447.739 301.413Z" />
<path d="M339.939 285.913C336.439 286.913 334.139 290.613 333.039 297.313C330.839 309.613 320.839 322.213 307.739 329.113C290.739 338.113 274.039 341.613 257.639 339.813C238.539 337.713 224.939 332.113 211.739 320.913C207.139 317.013 202.539 313.813 201.439 313.813C198.539 313.813 194.039 316.413 191.539 319.513C188.639 323.313 189.639 327.213 195.339 333.213C205.539 343.813 221.139 352.513 237.539 356.913C244.739 358.913 248.639 359.213 263.039 359.213C282.039 359.313 289.939 357.813 305.939 351.513C318.639 346.413 325.139 342.213 334.539 332.813C341.339 326.013 343.939 322.513 347.339 315.813C351.639 307.013 354.439 295.413 353.239 290.813C352.139 286.513 345.739 284.213 339.939 285.913Z" />
<path d="M121.039 340.013C113.239 341.013 105.639 345.013 99.3392 351.213C83.6392 366.813 84.0392 392.613 100.239 408.613C107.039 415.313 112.739 418.313 121.239 419.713C134.539 421.813 146.839 417.713 156.639 407.913C164.739 399.813 167.839 392.913 168.339 381.813C169.039 368.513 165.839 360.313 156.439 351.013C147.439 342.013 135.039 338.113 121.039 340.013ZM139.439 362.513C153.439 371.213 151.439 391.913 136.039 398.913C130.439 401.513 125.739 401.213 119.439 398.013C112.639 394.613 108.739 389.213 107.839 382.113C105.839 364.713 124.339 353.213 139.439 362.513Z" />
<path d="M347.539 380.813C336.839 382.113 327.939 387.513 320.939 397.113C315.239 404.713 313.239 412.013 313.739 422.313C315.239 451.513 345.439 469.913 371.139 457.313C377.739 454.013 386.739 445.313 390.039 438.813C395.739 427.613 395.639 413.513 389.839 402.013C386.939 396.213 378.539 387.913 372.539 384.813C365.739 381.313 356.139 379.813 347.539 380.813ZM359.839 400.913C364.439 402.213 370.739 407.613 372.939 412.213C376.839 420.413 373.639 431.613 365.839 437.513C352.339 447.613 333.539 437.713 333.539 420.313C333.539 410.913 338.239 404.513 347.439 401.213C351.939 399.613 354.939 399.513 359.839 400.913Z" />
<path d="M219.539 402.213C208.439 405.313 199.239 413.113 194.139 423.813C188.439 435.813 189.439 451.713 196.539 462.913C204.039 474.513 214.839 480.913 228.039 481.613C241.339 482.313 251.239 478.313 260.139 468.513C266.339 461.813 269.339 455.613 270.739 447.213C274.839 422.813 255.239 400.613 230.039 400.913C226.739 400.913 222.039 401.513 219.539 402.213ZM242.739 424.413C253.339 431.713 254.339 446.813 244.939 456.213C236.739 464.413 221.939 463.513 215.039 454.413C206.539 443.213 209.839 428.513 222.039 422.613C228.139 419.713 237.239 420.513 242.739 424.413Z" />
</svg>
