<svg width="523" height="464" viewBox="0 0 523 464" fill="#15C196" xmlns="http://www.w3.org/2000/svg">
<path d="M7.6 2.2C0.3 7.2 0 8.1 0 28.5C0 48.9 0.3 49.8 7.5 54.7C10.6 56.9 11.8 57 27.9 57C42.9 57 45.4 56.8 48.1 55.1C52.3 52.5 55.2 47.6 56 41.2L56.7 36H123.6C160.4 36 190.5 36.2 190.5 36.4C190.5 36.6 186.3 39.1 181.3 41.8C167.5 49.2 155.4 58.2 143.3 70C134.2 78.9 132.5 81.1 132.5 83.6C132.5 87.3 136.1 91 139.7 91C141.6 91 143.8 89.5 147.2 85.9C154.4 78.1 167.8 66.6 175.4 61.7C190 52 209.1 43.9 225.4 40.5C229.4 39.7 232.8 39 233.1 39C233.3 39 233.5 40.5 233.5 42.4C233.5 46.4 236.9 51.6 241.4 54.7C244.6 56.9 245.8 57 260.7 57C278.2 57 281 56.3 285.9 51.2C287.9 49.1 288.9 46.8 289.2 43.6C289.5 41.1 289.9 39 290.1 39C292 39 305.8 42.5 312 44.5C368 62.8 410.7 117.3 415 176L415.6 184.5L411.8 186.2C405.3 189.1 399.8 194.6 396.4 201.5C393.5 207.5 393.3 208.5 393.7 215.9C394.2 224.9 396.8 230.3 403.4 236.3C410.3 242.6 415 244.5 423.5 244.5C432 244.5 436.7 242.6 443.6 236.3C450.2 230.3 452.8 224.9 453.3 215.9C453.7 208.5 453.5 207.5 450.6 201.5C447.3 194.8 442.3 189.7 435.8 186.4C433.7 185.4 431.9 184.5 431.8 184.4C431.6 184.4 431.1 180 430.5 174.6C426.5 136.1 410.5 101.7 383.2 73.4C370.9 60.6 358.7 51.1 344.7 43.4C339.4 40.5 334.3 37.6 333.5 37.1C332.5 36.5 354.8 36.1 399.1 36.1L466.2 36L466.9 41.2C467.8 47.5 470.6 52.5 474.9 55.1C477.6 56.8 480.1 57 495.1 57C511.2 57 512.4 56.9 515.5 54.7C522.7 49.8 523 48.9 523 28.5C523 8.1 522.7 7.2 515.4 2.2C512.1 -3.64333e-06 511.4 -0.100004 494.5 0.199996C478.8 0.499996 476.7 0.699996 474.3 2.5C470.7 5.2 467.8 10.5 467 16.2L466.3 21H377.9H289.5V16.1C289.5 10.2 286.6 5.5 281 2.3C277.3 0.199996 275.7 -3.64333e-06 260.9 -3.64333e-06C245.8 -3.64333e-06 244.6 0.0999964 241.4 2.3C236.2 5.8 233.5 10.5 233.5 16.1V21H145.1H56.7L56 16.2C55.2 10.5 52.3 5.2 48.7 2.5C46.3 0.699996 44.2 0.499996 28.5 0.199996C11.6 -0.100004 10.9 -3.64333e-06 7.6 2.2ZM41.5 29V43H28H14.5V29V15H28H41.5V29ZM275.3 28.7L275 42.5H261.5H248L247.7 28.7L247.4 15H261.5H275.6L275.3 28.7ZM508.5 29V43H495H481.5V29V15H495H508.5V29ZM429.9 199.4C431.7 200.2 434.5 202.5 436.1 204.5C438.5 207.7 439 209.3 439 214C439 223.6 433.5 229 423.7 229C413.7 229 408 223.6 408 213.9C408 209.3 408.5 207.6 410.9 204.5C415.6 198.4 422.8 196.4 429.9 199.4Z" />
<path d="M252.6 101.9C249.2 103.1 245.7 105.3 243 108.1C238.5 112.7 147.8 235.6 144.8 241.3C142.2 246.1 142.4 259 145.1 265C146.3 267.6 155.2 278.4 165.8 290.4C176.1 301.8 184.5 311.6 184.5 312.1C184.5 312.6 183.3 313.6 181.8 314.4C177.4 316.7 172.7 322.1 171 326.9C168.9 333.1 168.8 372.4 171 379.7C172.8 385.6 178 391.5 184 394.1L188.2 396L188.9 422.2C189.7 453.5 190.3 460.6 192.2 462.6C194.4 464.7 200.1 464.4 202.6 461.9C204.7 459.8 204.7 459.3 204.1 437.1C203.7 424.7 203.2 410.6 202.8 405.7L202.2 397H261.5H320.8L320.2 405.7C319.8 410.6 319.3 424.7 318.9 437.1C318.3 459.3 318.3 459.8 320.4 461.9C322.9 464.4 328.6 464.7 330.8 462.6C332.7 460.7 333.3 453 334.1 421.8L334.8 396L339.1 394C344.9 391.2 349.1 386.1 351 379.8C352.8 373.5 353.2 335.5 351.4 328.5C350.2 323.6 344.8 316.7 340.4 314.4C338.8 313.6 337.5 312.5 337.5 312C337.5 311.5 345.9 301.8 356.2 290.3C366.9 278.3 375.7 267.6 376.9 265C379.6 259.1 379.8 246.1 377.3 241.3C374.5 236.2 335.5 182.7 333.1 180.8C332 179.8 330 179 328.9 179C325.7 179 321.5 182.7 321.5 185.6C321.5 187.3 328.5 197.8 342.6 217.1C354.1 233.1 364 247.3 364.6 248.6C366.2 252.8 365.6 256.4 362.8 260.8C361.2 263 351 275 340 287.4L320 309.9H261H202L181.5 286.8C170.2 274.1 160 262.1 158.8 260.1C156.3 256.2 155.9 252.6 157.5 248.6C158 247.2 176.1 221.9 197.7 192.4L237 138.8L237.3 168.5L237.5 198.2L232.5 203.7C218.2 219.4 218.6 242 233.5 256.7C249.3 272.4 272.8 272.4 288.5 256.7C303.2 242 303.6 218.9 289.4 203.5L285.5 199.3V170.6C285.5 154 285.9 142 286.4 142.2C286.9 142.3 290.6 146.8 294.5 152C306.9 168.2 308.4 169.2 313.9 164.9C318.9 161 318 159.1 298.7 133.3C288.9 120.2 279.3 108.2 277.4 106.6C270.3 100.6 261.2 98.7998 252.6 101.9ZM269.1 118.1L271.5 120.3V163.6V206.9L276.1 210.6C290.4 222.3 287.7 243.9 271 251.6C254.4 259.4 234.9 245.7 236.8 227.6C237.5 220.4 240.3 215.3 246.4 210.2L251.5 205.9V162.4V119L254.8 116.9C259 114.3 265.6 114.8 269.1 118.1ZM332.4 326.5C334 327.3 335.5 328.7 335.9 329.5C336.2 330.4 336.5 341.5 336.5 354.1V377.1L334 379.5L331.6 382H261H190.4L188 379.5L185.5 377.1V354C185.5 329.9 185.9 327.6 189.8 326C191 325.5 223 325.1 260.8 325.1C319.3 325 330 325.2 332.4 326.5Z" />
<path d="M115.6 105.6C113 108.9 105.4 124.6 102 133.5C97.2 146.5 94 161.1 92 179.1C91.4 184.3 91.2 184.7 88 185.9C82.7 187.8 75 195.7 71.9 202.4C69.6 207.5 69.3 209.1 69.7 215.9C70.4 227.3 76.2 236.7 85.8 241.8C92.9 245.5 104.7 245.7 111.5 242.2C117.5 239.1 123.7 232.9 126.6 227.2C130 220.6 130 208.6 126.7 201.9C123.8 196 116.5 188.6 111.3 186.3L107.2 184.5L107.9 175.5C109.2 157.2 113.9 140.5 123.2 120.7L128.9 108.8L125.7 105.9C121.7 102.3 118.3 102.2 115.6 105.6ZM105.9 199.4C107.7 200.2 110.5 202.5 112.1 204.5C114.5 207.6 115 209.3 115 213.9C115 223.6 109.3 229 99.2 229C89.3 229 82.9 222.1 83.9 212.6C85.1 201.5 95.7 195.1 105.9 199.4Z" />
<path d="M243 417.9C238.1 420.1 233.7 424.4 231.9 428.7C230.9 430.9 230.5 436.4 230.5 446.3C230.5 462.6 231.1 464 237.8 464C243.6 464 244.5 461.7 244.5 447.2C244.5 440.4 245 434 245.5 432.9C246.5 431.2 247.8 431 261 431C274.2 431 275.5 431.2 276.5 432.9C277 434 277.5 440.4 277.5 447.2C277.5 461.9 278.4 464 284.4 464C290.9 464 291.5 462.4 291.5 446.2C291.5 430.7 290.9 428.1 286.2 423.1C280.5 417.1 276.8 416 261 416C249.5 416 246.3 416.4 243 417.9Z" />
</svg>
