<svg width="68" height="68" viewBox="0 0 68 68" fill="none" xmlns="http://www.w3.org/2000/svg">
<path d="M6.62295 4.44858C-0.377054 10.9486 -1.37705 14.7486 1.52295 23.5486C4.72295 33.2486 9.92295 41.2486 18.6229 49.8486C30.5229 61.6486 47.2229 69.4486 55.1229 66.8486C59.3229 65.4486 67.6229 56.6486 67.6229 53.7486C67.6229 50.7486 54.7229 37.8486 51.8229 37.8486C50.6229 37.8486 47.8229 39.4486 45.7229 41.4486C41.9229 44.8486 41.6229 44.9486 38.9229 43.5486C35.7229 41.8486 25.6229 31.5486 23.7229 28.0486C22.6229 25.9486 22.8229 25.3486 26.0229 21.7486C28.0229 19.6486 29.6229 16.8486 29.6229 15.6486C29.6229 13.5486 20.9229 3.44858 17.1229 1.14858C13.7229 -0.951417 11.7229 -0.351417 6.62295 4.44858ZM20.5229 9.24858C26.6229 15.3486 26.6229 16.6486 21.1229 21.7486L17.6229 24.9486L19.7229 29.0486C23.6229 36.7486 36.9229 48.8486 41.4229 48.8486C42.2229 48.8486 44.6229 47.2486 46.7229 45.3486C48.9229 43.4486 51.1229 41.8486 51.8229 41.8486C53.2229 41.8486 63.6229 52.1486 63.6229 53.5486C63.6229 54.1486 61.9229 56.5486 59.7229 58.9486C56.1229 63.0486 55.5229 63.3486 50.8229 63.2486C32.9229 63.0486 4.62295 34.3486 4.62295 16.6486C4.62295 12.1486 5.02295 11.2486 8.52295 7.74858C10.6229 5.54858 13.0229 3.84858 13.8229 3.84858C14.5229 3.84858 17.6229 6.24858 20.5229 9.24858Z" fill="#ECECEC"/>
</svg>
