<svg width="252" height="298" viewBox="0 0 252 298" fill="#15C196" xmlns="http://www.w3.org/2000/svg" stroke-width="10">
<path d="M76.7 1C72.6 2.79999 70.5 7.5 70.5 14.8C70.5 17.8 70.2 21.7 69.9 23.4C69.1 27.3 67.6 27.3 57.5 24C48.1 20.9 46.4 20.9 42.5 24.2C39 27.1 39 26.5 41.1 46.1C41.5 50.5 41.4 52.5 40.5 53C39.8 53.4 35.2 54.6 30.3 55.5C20.7 57.4 18.2 59 16.5 64C15 68.5 16.2 70.9 23.4 78C26.8 81.3 29.5 84.6 29.5 85.5C29.5 86.5 26.5 88.5 21.5 90.8C12.8 94.9 11.5 96.4 11.5 102.2C11.5 106.7 13.6 109.1 22.9 114.9C28.6 118.6 28.7 118.7 28 122.3C26.1 133.5 26.2 135.3 29.1 138C30.6 139.4 32.4 140.5 33.2 140.5C33.9 140.5 35.3 140.9 36.3 141.4C37.2 141.9 43.3 144.4 49.8 147C60.9 151.4 62 152.1 68.5 158.8C78.3 168.8 78.2 169.4 65.3 178.1C59.7 181.8 53.2 186.4 50.8 188.2C48.4 190 44.1 192.2 41.2 192.9C19.1 198.8 9.9 205.2 3.1 219.5L0 226V256.5C0 285.2 0.1 287.2 2 290.3C3.1 292.1 5.4 294.5 7.1 295.6C10.2 297.4 13.4 297.5 127.5 297.5H244.8L248 294.1C251.5 290.3 252.7 285.8 251.4 281.1C249.8 275.6 245.5 272.9 242.8 275.6C242 276.4 242.2 277.8 243.5 280.8C245.3 284.7 245.2 286.7 243.2 289.2C242.5 290.2 234.4 290.5 208.9 290.5H175.5L173.9 288C171.7 284.6 172.3 283 180.2 271L187 260.7L193.5 260.1C197.1 259.8 200.9 259.6 202 259.6C204.4 259.8 212.3 259.9 215 259.7C216.1 259.6 219.9 259.7 223.4 260C228.2 260.3 230.3 260.9 232.1 262.6C234.4 264.8 234.5 264.8 236.5 263C237.6 262 238.5 260.8 238.5 260.4C238.5 259.9 236 256 233 251.5C223.5 237.5 222.5 233.7 227 228.4C230.1 224.7 231.1 219.4 229.6 214.5C227.8 208.6 226.6 208 213.2 207.6L201.1 207.3L195.6 203.2C190.4 199.4 186 197.3 179 195.5C166.8 192.3 163.8 191.1 160.2 188.2C157.9 186.3 151.6 181.8 146.3 178.1C133.7 169.5 133.6 168.5 143.3 158.8C148.2 153.8 151.9 151.2 156.6 149.1C165.6 145.2 166.3 145 173 142.5C183.2 138.8 183.5 138.6 184.6 135.8C185.3 133.9 185.3 131.2 184.6 126.9C184 123.5 183.7 120 184.1 119.2C184.4 118.3 187 116.1 189.8 114.4C197.3 109.7 199.4 107.6 200.1 103.9C201 98.9 198.2 94 193.2 92C185.1 88.8 182.5 87.3 182.5 85.7C182.5 84.9 185.4 81.1 189 77.4C194.9 71.3 195.5 70.3 195.5 66.5C195.5 60.1 192 57.3 182 55.6C170.7 53.8 169.2 53.1 169.9 49.7C171.7 41.5 172.4 30.8 171.5 27.9C169.5 21.8 165.6 20.7 156.5 23.4C146.3 26.4 143.4 26.9 142.6 25.6C142.1 24.9 141.5 20 141.2 14.8C140.7 6.19998 140.4 4.89999 138.1 2.60001C136.2 0.799988 134.4 0 131.7 0C128.6 0 126.1 1.39999 117.3 7.79999C111.5 12 106.4 15.5 106 15.5C105.6 15.5 101.7 12.9 97.3 9.69998C83.1 -0.5 81.6 -1.10001 76.7 1ZM84.3 9.19998C85.8 10.2 90.6 13.6 94.9 16.7C99.9 20.3 103.9 22.5 105.5 22.5C107.9 22.5 111.2 20.6 124.1 11.8C125.9 10.6 127.6 9.10001 128 8.5C128.3 8 129.7 7.5 130.9 7.5C133.1 7.5 133.3 8 133.9 15.2C134.9 26.2 135.5 28.2 138.3 31C141.4 34.1 145.8 34.3 154.4 31.4C157.9 30.3 161.7 29.5 162.8 29.7C165.3 30 165.3 30.9 164 44.6C162.7 57.8 163.7 59 178.5 61.9C190.8 64.3 190.9 64.7 182.6 73.4C174.7 81.7 173.4 84.9 176.2 89.7C178.1 93 181.7 95.4 187.8 97.4C189.8 98.1 192 99.5 192.5 100.6C193.7 102.8 193.5 103 182.7 110.5L175.4 115.6L176.1 120.3C176.4 122.9 177.1 125.8 177.6 126.7C180.1 131.4 178.5 132.9 166.5 137C158.6 139.8 156 140.3 155.4 139.3C155 138.6 155 137.6 155.5 137C155.9 136.5 156.5 134.6 156.7 133C156.9 130.8 157.6 129.9 159.2 129.7C165.5 128.8 170.2 119.5 169.2 109.9C168.5 102.6 166.1 98.6 161.5 96.8L157.8 95.3L157.1 85.6C155.4 61.5 145.6 48.7 121 38.5C119.4 37.8 114.2 37 109.5 36.8C94.2 35.8 80.4 41 69.3 51.8C59.4 61.4 55.8 69.9 54.6 86L54 95L50.3 96.7C44.4 99.5 43.5 101.6 43.5 112.9V122.8L47 126.1C48.9 127.9 51.5 129.5 52.7 129.7C54.6 129.9 55.1 130.9 55.8 134.9C56.2 137.6 56.4 140 56.1 140.3C55.2 141.1 34.4 133.3 33.8 132C33.6 131.3 34.1 127.7 35 124.1C35.9 120.4 36.5 116.8 36.2 116.1C35.9 115.3 31.8 112.1 27 109C21.2 105.1 18.5 102.7 18.7 101.6C18.9 100.7 22.3 98.4 26.4 96.4C34.9 92.3 36.5 90.6 36.5 85.3C36.5 81.8 35.7 80.5 29.4 73.9C22.9 67.1 22.4 66.2 23.8 64.8C24.6 63.9 27.5 62.8 30.2 62.4C42.1 60.2 44 59.6 46.2 57C48.8 54 49 51.7 47.5 39.6C46.7 33.8 46.7 30.9 47.4 30.2C48.1 29.5 51.5 29.9 58 31.5C71.9 34.9 75.9 32.7 77 21C78.3 6.5 78.8 5.69998 84.3 9.19998ZM115.5 44.6C131.6 48.2 147 63.2 149.1 77.3L149.8 81.6L145.9 80.8C140.7 79.7 69.9 79.8 65.6 80.9L62.2 81.7L62.8 77.5C63.7 70.9 69.2 60.9 74.9 55.8C80.1 51 91.7 45 97 44.2C102.7 43.4 111 43.6 115.5 44.6ZM143.8 87.7C148.2 90 150.5 94.1 150.5 99.4C150.5 102.5 149.8 104.1 147.1 106.9L143.8 110.5H131.6H119.5L116 105.6C112 100.1 111 99.5 105.4 99.5C101.4 99.5 100.8 99.9 94.8 106.8L91.7 110.5H80.1C68.9 110.5 68.4 110.4 65.5 107.7C59.8 102.7 60.8 91.6 67.4 88C70.8 86.1 140.3 85.8 143.8 87.7ZM57.1 108.5C61.2 116 65 117.5 80.3 117.5C86.9 117.5 93.5 117.1 94.8 116.6C96.2 116 98.7 113.6 100.5 111.1C104.6 105.1 107.2 105 110.9 110.6C115 116.7 118.5 117.8 133.5 117.3C145.7 117 146.3 116.9 150 114.1C152.1 112.5 154.5 109.4 155.4 107.3C156.6 104.4 157.5 103.5 159 103.7C160.8 104 161 104.8 161 112.5V121L156.5 122.4C151 124.1 151.4 123.7 150.4 128.2C146.6 146.3 140.1 155.7 127.2 161.8C117 166.7 113.8 167.5 105.5 167.5C93.4 167.5 83.2 163.1 74 154C67.2 147.1 64 141.3 62.4 132.9C60.9 125 60.1 123.7 55.5 122.5C53.3 121.9 51.1 120.6 50.5 119.5C49.2 117.1 49.2 109.4 50.5 106.1C52 102.2 54.1 103 57.1 108.5ZM89.9 171.9C102.7 175.5 104.8 175.7 113.6 174C118.2 173.1 122.8 172 123.7 171.5C127.9 169.2 128.5 170.1 128.5 178.8V187.1L124.8 188.9C114.2 194 103.9 194.8 93.4 191.4C82.8 188 82.5 187.6 82.5 179.1C82.5 172.5 82.9 170.5 84.3 170.5C84.6 170.5 87.1 171.1 89.9 171.9ZM75.5 182.9C75.5 183.6 74.8 186.2 74 188.5C72.1 193.8 71.9 214.5 73.7 216.3C75.7 218.3 78.5 217.7 79.5 214.9C80.1 213.5 80.5 208.3 80.5 203.4C80.5 198.5 80.9 194.5 81.3 194.5C81.8 194.5 85 195.7 88.6 197.2C94.2 199.5 96.4 199.8 105.5 199.8C113.9 199.8 117.1 199.4 121.5 197.7C131.7 193.7 131.1 192.6 131.8 215.2C132.7 239.8 132.7 286.8 131.9 288.9C131.4 290.3 128.1 290.5 105.9 290.5H80.5V263.6C80.5 248.5 80.1 235.5 79.5 234.1C78.5 231.3 75.7 230.7 73.7 232.7C72.9 233.5 72.5 238 72.5 246.2C72.5 253 72.1 258.5 71.6 258.5C71.2 258.5 68.8 254.6 66.4 249.9C64 245.2 59.9 238.9 57.3 235.9C51.7 229.5 51.4 227.5 55.2 220.2C58.6 213.7 58.7 209.3 55.3 202.9C52.9 198.3 52.8 197.7 54.2 195.4C56 192.6 71.2 181.8 73.8 181.6C74.7 181.5 75.5 182.1 75.5 182.9ZM147.9 187.6C158.5 194.4 159.3 195.9 156.2 202.6C153.8 207.9 154.1 218.3 156.8 221.3C157.8 222.4 158.5 224.8 158.5 227.2C158.5 230.6 157.7 232.2 154 236.6C151.5 239.6 147.8 245.4 145.6 249.5C138.7 262.8 138.7 262.5 138.2 222.8C138 203.7 137.4 186.5 137 184.7C136.5 182.5 136.6 181.5 137.4 181.5C138 181.5 142.8 184.2 147.9 187.6ZM48.3 204.3C51.1 210.4 51.1 212.6 47.9 219.2C44.5 226 44.9 231.8 49.1 237.1C54.8 244.1 57.5 248.1 60.4 253.5C73.1 277.8 72.5 276.3 72.5 283.6V290.5H42H11.4L9 287.9L6.5 285.2V257.4C6.5 238.9 6.9 228.7 7.6 226.8C11.8 216.6 14.5 212.7 20.2 208.5C24.3 205.5 39.4 199.8 43.5 199.6C45.5 199.6 46.4 200.4 48.3 204.3ZM171.7 200.4C173 200.9 176 201.9 178.5 202.6C186 204.8 189 206.9 188.7 209.6C188.5 210.9 188.1 214.9 187.8 218.5C187.4 224.7 187.5 225.2 190.5 228.5C194.6 233 194.2 237.1 189.1 244.3C187.1 247.2 185.5 249.7 185.5 249.9C185.5 250.2 184.2 252.3 182.6 254.7C167.4 277.6 166.1 280 165.7 285.3L165.2 290.6L152.1 290.3L139 290L138.7 284.3C138.4 278.8 138.8 277.7 146.6 262.4C151.8 252.2 156.6 244.2 159.7 240.7C166.7 232.7 167.8 226.5 163.6 218.4C161 213.4 161 210 163.5 204.1C165.7 199.3 167.2 198.6 171.7 200.4ZM222 219V223H209H196L195.1 220.3C194.4 218.4 194.5 217.2 195.5 216C196.6 214.7 198.9 214.5 209.4 214.7L222 215V219ZM217.5 236.1C217.9 239.5 219.1 243 221.3 246.5C225 252.4 224.5 254.1 219.8 252.4C217.6 251.7 215.5 251.7 212.9 252.4C210.5 253.1 207.7 253.1 205 252.5C202.3 251.9 199.5 251.9 197.4 252.5C193.2 253.7 193.5 253.8 193.5 251.9C193.5 251.1 194.9 248.4 196.5 246C198.6 242.9 199.5 240.4 199.5 237.7C199.5 230.6 199.8 230.4 208.9 230.7L217 231L217.5 236.1Z" stroke-width="10" />
</svg>
