<?xml version="1.0" encoding="UTF-8"?>
<!-- Generator: Adobe Illustrator 24.0.3, SVG Export Plug-In . SVG Version: 6.00 Build 0)  -->
<svg version="1.1" id="Layer_1" xmlns="http://www.w3.org/2000/svg" xmlns:xlink="http://www.w3.org/1999/xlink" x="0px" y="0px" viewBox="0 0 88.5 38.5" style="enable-background:new 0 0 88.5 38.5;" xml:space="preserve">
<style type="text/css">
	.st0{fill:#FFFFFF;}
</style>
<g>
	<path class="st0" d="M60.9,2.8c1.1,0.8,1.4,2.3,0.7,3.5c-0.7,1.2-2.2,1.5-3.4,0.9C54.3,5,50.9,4.2,47.7,4.2   c-7.4-0.1-14.2,4.7-21.5,10C19,19.4,11.4,25.1,1.7,25.1h0c-0.2,0-0.3,0-0.5,0c1.3,4.9,3.4,9.4,6.2,13.5h58.4   c-1.9-1.2-3.7-2.5-5.5-3.8c-7-5-13.7-9.6-20.7-9.5c-3.2,0-6.6,0.9-10.5,3.2c-1.2,0.7-2.7,0.3-3.4-0.8c-0.8-1.1-0.5-2.6,0.6-3.4   c5.9-4.6,11.7-6.4,17.2-6.4c14.5,0.2,26.1,11.2,37.8,11c1.6,0,3.2-0.2,4.9-0.6c1.6-4.6,2.5-9.5,2.5-14.6c0-4.8-0.8-9.3-2.1-13.6   h-30C57.9,0.8,59.4,1.7,60.9,2.8z"/>
	<path class="st0" d="M29.8,0h-28C1,2.6,0.3,5.4,0,8.2c1.5,0.3,2.9,0.5,4.4,0.5C12.6,8.8,20.7,3.6,29.8,0z"/>
</g>
</svg>