<?xml version="1.0" encoding="UTF-8"?>
<!-- Generator: Adobe Illustrator 22.1.0, SVG Export Plug-In . SVG Version: 6.00 Build 0)  -->
<svg version="1.1" id="Laag_1" xmlns="http://www.w3.org/2000/svg" xmlns:xlink="http://www.w3.org/1999/xlink" x="0px" y="0px" viewBox="0 0 401.5 401.5" style="enable-background:new 0 0 401.5 401.5;" xml:space="preserve">
<style type="text/css">
	.st0{fill:#C90F54;}
	.st1{fill:#FFFFFF;}
</style>
<circle class="st0" cx="200.7" cy="200.7" r="200.7"/>
<g>
	<path class="st1" d="M269.3,189.6c3,1.6,5,3.9,6.1,6.8c1,2.9,1,5.8,0,8.7c-1,2.9-3.1,5.2-6.1,6.8l-99.6,56.6   c-2.8,1.6-5.9,2.2-9.1,1.6s-5.9-2-8.1-4.4c-2.2-2.4-3.3-5.2-3.3-8.4V144.2c0-3.6,1.1-6.6,3.4-8.8s5-3.6,8.2-4.1   c3.2-0.5,6.1,0.1,8.8,1.8L269.3,189.6z"/>
</g>
</svg>