<svg width="170" height="37" viewBox="0 0 170 37" fill="none" xmlns="http://www.w3.org/2000/svg">
<g clip-path="url(#clip0_63_454)">
<path d="M19.0546 19.2161H36.3079V36.446H19.0546V19.2161Z" fill="#FFB900"/>
<path d="M0 19.2161H17.2533V36.446H0V19.2161Z" fill="#00A4EF"/>
<path d="M60.0066 21.071L58.9934 23.9379H58.9089C58.7401 23.2915 58.4305 22.3077 57.9238 21.1272L52.4917 7.49502H47.1722V29.2222H50.6904V15.8149C50.6904 14.9716 50.6904 14.016 50.6622 12.8355C50.6341 12.2452 50.5778 11.7955 50.5497 11.4582H50.6341C50.803 12.3014 51 12.9198 51.1407 13.3133L57.6705 29.1659H60.1473L66.6209 13.1727C66.7616 12.8073 66.9023 12.0765 67.043 11.4582H67.1275C67.043 13.0603 66.9867 14.4938 66.9586 15.3651V29.1378H70.702V7.4388H65.5795L60.0066 21.071ZM74.2483 13.5662H77.9073V29.1378H74.2483V13.5662ZM76.1059 6.98908C75.4867 6.98908 74.9801 7.21394 74.5579 7.60745C74.1357 8.00095 73.9106 8.50689 73.9106 9.12525C73.9106 9.71551 74.1357 10.2214 74.5579 10.615C74.9801 11.0085 75.4867 11.2052 76.1059 11.2052C76.7252 11.2052 77.2599 10.9804 77.654 10.615C78.0761 10.2214 78.3013 9.71551 78.3013 9.12525C78.3013 8.535 78.0761 8.02906 77.654 7.60745C77.2881 7.21394 76.7533 6.98908 76.1059 6.98908ZM90.8824 13.4257C90.2069 13.2852 89.5033 13.2009 88.8278 13.2009C87.1672 13.2009 85.6473 13.5662 84.3808 14.297C83.1142 15.0278 82.101 16.0397 81.4536 17.3046C80.7781 18.5975 80.4404 20.0872 80.4404 21.8018C80.4404 23.2915 80.7781 24.6125 81.4255 25.8211C82.0728 27.0017 82.9735 27.9573 84.1838 28.6038C85.3377 29.2503 86.6887 29.5876 88.2086 29.5876C89.9536 29.5876 91.4454 29.2222 92.6275 28.5476L92.6556 28.5195V25.1466L92.5149 25.259C91.9801 25.6525 91.3609 25.9898 90.7417 26.1865C90.0944 26.4114 89.5033 26.5238 88.9967 26.5238C87.5331 26.5238 86.3791 26.1022 85.5629 25.1747C84.7185 24.2752 84.2963 23.0385 84.2963 21.4926C84.2963 19.8905 84.7185 18.6256 85.591 17.6981C86.4636 16.7705 87.6175 16.2927 89.0248 16.2927C90.2069 16.2927 91.4172 16.6862 92.5149 17.4732L92.6556 17.5856V14.016L92.6275 13.9879C92.149 13.7911 91.6142 13.5662 90.8824 13.4257ZM102.957 13.3133C102.056 13.3133 101.212 13.5944 100.48 14.1846C99.8609 14.6906 99.4387 15.4213 99.0728 16.2927H99.0447V13.5662H95.3857V29.1378H99.0447V21.1834C99.0447 19.8342 99.3261 18.7099 99.9454 17.8948C100.565 17.0516 101.353 16.63 102.31 16.63C102.647 16.63 102.985 16.7143 103.407 16.7705C103.801 16.8829 104.083 16.9954 104.28 17.1359L104.421 17.2483V13.5944L104.336 13.5662C104.083 13.3976 103.576 13.3133 102.957 13.3133ZM112.921 13.229C110.359 13.229 108.305 13.9879 106.869 15.4776C105.406 16.9673 104.702 19.0191 104.702 21.605C104.702 24.0223 105.434 25.9898 106.841 27.4233C108.248 28.8287 110.162 29.5595 112.555 29.5595C115.06 29.5595 117.058 28.8005 118.493 27.2827C119.957 25.7649 120.661 23.7412 120.661 21.2396C120.661 18.7661 119.985 16.7986 118.606 15.3651C117.283 13.9316 115.341 13.229 112.921 13.229ZM115.848 25.2028C115.172 26.0741 114.103 26.4957 112.78 26.4957C111.457 26.4957 110.387 26.0741 109.627 25.1466C108.868 24.2752 108.502 23.0104 108.502 21.4083C108.502 19.7499 108.896 18.4851 109.627 17.5856C110.387 16.6862 111.429 16.2365 112.752 16.2365C114.046 16.2365 115.06 16.6581 115.791 17.5294C116.523 18.4007 116.917 19.6656 116.917 21.3239C116.861 23.0104 116.551 24.3314 115.848 25.2028ZM128.823 20.031C127.669 19.5532 126.937 19.1878 126.599 18.8786C126.318 18.5975 126.177 18.204 126.177 17.6981C126.177 17.2764 126.346 16.8548 126.768 16.5738C127.19 16.2927 127.669 16.1521 128.372 16.1521C128.992 16.1521 129.639 16.2646 130.258 16.4332C130.877 16.6019 131.44 16.8548 131.891 17.1921L132.031 17.3046V13.8754L131.947 13.8473C131.525 13.6787 130.962 13.51 130.286 13.3695C129.611 13.2571 128.992 13.2009 128.485 13.2009C126.74 13.2009 125.305 13.6225 124.179 14.55C123.053 15.4213 122.518 16.6019 122.518 17.9791C122.518 18.7099 122.631 19.3564 122.884 19.8904C123.137 20.4245 123.503 20.9304 124.01 21.352C124.517 21.7456 125.248 22.1953 126.262 22.6169C127.106 22.9823 127.753 23.2634 128.147 23.4882C128.541 23.7131 128.795 23.966 128.992 24.1628C129.132 24.3877 129.217 24.6687 129.217 25.0341C129.217 26.0741 128.429 26.58 126.824 26.58C126.205 26.58 125.558 26.4676 124.798 26.2147C124.038 25.9617 123.334 25.5963 122.743 25.1747L122.603 25.0622V28.6319L122.687 28.66C123.222 28.913 123.869 29.0816 124.657 29.2784C125.445 29.4189 126.149 29.5313 126.768 29.5313C128.654 29.5313 130.202 29.1097 131.3 28.1822C132.425 27.2827 133.017 26.1303 133.017 24.6406C133.017 23.6006 132.735 22.6731 132.116 21.9704C131.3 21.2958 130.286 20.5931 128.823 20.031ZM142.671 13.229C140.109 13.229 138.055 13.9879 136.619 15.4776C135.184 16.9673 134.452 19.0191 134.452 21.605C134.452 24.0223 135.184 25.9898 136.591 27.4233C137.998 28.8287 139.912 29.5595 142.305 29.5595C144.81 29.5595 146.808 28.8005 148.243 27.2827C149.707 25.7649 150.411 23.7412 150.411 21.2396C150.411 18.7661 149.735 16.7986 148.356 15.3651C147.033 13.9316 145.091 13.229 142.671 13.229ZM145.57 25.2028C144.894 26.0741 143.824 26.4957 142.502 26.4957C141.151 26.4957 140.109 26.0741 139.349 25.1466C138.589 24.2752 138.223 23.0104 138.223 21.4083C138.223 19.7499 138.618 18.4851 139.349 17.5856C140.109 16.6862 141.151 16.2365 142.473 16.2365C143.74 16.2365 144.781 16.6581 145.513 17.5294C146.245 18.4007 146.639 19.6656 146.639 21.3239C146.639 23.0104 146.273 24.3314 145.57 25.2028ZM169.972 16.5738V13.5662H166.285V8.95661L166.172 8.98472L162.682 10.0247L162.598 10.0528V13.5662H157.081V11.5987C157.081 10.6993 157.306 9.99659 157.7 9.54687C158.094 9.09715 158.685 8.87229 159.417 8.87229C159.924 8.87229 160.459 8.98472 161.05 9.23768L161.19 9.32201V6.14585L161.106 6.11775C160.599 5.9491 159.924 5.83667 159.051 5.83667C157.954 5.83667 156.997 6.08964 156.124 6.51125C155.252 6.98908 154.604 7.63555 154.126 8.50689C153.647 9.35011 153.394 10.3058 153.394 11.402V13.5662H150.833V16.5456H153.394V29.1378H157.081V16.5738H162.598V24.5844C162.598 27.873 164.146 29.5313 167.242 29.5313C167.748 29.5313 168.283 29.447 168.79 29.3627C169.324 29.2503 169.719 29.1097 169.944 28.9973L169.972 28.9692V25.9617L169.831 26.0741C169.606 26.2147 169.409 26.3271 169.071 26.4114C168.79 26.4957 168.536 26.5238 168.339 26.5238C167.608 26.5238 167.101 26.3552 166.735 25.9336C166.397 25.5401 166.228 24.8936 166.228 23.9379V16.5738H169.972Z" fill="#737373"/>
<path d="M19.0546 0.187256H36.3079V17.4172H19.0546V0.187256Z" fill="#7FBA00"/>
<path d="M0 0.187256H17.2533V17.4172H0V0.187256Z" fill="#F25022"/>
</g>
<defs>
<clipPath id="clip0_63_454">
<rect width="170" height="36.2587" fill="white" transform="translate(0 0.187256)"/>
</clipPath>
</defs>
</svg>
