<svg width="180" height="39" viewBox="0 0 180 39" fill="none" xmlns="http://www.w3.org/2000/svg">
<g clip-path="url(#clip0_63_449)">
<path fill-rule="evenodd" clip-rule="evenodd" d="M96.2326 27.074C94.2764 29.0322 91.9362 30.0165 89.2241 30.0165C87.0307 30.0165 85.1669 29.5755 83.2647 28.4852V23.9961C84.7952 25.02 86.7177 25.9949 88.6135 25.9949C92.5697 25.9949 94.9244 23.309 94.9244 19.5029C94.9244 15.6936 92.489 12.9281 88.5312 12.9281C86.7636 12.9281 85.3309 13.5552 84.2118 14.8115C83.012 16.1726 82.3918 18.118 82.3918 20.6901V38.4161H82.0938C79.9132 38.4161 78.1467 36.6729 78.1467 34.5225V20.0251C78.1467 13.873 81.9592 8.90595 88.512 8.90595C91.7476 8.90595 94.3753 9.99726 96.3678 12.1899C98.2412 14.2387 99.1696 16.8344 99.1696 19.9581C99.1696 22.7378 98.1899 25.1149 96.2326 27.074ZM142.196 26.9239C140.247 28.9874 137.74 30.0165 134.7 30.0165C131.491 30.0165 128.876 28.9252 126.885 26.7326C125.013 24.6585 124.084 22.0607 124.084 18.9649C124.084 13.4851 128.371 8.90595 134.013 8.90595C136.19 8.90595 138.079 9.35912 139.988 10.3919V14.9269C138.458 13.903 136.536 12.9281 134.64 12.9281C130.684 12.9281 128.328 15.6135 128.328 19.4212C128.328 23.1767 130.821 25.9949 134.721 25.9949C136.487 25.9949 137.941 25.342 139.105 24.0267C140.261 22.7199 140.862 20.7997 140.862 18.2203V4.11125C140.862 1.96025 142.629 0.217635 144.809 0.217635H145.107V18.8821C145.107 22.1692 144.143 24.8598 142.196 26.9239ZM154.184 6.91356C153.738 7.40573 153.1 7.63231 152.321 7.63231C150.863 7.63231 149.821 6.5721 149.821 5.14565C149.821 3.68548 150.844 2.70009 152.321 2.70009C153.742 2.70009 154.821 3.73923 154.821 5.14565C154.821 5.84122 154.614 6.43773 154.184 6.91356ZM175.754 18.2203C175.754 16.5693 175.121 15.2625 173.849 14.2724C172.703 13.3813 171.272 12.9281 169.53 12.9281C165.688 12.9281 163.221 15.8912 163.221 19.5445C163.221 23.0608 165.836 25.9949 169.49 25.9949C172.032 25.9949 173.391 24.5305 174.84 22.7062V27.9662C174.102 28.5121 173.252 29.107 172.385 29.4564C171.47 29.8331 170.378 30.0165 169.116 30.0165C163.005 30.0165 158.976 25.0242 158.976 19.2552C158.976 16.2927 159.909 13.8434 161.787 11.9338C163.779 9.90978 166.393 8.90595 169.593 8.90595C175.66 8.90595 180 12.3422 180 18.5512V29.6029H179.703C177.521 29.6029 175.754 27.8597 175.754 25.7087V18.2203ZM117.641 17.0341C117.104 15.3974 116.432 14.5922 114.885 13.7402C111.206 11.7125 107.585 13.4388 105.901 17.0183L117.641 17.0341ZM114.401 29.9549C111.69 30.5234 109.029 30.085 106.433 28.6538C103.901 27.259 102.205 25.1844 101.355 22.4432C99.637 16.8992 103.157 10.7213 108.819 9.22528C111.626 8.48386 114.316 8.81953 116.873 10.2286C121.119 12.5703 122.667 16.1921 122.397 20.8587L105.293 20.825C105.546 22.7283 106.742 24.2175 108.423 25.1438C110.128 26.0834 111.695 26.3079 113.149 25.8631C114.764 25.3631 116.073 24.0631 117.139 22.8532L120.624 25.3583C119.203 27.8676 117.267 29.3531 114.401 29.9549V29.9549ZM150.198 9.32013H154.443V29.6029H154.144C151.966 29.6029 150.198 27.8597 150.198 25.7087V9.32013ZM6.21259 29.6028C2.06036 29.6028 0 26.8168 0 22.9263V8.16601C0 6.01553 1.76762 4.27239 3.94764 4.27239H4.24571V9.32002H11.4182V13.3422H4.24571V23.3922C4.24571 25.101 5.01868 25.5811 6.67413 25.5811H11.4182V29.6028H6.21259ZM30.8669 27.0392C28.7697 29.0226 26.2489 30.0164 23.3204 30.0164C20.4193 30.0164 17.9129 29.0215 15.8157 27.0392C13.7115 25.0484 12.6624 22.5148 12.6624 19.4617C12.6624 13.505 17.2735 8.90637 23.3204 8.90637C26.2227 8.90637 28.736 9.90862 30.8461 11.9058C32.9636 13.9087 34.0213 16.4349 34.0213 19.4617C34.0213 22.5148 32.9711 25.0484 30.8669 27.0392ZM50.7146 14.2006C50.0917 15.2308 49.6088 15.9696 49.2691 16.4159C48.8946 16.9012 48.525 17.2891 48.1585 17.5573C51.1088 18.4973 52.2076 20.5134 52.2076 23.517V29.6028H51.9096C49.7296 29.6028 47.9619 27.8596 47.9619 25.7086V23.9302C47.9619 21.9852 47.0779 20.6657 44.9886 20.6657H41.1334V29.6028H40.8353C38.6553 29.6028 36.8893 27.8596 36.8893 25.7086V4.11115C36.8893 1.96015 38.6553 0.217529 40.8353 0.217529H41.1334V16.6024H42.3882C43.767 16.6024 44.6729 16.1371 45.1932 15.2571L48.7589 9.32108L53.596 9.31633L50.7146 14.2006ZM72.6285 27.0392C70.5308 29.0226 68.0099 30.0164 65.0815 30.0164C62.1809 30.0164 59.6745 29.0215 57.5768 27.0392C55.4726 25.0484 54.4235 22.5148 54.4235 19.4617C54.4235 13.505 59.0345 8.90637 65.0815 8.90637C67.9843 8.90637 70.4971 9.90862 72.6077 11.9058C74.7252 13.9087 75.7824 16.4349 75.7824 19.4617C75.7824 22.5148 74.7327 25.0484 72.6285 27.0392ZM69.5644 14.7413C68.394 13.534 66.9085 12.928 65.0815 12.928C61.175 12.928 58.8364 15.7377 58.8364 19.4617C58.8364 23.134 61.2306 25.9948 65.0815 25.9948C68.9341 25.9948 71.3272 23.134 71.3272 19.4617C71.3272 17.5119 70.7332 15.9474 69.5644 14.7413ZM27.8028 14.7413C26.6329 13.534 25.1468 12.928 23.3204 12.928C19.4139 12.928 17.0753 15.7377 17.0753 19.4617C17.0753 23.134 19.4695 25.9948 23.3204 25.9948C27.1725 25.9948 29.5656 23.134 29.5656 19.4617C29.5656 17.5119 28.9721 15.9474 27.8028 14.7413Z" fill="#42B549"/>
</g>
<defs>
<clipPath id="clip0_63_449">
<rect width="180" height="38.5714" fill="white" transform="translate(0 0.0310059)"/>
</clipPath>
</defs>
</svg>
