<svg width="141" height="67" viewBox="0 0 141 67" fill="none" xmlns="http://www.w3.org/2000/svg">
<path d="M75.0856 20.7534H67.5884V46.9575H75.0856V20.7534Z" fill="#32325D"/>
<path fill-rule="evenodd" clip-rule="evenodd" d="M59.5534 22.9698L59.0755 20.7536H52.6237V46.9577H60.0911V29.1989C61.8534 26.8929 64.8403 27.3122 65.7663 27.6416V20.7536C64.8105 20.3943 61.3157 19.7354 59.5534 22.9698Z" fill="#32325D"/>
<path fill-rule="evenodd" clip-rule="evenodd" d="M124.4 33.9604C124.4 26.2938 120.697 20.2444 113.617 20.2444C106.509 20.2444 102.207 26.2938 102.207 33.9005C102.207 42.9147 107.285 47.4667 114.573 47.4667C118.128 47.4667 120.816 46.6581 122.847 45.5201V39.5306C120.816 40.5488 118.486 41.1777 115.529 41.1777C112.632 41.1777 110.063 40.1595 109.734 36.6257H124.341C124.341 36.2364 124.4 34.6791 124.4 33.9604ZM109.645 31.1153C109.645 27.7313 111.706 26.3237 113.588 26.3237C115.41 26.3237 117.351 27.7313 117.351 31.1153H109.645Z" fill="#32325D"/>
<path fill-rule="evenodd" clip-rule="evenodd" d="M90.6776 20.2444C87.7504 20.2444 85.8686 21.622 84.8232 22.5803L84.4349 20.7235H77.8635V55.6424L85.3309 54.0552L85.3608 45.58C86.4361 46.3586 88.0192 47.4667 90.6477 47.4667C95.9944 47.4667 100.863 43.1542 100.863 33.6609C100.833 24.9761 95.9048 20.2444 90.6776 20.2444ZM88.8854 40.8782C87.1231 40.8782 86.0777 40.2493 85.3608 39.4707L85.3309 28.3602C86.1076 27.4917 87.1829 26.8927 88.8854 26.8927C91.6036 26.8927 93.4854 29.9474 93.4854 33.8705C93.4854 37.8835 91.6334 40.8782 88.8854 40.8782Z" fill="#32325D"/>
<path fill-rule="evenodd" clip-rule="evenodd" d="M24.4267 28.3602C24.4267 27.1922 25.3825 26.743 26.9656 26.743C29.2357 26.743 32.1032 27.4318 34.3733 28.6596V21.622C31.8941 20.6337 29.4448 20.2444 26.9656 20.2444C20.902 20.2444 16.8696 23.4188 16.8696 28.7195C16.8696 36.9851 28.2201 35.6674 28.2201 39.2311C28.2201 40.6087 27.0253 41.0579 25.3526 41.0579C22.8734 41.0579 19.7072 40.0397 17.1982 38.6621V45.7896C19.9761 46.9875 22.7838 47.4966 25.3526 47.4966C31.5655 47.4966 35.8369 44.412 35.8369 39.0514C35.807 30.1271 24.4267 31.7143 24.4267 28.3602Z" fill="#32325D"/>
<path fill-rule="evenodd" clip-rule="evenodd" d="M44.6185 14.2549L37.3303 15.8122L37.3004 39.8001C37.3004 44.2324 40.616 47.4967 45.0367 47.4967C47.486 47.4967 49.2782 47.0474 50.2639 46.5084V40.429C49.308 40.8184 44.5886 42.1959 44.5886 37.7637V27.1323H50.2639V20.7535H44.5886L44.6185 14.2549Z" fill="#32325D"/>
<path fill-rule="evenodd" clip-rule="evenodd" d="M67.5884 18.4775L75.0856 16.8604V10.781L67.5884 12.3682V18.4775Z" fill="#32325D"/>
</svg>
