<!-- <svg width="56" height="27" viewBox="0" fill="none" xmlns="http://www.w3.org/2000/svg">

<path d="M167.237 14.7981L158.033 25.9884C157.737 26.3465 157.368 26.5255 156.998 26.5255C156.629 26.5255 156.259 26.3465 155.963 25.9884C155.372 25.2722 155.372 24.1532 155.963 23.437L162.654 15.2905H141.067C140.253 15.2905 139.588 14.4848 139.588 13.5001C139.588 12.5153 140.253 11.7096 141.067 11.7096H162.654L155.963 3.56312C155.372 2.84695 155.372 1.72792 155.963 1.01174C156.555 0.295565 157.479 0.295565 158.07 1.01174L167.274 12.202C167.829 12.9629 167.829 14.1267 167.237 14.7981Z" fill="#FF5722"/>
<rect x="76" y="11.307" width="88.7142" height="4.47534" rx="2.23767" fill="#FF5722"/>
<rect width="50" height="4.00159" rx="2.00079" transform="matrix(-1 0 0 1 52.6855 11.5194)" fill="#9A9A9A"/>
</svg> -->
<svg xmlns="http://www.w3.org/2000/svg" width="27" height="27" viewBox="0 0 27 27" fill="none">
    <path d="M4.7981 0.763002L15.9884 9.96699C16.3465 10.2629 16.5255 10.6319 16.5255 11.0019C16.5255 11.3719 16.3465 11.7409 15.9884 12.0368L6.84497 20.687L14.3155 20.687C15.556 20.687 16.6455 21.7755 16.6455 23.016V23.016C16.6455 24.2565 15.556 25.3459 14.3155 25.3459H3.3445C2.104 25.3459 1.01453 24.2565 1.01453 23.016V1.84588C1.01453 0.605368 2.104 0.515873 3.3445 1.01174H14.3155L6.84497 1.01174L15.9884 9.66209C16.3465 9.958 16.5255 10.327 16.5255 10.697C16.5255 11.067 16.3465 11.436 15.9884 11.7319L4.7981 20.9359C4.03718 21.4907 2.87345 21.4907 2.20205 20.8987C1.44117 20.2376 1.44117 19.052 2.0332 18.3806L12.202 9.17664C12.9629 8.62182 14.1267 8.62182 14.7981 9.21385L23.002 18.4188C23.6572 19.0511 23.6572 20.052 23.002 20.6843C22.3469 21.3166 21.3459 21.3166 20.7095 20.6843L12.202 12.1772C11.3682 11.3433 9.63177 11.3433 8.79798 12.1772C8.10861 12.8666 7.16264 12.8666 6.47327 12.1772L1.01174 6.71566C0.50556 6.20948 0.505556 5.33835 1.01174 4.83217C1.51793 4.32599 2.38906 4.32599 2.89524 4.83217L8.35676 10.2937L12.8153 5.83516C13.5215 5.12896 14.7467 5.12896 15.4529 5.83516C16.1591 6.54136 16.1591 7.76658 15.4529 8.47278L11.4529 12.4728C11.1673 12.7584 10.7463 12.7584 10.4607 12.4728C10.1751 12.1872 10.1751 11.7662 10.4607 11.4806L14.4607 7.48064L10.0022 11.9392C9.29602 12.6454 8.0708 12.6454 7.3646 11.9392C6.6584 11.233 6.6584 10.0078 7.3646 9.30158L11.3646 5.30158L8.68973 5.30158C8.03257 5.30158 7.48911 5.84505 7.48911 6.50221C7.48911 7.15937 8.03257 7.70283 8.68973 7.70283L11.3646 7.70283L4.0332 15.0342C3.37704 15.6914 3.37704 16.6349 4.0332 17.292L11.3646 24.6234L8.68973 24.6234C8.03257 24.6234 7.48911 25.1669 7.48911 25.8241C7.48911 26.4813 8.03257 27.0248 8.68973 27.0248L11.3646 27.0248C12.188 27.0248 12.8257 26.387 12.8257 25.5636V25.5636C12.8257 24.7403 12.188 24.1026 11.3646 24.1026L4.0332 24.1026L11.3646 31.4341C12.182 32.2515 13.818 32.2515 14.6354 31.4341L23.4359 22.6336C24.314 21.7555 24.314 20.2445 23.4359 19.3664C23.1686 19.0991 22.8326 19.0991 22.5654 19.3664C21.9922 19.9396 21.095 19.9396 20.5218 19.3664L12.202 11.0466C11.3433 10.1879 9.65674 10.1879 8.7981 11.0466L0.478241 19.3664C-0.094987 19.9396 -0.992188 19.9396 -1.56543 19.3664C-2.23886 18.693  -2.23886 17.449  -1.56543 16.7755L7.23407 8.44406C7.54284 8.1353 7.54284 7.61095 7.23407 7.30218C6.92531 6.99342 6.40096 6.99342 6.09219 7.30218L1.67952 11.7148C1.37244 12.0219 1.37633 12.5456 1.68341 12.8527C1.99048 13.1597 2.51422 13.1558 2.82129 12.8487L7.23296 8.43604C7.53563 8.13336 8.0621 8.13288 8.36477 8.43555C8.66745 8.73823 8.66794 9.2647 8.36527 9.56738L2.89375 15.0389L6.34451 15.0389C7.58502 15.0389 8.67447 16.1284 8.67447 17.3689V17.3689C8.67447 18.6094 7.58502 19.6989 6.34451 19.6989H1.84588C0.605368 19.6989 0.515873 18.6094 1.01174 17.3689V1.84588C1.01174 0.605368 2.10119 0.515873 3.3417 1.01174L9.91345 7.5835C10.4726 8.14263 11.4009 8.14263 11.96 7.5835C12.2146 7.32892 12.6104 7.32892 12.865 7.5835L17.2882 11.7813C17.7533 12.2464 17.7533 12.9887 17.2882 13.4538C16.8231 13.9189 16.0808 13.9189 15.6157 13.4538L11.4649 9.25292C11.1691 8.95716 10.6927 8.95716 10.3969 9.25292C10.1011 9.54868 10.1011 10.0251 10.3969 10.3209L15.5477 14.5217C16.2619 15.2359 16.2619 16.4647 15.5477 17.1789C14.8335 17.8931 13.6047 17.8931 12.8905 17.1789L8.88912 13.1775C8.60332 12.8917 8.127 12.8917 7.84121 13.1775C7.55542 13.4633 7.55542 13.9397 7.84121 14.2255L11.8426 18.2269C12.2279 18.6122 12.8347 18.6122 13.2201 18.2269L18.9361 12.5109C19.4161 12.0309 19.4161 11.2361 18.9361 10.7561L13.3516 5.17161C13.0067 4.82674 12.4165 4.82674 12.0716 5.17161C11.7268 5.51648 11.7268 6.10674 12.0716 6.45161L17.6561 11.0361C18.1116 11.4916 18.8564 11.4916 19.3119 11.0361C19.7687 10.5793 19.7703 9.83518 19.2265 9.37841L12.4718 2.62375C11.9821 2.13407 11.2329 2.13407 10.7432 2.62375C10.2535 3.11343 10.2535 3.86259 10.7432 4.35227L17.4979 11.1069C17.8621 11.4711 18.4085 11.4711 18.7727 11.1069C19.137 10.7426 19.137 10.1962 18.7727 9.83192L12.018 3.07726C11.6588 2.71804 11.0483 2.71804 10.6891 3.07726C10.3299 3.43648 10.3299 4.04697 10.6891 4.40519L17.4438 11.1599C17.7564 11.4725 18.2319 11.4725 18.5445 11.1599C18.8571 10.8473 18.8571 10.3718 18.5445 10.0592L13.2802 4.79492C13.0593 4.574 12.6892 4.574 12.4683 4.79492C12.2474 5.01584 12.2474 5.38599 12.4683 5.60691L17.7326 10.8712C18.0554 11.194 18.6025 11.194 18.9253 10.8712C19.248 10.5484 19.248 10.0013 18.9253 9.67852L14.661 5.41423C14.5347 5.28788 14.3713 5.22662 14.202 5.24349C14.0319 5.26036 13.8704 5.35421 13.756 5.51484C13.5456 5.796 13.5456 6.29736 13.756 6.57852C13.8716 6.73927 14.0342 6.8359 14.2042 6.85269C14.3731 6.86956 14.5376 6.80686 14.652 6.6606C14.8469 6.36842 14.8225 5.91576 14.5304 5.72088L12.0643 4.26179C11.7646 4.06115 11.3189 4.0863 11.1183 4.38594C10.9176 4.68558 10.9427 5.13128 11.2424 5.33192L13.7085 6.79101C13.9189 6.97379 14.2392 6.98803 14.4496 6.80527C14.5612 6.71033 14.7219 6.6316 14.892 6.64847C15.0621 6.66534 15.2235 6.77757 15.3172 6.92394C15.5111 7.21612 15.4867 7.66879 15.1945 7.86213L11.9264 10.1393C11.7733 10.241 11.6545 10.3794 11.5884 10.5446C11.4479 10.8477 11.561 11.2046 11.8641 11.3451L14.1187 12.6726C14.3237 12.7749 14.4799 12.9287 14.5583 13.1273C14.6367 13.3259 14.6305 13.5702 14.542 13.7718C14.4826 13.9095 14.3677 14.0133 14.2345 14.0502C14.0989 14.0886 13.9476 14.0561 13.8312 13.9605C13.6363 13.765 13.5856 13.4079 13.7811 13.212L16.0461 10.9349C16.1866 10.8092 16.2771 10.6311 16.3049 10.4416C16.3409 10.2156 16.2351 10.0015 16.0456 9.87089C15.856 9.74022 15.6223 9.7168 15.3963 9.78279C15.2068 9.81509 15.0287 9.90555 14.9031 10.0461L12.6486 11.3736C12.5011 11.5237 12.4285 11.7409 12.442 11.9489C12.4555 12.157 12.5512 12.3461 12.7013 12.4921C12.8254 12.6163 12.9987 12.6759 13.1725 12.654C13.3506 12.6317 13.5026 12.528 13.5883 12.3937C13.8013 12.0676 14.1653 12.0235 14.4914 12.2365L17.2596 13.9635C17.3883 14.0429 17.4912 14.1881 17.5061 14.3486C17.5211 14.5091 17.4451 14.6582 17.308 14.7566C17.0677 14.9289 16.6894 14.9223 16.5189 14.682L14.2539 12.4048C14.1752 12.3256 14.0719 12.186 14.0626 12.0288C14.0512 11.8589 14.1376 11.6967 14.303 11.5901C14.4803 11.4735 14.7366 11.4751 14.9163 11.5921C15.0744 11.6808 15.1447 11.8281 15.1227 11.9749C15.0786 12.2626 14.8483 12.4056 14.5606 12.3615L11.7924 11.6345C11.6637 11.5551 11.5608 11.4099 11.5459 11.2494C11.5309 11.0889 11.6069 10.9398 11.744 10.8414C11.9843 10.6691 12.3626 10.6757 12.5331 10.916L14.7981 13.1931C14.8768 13.2725 14.9801 13.4121 14.9894 13.5693C15.0008 13.7392 14.9144 13.9014 14.749 14.008C14.5717 14.1246 14.3154 14.123 14.1357 14.0061C13.9776 13.9173 13.9073 13.7701 13.9294 13.6233C13.9735 13.3356 14.2038 13.1926 14.4914 13.2367L17.2596 14.9637C17.3883 15.0431 17.4912 15.1883 17.5061 15.3488C17.5211 15.5093 17.4451 15.6584 17.308 15.7568C17.0677 15.9291 16.6894 15.9225 16.5189 15.682L14.2539 13.4048C14.1752 13.3256 14.0719 13.186 14.0626 13.0288C14.0512 12.8589 14.1376 12.6967 14.303 12.5901C14.4803 12.4735 14.7366 12.4751 14.9163 12.5921C15.0744 12.6808 15.1447 12.8281 15.1227 12.9749C15.0786 13.2626 14.8483 13.4056 14.5606 13.3615L11.7924 12.6345C11.6637 12.5551 11.5608 12.4099 11.5459 12.2494C11.5309 12.0889 11.6069 11.9398 11.744 11.8414C11.9843 11.6691 12.3626 11.6757 12.5331 11.916L14.7981 14.1931C14.8768 14.2725 14.9801 14.4121 14.9894 14.5693C15.0008" fill="#FF5722"/>
<rect x="76" y="11.307" width="88.7142" height="4.47534" rx="2.23767" fill="#FF5722"/>
<rect width="50" height="4.00159" rx="2.00079" transform="matrix(-1 0 0 1 52.6855 11.5194)" fill="#9A9A9A"/>
</svg>

