<svg width="215" height="169" viewBox="0 0 215 169" fill="none" xmlns="http://www.w3.org/2000/svg">
<path d="M50.871 1.53014L50.5455 1.41172L50.3203 1.67474C23.1656 33.3778 0.5 78.0572 0.5 120.202C0.5 135.169 5.37919 147.25 13.4695 155.591C21.5596 163.932 32.8273 168.5 45.5364 168.5C69.685 168.5 89.9273 148.908 89.9273 124.724C89.9273 101.359 73.1716 85.0918 51.2444 82.3022C53.8582 55.446 60.9241 32.3967 72.4447 9.97953L72.7039 9.47508L72.171 9.28113L50.871 1.53014ZM175.444 1.53014L175.118 1.41172L174.893 1.67474C147.738 33.3778 125.073 78.0572 125.073 120.202C125.073 135.169 129.952 147.25 138.042 155.591C146.132 163.932 157.4 168.5 170.109 168.5C194.258 168.5 214.5 148.908 214.5 124.724C214.5 101.359 197.744 85.0918 175.817 82.3022C178.431 55.446 185.497 32.3967 197.017 9.97953L197.277 9.47508L196.744 9.28113L175.444 1.53014Z" stroke="#D5DBDE"/>
</svg>