<svg id="services2" xmlns="http://www.w3.org/2000/svg" width="65.934" height="51" viewBox="0 0 65.934 51">
  <g id="Group_5" data-name="Group 5" transform="translate(0 0)">
    <g id="Group_4" data-name="Group 4">
      <path id="Path_12" data-name="Path 12" d="M63.412,71.949l-1.437-1.522-5.044-13.6A5.916,5.916,0,0,0,51.423,53H15.4A5.9,5.9,0,0,0,9.89,56.832L4.917,70.258,2.846,72.174A8.1,8.1,0,0,0,0,78.331V98.139A5.889,5.889,0,0,0,5.889,104H9.608A5.889,5.889,0,0,0,15.5,98.139V95.265H50.436v2.874A5.889,5.889,0,0,0,56.325,104h3.719a5.889,5.889,0,0,0,5.889-5.861V77.81A8.169,8.169,0,0,0,63.412,71.949ZM12.539,57.79a3.047,3.047,0,0,1,2.86-1.972H51.437A3.067,3.067,0,0,1,54.3,57.79l4.4,11.834H55.41a9.663,9.663,0,0,0-19.118,0H8.143Zm40,11.834h-13.4a6.843,6.843,0,0,1,13.4,0ZM12.68,98.139a3.063,3.063,0,0,1-3.071,3.043H5.889a3.063,3.063,0,0,1-3.071-3.043V94.448a5.722,5.722,0,0,0,3.071.817H12.68Zm50.436,0a3.063,3.063,0,0,1-3.071,3.043H56.325a3.073,3.073,0,0,1-3.071-3.043V95.265h6.791a5.722,5.722,0,0,0,3.071-.817v3.691Zm-3.071-5.692H5.889a3.039,3.039,0,0,1-3.071-3.015v-11.1A5.289,5.289,0,0,1,4.691,74.3l.056-.056,1.916-1.8H60.017l1.352,1.451c.014.028.056.042.07.07A5.31,5.31,0,0,1,63.1,77.81V89.433h.014A3.049,3.049,0,0,1,60.045,92.448Z" transform="translate(0 -53)" fill="#0c8760"/>
    </g>
  </g>
  <g id="Group_7" data-name="Group 7" transform="translate(6.622 25.077)">
    <g id="Group_6" data-name="Group 6">
      <path id="Path_13" data-name="Path 13" d="M58.975,231H48.409A1.413,1.413,0,0,0,47,232.409v7.326a1.413,1.413,0,0,0,1.409,1.409H58.975a1.413,1.413,0,0,0,1.409-1.409v-7.326A1.413,1.413,0,0,0,58.975,231Zm-1.409,7.326H49.818v-4.508h7.749Z" transform="translate(-47 -231)" fill="#0c8760"/>
    </g>
  </g>
  <g id="Group_9" data-name="Group 9" transform="translate(45.928 25.077)">
    <g id="Group_8" data-name="Group 8">
      <path id="Path_14" data-name="Path 14" d="M337.975,231H327.409A1.413,1.413,0,0,0,326,232.409v7.326a1.413,1.413,0,0,0,1.409,1.409h10.566a1.413,1.413,0,0,0,1.409-1.409v-7.326A1.413,1.413,0,0,0,337.975,231Zm-1.409,7.326h-7.749v-4.508h7.749Z" transform="translate(-326 -231)" fill="#0c8760"/>
    </g>
  </g>
</svg>
