<svg xmlns="http://www.w3.org/2000/svg" width="51.933" height="51" viewBox="0 0 51.933 51">
  <g id="services3" transform="translate(0)">
    <g id="Group_14" data-name="Group 14" transform="translate(0 0)">
      <path id="Path_17" data-name="Path 17" d="M51.337,17.838,26.544,4.066a1.175,1.175,0,0,0-1.156,0L.608,17.838A1.182,1.182,0,0,0,0,18.875V53.746a1.142,1.142,0,0,0,1.144,1.168H50.765a1.142,1.142,0,0,0,1.168-1.144V18.887A1.153,1.153,0,0,0,51.337,17.838Zm-8.685,34.7H9.293V47.658H42.652Zm0-7.267H9.293V40.748H42.652Zm0-6.91H9.293V33.838H42.652Zm0-6.91H9.293V26.928H42.652Zm6.91,21.087H45.034V25.773a1.188,1.188,0,0,0-1.156-1.227H8.066A1.2,1.2,0,0,0,6.91,25.773v26.77H2.383V19.578L25.972,6.461,49.562,19.578Z" transform="translate(0 -3.914)" fill="#0c8760"/>
    </g>
  </g>
</svg>
