<svg xmlns="http://www.w3.org/2000/svg" width="57.212" height="51" viewBox="0 0 57.212 51">
  <g id="services1" transform="translate(0)">
    <g id="Group_16" data-name="Group 16" transform="translate(0 0)">
      <g id="Group_15" data-name="Group 15">
        <path id="Path_18" data-name="Path 18" d="M56.6,47.941,29.484,28.085a1.486,1.486,0,0,0-1.756,0L.608,47.941a1.487,1.487,0,1,0,1.756,2.4L28.606,31.126,54.847,50.34a1.487,1.487,0,0,0,1.756-2.4Z" transform="translate(0.001 -27.798)" fill="#0c8760"/>
      </g>
    </g>
    <g id="Group_18" data-name="Group 18" transform="translate(6.308 22.879)">
      <g id="Group_17" data-name="Group 17">
        <path id="Path_19" data-name="Path 19" d="M99.562,232.543a1.487,1.487,0,0,0-1.487,1.487v23.661H86.183V244.775a7.433,7.433,0,0,0-14.866,0v12.916H59.425V234.03a1.487,1.487,0,0,0-2.973,0v25.148a1.487,1.487,0,0,0,1.487,1.487H72.8a1.486,1.486,0,0,0,1.481-1.371,1.121,1.121,0,0,0,.006-.116v-14.4a4.46,4.46,0,1,1,8.92,0v14.4a1.09,1.09,0,0,0,.006.114,1.486,1.486,0,0,0,1.481,1.372H99.562a1.487,1.487,0,0,0,1.487-1.487V234.03A1.487,1.487,0,0,0,99.562,232.543Z" transform="translate(-56.452 -232.543)" fill="#0c8760"/>
      </g>
    </g>
  </g>
</svg>
