<svg width="1693" height="114" viewBox="0 0 1693 114" fill="none" xmlns="http://www.w3.org/2000/svg">
<path d="M0 1.76296C0 3.33014 3.52615 4.40757 24.2913 9.20706C152.702 39.1794 296.393 63.2747 452.033 80.7096C713.458 110.192 999.175 120.085 1254.72 108.723C1423.68 101.181 1572.27 83.746 1674.34 59.5527C1690.2 55.8306 1694.12 54.1655 1692.26 52.3045C1691.97 51.9127 1684.03 53.4799 1674.73 55.7327C1416.44 116.461 926.007 126.746 487.295 80.8076C318.333 63.0788 147.805 35.0655 17.7287 3.81988C8.91333 1.76296 1.37128 -0.000118514 0.881538 -0.000118514C0.391795 -0.000118514 0 0.783471 0 1.76296Z" fill="#40EC6B"/>
</svg>
