<svg width="285" height="284" viewBox="0 0 285 284" fill="#fff" xmlns="http://www.w3.org/2000/svg">
<path d="M127.5 0.600066C108.7 3.10007 94.5 7.10007 81.3 13.4001C47.3 29.8001 18.5 62.3001 7.30003 97.0001C-6.29997 139.4 0.100034 186.5 24.2 221.2C44.3 250.1 73.5 271.3 104.6 279.5C126.8 285.4 158.2 285.4 180.4 279.5C207.4 272.4 231.4 256.7 252.7 232.1C265.7 217.2 277.2 193.3 281.9 171.5C286.8 148.6 285.2 120.3 277.7 97.0001C270.3 74.3001 254.9 51.5001 235.5 34.7001C215.4 17.3001 195.9 7.80007 168 2.00007C162.5 0.800066 133.1 -0.199934 127.5 0.600066ZM167.6 19.4001C195.1 24.9001 219.5 39.5001 237.9 61.4001C255.5 82.5001 264.1 102.7 267.1 130.2C268.1 139.7 268.1 144.3 267.1 153.7C263.7 185.1 253 207.7 231.5 229.5C206.4 255 177.9 267 142.5 267C107.1 267 78.6 255 53.5 229.5C32.1 207.9 21.4 185.2 17.9 154.2C16.4 140.7 17.7 124.2 21.6 109C24.6 97.4001 33.9 78.3001 41.2 68.5001C49.4 57.7001 62.9 44.9001 73.7 37.6001C91.2 26.0001 104.3 21.3001 129.5 17.6001C135.1 16.8001 160.5 18.0001 167.6 19.4001Z"/>
<path d="M134.1 99.7002L134.2 146.5L162.1 173.9L190 201.4L195.5 196C198.5 193 201 190.1 201 189.6C201 189.1 189.8 177.3 176 163.5L151 138.4V95.7002V53.0002H142.5H134L134.1 99.7002Z"/>
</svg>
